# Blender 5.0.1
# www.blender.org
mtllib hammer_of_justice_uv.mtl
o hammner_of_justice
v 0.000000 3.671027 -2.000000
v 1.083651 4.800000 1.008953
v 1.062829 4.585334 1.008953
v 1.001163 4.378917 1.008953
v 0.901023 4.188683 1.008953
v 0.766257 4.021941 1.008953
v 0.602044 3.885099 1.008953
v 0.414695 3.783416 1.008953
v 0.211410 3.720801 1.008953
v 0.000000 3.699658 1.008953
v -0.211410 3.720801 1.008953
v -0.414696 3.783416 1.008953
v -0.602045 3.885099 1.008953
v -0.766257 4.021941 1.008953
v -0.901023 4.188683 1.008953
v -1.001163 4.378917 1.008953
v -1.062829 4.585334 1.008953
v -1.083652 4.800000 1.008953
v -1.062829 5.014666 1.008953
v -1.001163 5.221083 1.008953
v -0.901023 5.411317 1.008953
v -0.766257 5.578059 1.008953
v -0.602044 5.714901 1.008953
v -0.414696 5.816584 1.008953
v -0.211410 5.879200 1.008953
v 0.000000 5.900342 1.008953
v 0.211410 5.879200 1.008953
v 0.414695 5.816584 1.008953
v 0.602044 5.714901 1.008953
v 0.766257 5.578059 1.008953
v 0.901023 5.411317 1.008953
v 1.001163 5.221083 1.008953
v 1.062829 5.014666 1.008953
v 1.083651 4.800000 0.897972
v 1.062829 4.585334 0.897972
v 1.001163 4.378917 0.897972
v 0.901023 4.188683 0.897972
v 0.766257 4.021941 0.897972
v 0.602044 3.885099 0.897972
v 0.414695 3.783416 0.897972
v 0.211410 3.720801 0.897972
v 0.000000 3.699658 0.897972
v -0.211410 3.720801 0.897972
v -0.414696 3.783416 0.897972
v -0.602045 3.885099 0.897972
v -0.766257 4.021941 0.897972
v -0.901023 4.188683 0.897972
v -1.001163 4.378917 0.897972
v -1.062829 4.585334 0.897972
v -1.083652 4.800000 0.897972
v -1.062829 5.014666 0.897972
v -1.001163 5.221083 0.897972
v -0.901023 5.411317 0.897972
v -0.766257 5.578059 0.897972
v -0.602044 5.714901 0.897972
v -0.414696 5.816584 0.897972
v -0.211410 5.879200 0.897972
v 0.000000 5.900342 0.897972
v 0.211410 5.879200 0.897972
v 0.414695 5.816584 0.897972
v 0.602044 5.714901 0.897972
v 0.766257 5.578059 0.897972
v 0.901023 5.411317 0.897972
v 1.001163 5.221083 0.897972
v 1.062829 5.014666 0.897972
v 0.900268 4.620925 0.369105
v 0.848034 4.448733 0.369105
v 0.763210 4.290039 0.369105
v 0.649057 4.150943 0.369105
v 0.509961 4.036789 0.369105
v 0.351267 3.951966 0.369105
v 0.179074 3.899732 0.369105
v 0.000000 3.882095 0.369105
v -0.179074 3.899732 0.369105
v -0.351267 3.951966 0.369105
v -0.509961 4.036789 0.369105
v -0.649057 4.150943 0.369105
v -0.763210 4.290039 0.369105
v -0.848034 4.448733 0.369105
v -0.900268 4.620925 0.369105
v -0.917905 4.800000 0.369105
v -0.900268 4.979074 0.369105
v -0.848034 5.151267 0.369105
v -0.763210 5.309961 0.369105
v -0.649057 5.449057 0.369105
v -0.509961 5.563210 0.369105
v -0.351267 5.648034 0.369105
v -0.179074 5.700268 0.369105
v 0.000000 5.717906 0.369105
v 0.179075 5.700268 0.369105
v 0.351267 5.648034 0.369105
v 0.509961 5.563210 0.369105
v 0.649057 5.449057 0.369105
v 0.763210 5.309961 0.369105
v 0.848034 5.151267 0.369105
v 0.900268 4.979074 0.369105
v 0.917905 4.800000 0.369105
v 0.757218 4.536000 -0.153993
v 0.713283 4.391168 -0.153993
v 0.641938 4.257690 -0.153993
v 0.545924 4.140696 -0.153993
v 0.428929 4.044682 -0.153993
v 0.295452 3.973336 -0.153993
v 0.150620 3.929402 -0.153993
v 0.000000 3.914567 -0.153993
v -0.150620 3.929402 -0.153993
v -0.295452 3.973336 -0.153993
v -0.428929 4.044682 -0.153993
v -0.545924 4.140697 -0.153993
v -0.641938 4.257691 -0.153993
v -0.713284 4.391168 -0.153993
v -0.757218 4.536000 -0.153993
v -0.772053 4.686620 -0.153993
v -0.757218 4.837240 -0.153993
v -0.713284 4.982072 -0.153993
v -0.641938 5.115550 -0.153993
v -0.545924 5.232543 -0.153993
v -0.428929 5.328558 -0.153993
v -0.295452 5.399903 -0.153993
v -0.150620 5.443838 -0.153993
v 0.000000 5.458673 -0.153993
v 0.150620 5.443838 -0.153993
v 0.295452 5.399903 -0.153993
v 0.428929 5.328558 -0.153993
v 0.545924 5.232543 -0.153993
v 0.641938 5.115550 -0.153993
v 0.713283 4.982072 -0.153993
v 0.757218 4.837240 -0.153993
v 0.772052 4.686620 -0.153993
v 0.569495 4.399483 -0.834485
v 0.536453 4.290557 -0.834485
v 0.482795 4.190170 -0.834485
v 0.410583 4.102180 -0.834485
v 0.322593 4.029968 -0.834485
v 0.222206 3.976310 -0.834485
v 0.113280 3.943268 -0.834485
v 0.000000 3.932111 -0.834485
v -0.113280 3.943268 -0.834485
v -0.222206 3.976310 -0.834485
v -0.322593 4.029968 -0.834485
v -0.410583 4.102180 -0.834485
v -0.482795 4.190170 -0.834485
v -0.536453 4.290557 -0.834485
v -0.569495 4.399484 -0.834485
v -0.580652 4.512763 -0.834485
v -0.569495 4.626043 -0.834485
v -0.536453 4.734969 -0.834485
v -0.482795 4.835356 -0.834485
v -0.410583 4.923347 -0.834485
v -0.322593 4.995558 -0.834485
v -0.222206 5.049216 -0.834485
v -0.113280 5.082259 -0.834485
v 0.000000 5.093416 -0.834485
v 0.113280 5.082259 -0.834485
v 0.222206 5.049216 -0.834485
v 0.322593 4.995558 -0.834485
v 0.410583 4.923347 -0.834485
v 0.482795 4.835356 -0.834485
v 0.536453 4.734969 -0.834485
v 0.569495 4.626043 -0.834485
v 0.580652 4.512763 -0.834485
v 0.338366 4.209696 -1.289636
v 0.318734 4.144978 -1.289636
v 0.286853 4.085332 -1.289636
v 0.243948 4.033053 -1.289636
v 0.191669 3.990149 -1.289636
v 0.132024 3.958268 -1.289636
v 0.067305 3.938635 -1.289636
v 0.000000 3.932006 -1.289636
v -0.067305 3.938635 -1.289636
v -0.132024 3.958268 -1.289636
v -0.191669 3.990149 -1.289636
v -0.243948 4.033053 -1.289636
v -0.286853 4.085332 -1.289636
v -0.318734 4.144978 -1.289636
v -0.338366 4.209696 -1.289636
v -0.344995 4.277002 -1.289636
v -0.338366 4.344307 -1.289636
v -0.318734 4.409025 -1.289636
v -0.286853 4.468671 -1.289636
v -0.243948 4.520950 -1.289636
v -0.191669 4.563854 -1.289636
v -0.132024 4.595736 -1.289636
v -0.067305 4.615368 -1.289636
v 0.000000 4.621997 -1.289636
v 0.067305 4.615368 -1.289636
v 0.132024 4.595736 -1.289636
v 0.191669 4.563854 -1.289636
v 0.243948 4.520950 -1.289636
v 0.286853 4.468671 -1.289636
v 0.318734 4.409025 -1.289636
v 0.338366 4.344307 -1.289636
v 0.344995 4.277002 -1.289636
v 0.206747 4.035686 -1.580050
v 0.194752 3.996344 -1.580050
v 0.175272 3.960087 -1.580050
v 0.149057 3.928308 -1.580050
v 0.117113 3.902227 -1.580050
v 0.080669 3.882847 -1.580050
v 0.041125 3.870913 -1.580050
v 0.000000 3.866883 -1.580050
v -0.041125 3.870913 -1.580050
v -0.080669 3.882847 -1.580050
v -0.117113 3.902227 -1.580050
v -0.149057 3.928308 -1.580050
v -0.175272 3.960087 -1.580050
v -0.194752 3.996344 -1.580050
v -0.206747 4.035686 -1.580050
v -0.210798 4.076598 -1.580050
v -0.206747 4.117512 -1.580050
v -0.194752 4.156853 -1.580050
v -0.175272 4.193110 -1.580050
v -0.149057 4.224890 -1.580050
v -0.117113 4.250970 -1.580050
v -0.080669 4.270350 -1.580050
v -0.041125 4.282284 -1.580050
v 0.000000 4.286314 -1.580050
v 0.041125 4.282284 -1.580050
v 0.080669 4.270350 -1.580050
v 0.117113 4.250970 -1.580050
v 0.149057 4.224890 -1.580050
v 0.175272 4.193110 -1.580050
v 0.194752 4.156853 -1.580050
v 0.206747 4.117512 -1.580050
v 0.210798 4.076598 -1.580050
v 1.000000 4.800000 0.904419
v 0.980785 4.604910 0.904419
v 0.923879 4.417316 0.904419
v 0.831470 4.244430 0.904419
v 0.707107 4.092893 0.904419
v 0.555570 3.968530 0.904419
v 0.382683 3.876120 0.904419
v 0.195090 3.819215 0.904419
v 0.000000 3.800000 0.904419
v -0.195090 3.819215 0.904419
v -0.382684 3.876120 0.904419
v -0.555570 3.968530 0.904419
v -0.707107 4.092893 0.904419
v -0.831470 4.244430 0.904419
v -0.923880 4.417316 0.904419
v -0.980785 4.604910 0.904419
v -1.000000 4.800000 0.904419
v -0.980785 4.995090 0.904419
v -0.923880 5.182683 0.904419
v -0.831470 5.355570 0.904419
v -0.707107 5.507107 0.904419
v -0.555570 5.631470 0.904419
v -0.382683 5.723879 0.904419
v -0.195090 5.780785 0.904419
v 0.000000 5.800000 0.904419
v 0.195090 5.780785 0.904419
v 0.382683 5.723879 0.904419
v 0.555570 5.631470 0.904419
v 0.707107 5.507107 0.904419
v 0.831470 5.355570 0.904419
v 0.923879 5.182683 0.904419
v 0.980785 4.995090 0.904419
v 0.000000 1.000000 -0.100000
v 0.000000 4.000000 -0.100000
v 0.019509 1.000000 -0.098078
v 0.019509 4.000000 -0.098078
v 0.038268 1.000000 -0.092388
v 0.038268 4.000000 -0.092388
v 0.055557 1.000000 -0.083147
v 0.055557 4.000000 -0.083147
v 0.070711 1.000000 -0.070711
v 0.070711 4.000000 -0.070711
v 0.083147 1.000000 -0.055557
v 0.083147 4.000000 -0.055557
v 0.092388 1.000000 -0.038268
v 0.092388 4.000000 -0.038268
v 0.098079 1.000000 -0.019509
v 0.098079 4.000000 -0.019509
v 0.100000 1.000000 0.000000
v 0.100000 4.000000 0.000000
v 0.098079 1.000000 0.019509
v 0.098079 4.000000 0.019509
v 0.092388 1.000000 0.038268
v 0.092388 4.000000 0.038268
v 0.083147 1.000000 0.055557
v 0.083147 4.000000 0.055557
v 0.070711 1.000000 0.070711
v 0.070711 4.000000 0.070711
v 0.055557 1.000000 0.083147
v 0.055557 4.000000 0.083147
v 0.038268 1.000000 0.092388
v 0.038268 4.000000 0.092388
v 0.019509 1.000000 0.098078
v 0.019509 4.000000 0.098078
v 0.000000 1.000000 0.100000
v 0.000000 4.000000 0.100000
v -0.019509 1.000000 0.098078
v -0.019509 4.000000 0.098078
v -0.038268 1.000000 0.092388
v -0.038268 4.000000 0.092388
v -0.055557 1.000000 0.083147
v -0.055557 4.000000 0.083147
v -0.070711 1.000000 0.070711
v -0.070711 4.000000 0.070711
v -0.083147 1.000000 0.055557
v -0.083147 4.000000 0.055557
v -0.092388 1.000000 0.038268
v -0.092388 4.000000 0.038268
v -0.098079 1.000000 0.019509
v -0.098079 4.000000 0.019509
v -0.100000 1.000000 0.000000
v -0.100000 4.000000 0.000000
v -0.098079 1.000000 -0.019509
v -0.098079 4.000000 -0.019509
v -0.092388 1.000000 -0.038268
v -0.092388 4.000000 -0.038268
v -0.083147 1.000000 -0.055557
v -0.083147 4.000000 -0.055557
v -0.070711 1.000000 -0.070711
v -0.070711 4.000000 -0.070711
v -0.055557 1.000000 -0.083147
v -0.055557 4.000000 -0.083147
v -0.038268 1.000000 -0.092388
v -0.038268 4.000000 -0.092388
v -0.019509 1.000000 -0.098078
v -0.019509 4.000000 -0.098078
v 0.000000 5.500000 -0.100000
v 0.000000 5.900000 0.000000
v 0.019509 5.500000 -0.098078
v 0.038268 5.500000 -0.092388
v 0.055557 5.500000 -0.083147
v 0.070711 5.500000 -0.070711
v 0.083147 5.500000 -0.055557
v 0.092388 5.500000 -0.038268
v 0.098079 5.500000 -0.019509
v 0.100000 5.500000 0.000000
v 0.098079 5.500000 0.019509
v 0.092388 5.500000 0.038268
v 0.083147 5.500000 0.055557
v 0.070711 5.500000 0.070711
v 0.055557 5.500000 0.083147
v 0.038268 5.500000 0.092388
v 0.019509 5.500000 0.098078
v 0.000000 5.500000 0.100000
v -0.019509 5.500000 0.098078
v -0.038268 5.500000 0.092388
v -0.055557 5.500000 0.083147
v -0.070711 5.500000 0.070711
v -0.083147 5.500000 0.055557
v -0.092388 5.500000 0.038268
v -0.098079 5.500000 0.019509
v -0.100000 5.500000 0.000000
v -0.098079 5.500000 -0.019509
v -0.092388 5.500000 -0.038268
v -0.083147 5.500000 -0.055557
v -0.070711 5.500000 -0.070711
v -0.055557 5.500000 -0.083147
v -0.038268 5.500000 -0.092388
v -0.019509 5.500000 -0.098078
v 0.000000 3.850000 -0.150000
v 0.000000 3.950000 -0.150000
v 0.029264 3.850000 -0.147118
v 0.029264 3.950000 -0.147118
v 0.057403 3.850000 -0.138582
v 0.057403 3.950000 -0.138582
v 0.083336 3.850000 -0.124720
v 0.083336 3.950000 -0.124720
v 0.106066 3.850000 -0.106066
v 0.106066 3.950000 -0.106066
v 0.124720 3.850000 -0.083336
v 0.124720 3.950000 -0.083336
v 0.138582 3.850000 -0.057403
v 0.138582 3.950000 -0.057403
v 0.147118 3.850000 -0.029264
v 0.147118 3.950000 -0.029264
v 0.150000 3.850000 0.000000
v 0.150000 3.950000 0.000000
v 0.147118 3.850000 0.029264
v 0.147118 3.950000 0.029264
v 0.138582 3.850000 0.057403
v 0.138582 3.950000 0.057403
v 0.124720 3.850000 0.083336
v 0.124720 3.950000 0.083336
v 0.106066 3.850000 0.106066
v 0.106066 3.950000 0.106066
v 0.083336 3.850000 0.124720
v 0.083336 3.950000 0.124720
v 0.057403 3.850000 0.138582
v 0.057403 3.950000 0.138582
v 0.029264 3.850000 0.147118
v 0.029264 3.950000 0.147118
v 0.000000 3.850000 0.150000
v 0.000000 3.950000 0.150000
v -0.029264 3.850000 0.147118
v -0.029264 3.950000 0.147118
v -0.057403 3.850000 0.138582
v -0.057403 3.950000 0.138582
v -0.083336 3.850000 0.124720
v -0.083336 3.950000 0.124720
v -0.106066 3.850000 0.106066
v -0.106066 3.950000 0.106066
v -0.124720 3.850000 0.083336
v -0.124720 3.950000 0.083336
v -0.138582 3.850000 0.057403
v -0.138582 3.950000 0.057403
v -0.147118 3.850000 0.029264
v -0.147118 3.950000 0.029264
v -0.150000 3.850000 0.000000
v -0.150000 3.950000 0.000000
v -0.147118 3.850000 -0.029263
v -0.147118 3.950000 -0.029263
v -0.138582 3.850000 -0.057403
v -0.138582 3.950000 -0.057403
v -0.124720 3.850000 -0.083336
v -0.124720 3.950000 -0.083336
v -0.106066 3.850000 -0.106066
v -0.106066 3.950000 -0.106066
v -0.083336 3.850000 -0.124720
v -0.083336 3.950000 -0.124720
v -0.057403 3.850000 -0.138582
v -0.057403 3.950000 -0.138582
v -0.029264 3.850000 -0.147118
v -0.029264 3.950000 -0.147118
vn 0.7276 -0.0000 0.6860
vn 0.6895 -0.1349 -0.7116
vn 0.7023 -0.0000 -0.7119
vn 0.6737 -0.2749 0.6859
vn 0.6512 -0.2653 -0.7110
vn 0.5883 -0.3868 -0.7102
vn 0.6079 -0.4001 0.6858
vn 0.5025 -0.4945 -0.7092
vn 0.5185 -0.5108 0.6857
vn 0.3965 -0.5840 -0.7083
vn 0.4087 -0.6025 0.6856
vn 0.2741 -0.6513 -0.7076
vn 0.2822 -0.6712 0.6855
vn 0.1401 -0.6930 -0.7072
vn 0.1441 -0.7138 0.6854
vn -0.0000 -0.7072 -0.7070
vn -0.0000 -0.7282 0.6854
vn -0.1401 -0.6930 -0.7072
vn -0.1441 -0.7138 0.6854
vn -0.2741 -0.6513 -0.7076
vn -0.2822 -0.6712 0.6855
vn -0.3965 -0.5840 -0.7083
vn -0.4087 -0.6025 0.6856
vn -0.5025 -0.4945 -0.7092
vn -0.5185 -0.5108 0.6857
vn -0.5883 -0.3868 -0.7102
vn -0.6079 -0.4001 0.6858
vn -0.6512 -0.2653 -0.7110
vn -0.6737 -0.2749 0.6859
vn -0.6895 -0.1349 -0.7116
vn -0.7140 -0.1399 0.6860
vn -0.7023 -0.0000 -0.7119
vn -0.7276 -0.0000 0.6860
vn -0.6895 0.1349 -0.7116
vn -0.7140 0.1399 0.6860
vn -0.6512 0.2653 -0.7110
vn -0.6737 0.2749 0.6859
vn -0.5883 0.3868 -0.7102
vn -0.6079 0.4001 0.6858
vn -0.5025 0.4945 -0.7092
vn -0.5185 0.5108 0.6857
vn -0.3965 0.5840 -0.7083
vn -0.4087 0.6025 0.6856
vn -0.2741 0.6513 -0.7076
vn -0.2822 0.6712 0.6855
vn -0.1401 0.6930 -0.7072
vn -0.1441 0.7138 0.6854
vn -0.0000 0.7072 -0.7070
vn -0.0000 0.7282 0.6854
vn 0.1401 0.6930 -0.7072
vn 0.1441 0.7138 0.6854
vn 0.2741 0.6513 -0.7076
vn 0.2822 0.6712 0.6855
vn 0.3965 0.5840 -0.7083
vn 0.4086 0.6025 0.6856
vn 0.5025 0.4945 -0.7092
vn 0.5185 0.5108 0.6857
vn 0.5883 0.3868 -0.7102
vn 0.6079 0.4001 0.6858
vn 0.6512 0.2653 -0.7110
vn 0.6737 0.2749 0.6859
vn 0.6895 0.1349 -0.7116
vn 0.5830 0.1161 -0.8041
vn 0.5942 -0.0000 -0.8043
vn 0.5497 0.2280 -0.8037
vn 0.4953 0.3315 -0.8030
vn 0.4219 0.4225 -0.8022
vn 0.3319 0.4975 -0.8014
vn 0.2289 0.5534 -0.8008
vn 0.1168 0.5880 -0.8004
vn -0.0000 0.5996 -0.8003
vn -0.1168 0.5879 -0.8004
vn -0.2289 0.5534 -0.8008
vn -0.3319 0.4975 -0.8014
vn -0.4219 0.4225 -0.8022
vn -0.4953 0.3315 -0.8030
vn -0.5497 0.2280 -0.8037
vn -0.5830 0.1161 -0.8041
vn -0.5942 -0.0000 -0.8043
vn -0.5830 -0.1161 -0.8041
vn -0.5496 -0.2280 -0.8037
vn -0.4954 -0.3318 -0.8028
vn -0.4219 -0.4225 -0.8022
vn -0.3319 -0.4975 -0.8014
vn -0.2289 -0.5534 -0.8008
vn -0.1168 -0.5880 -0.8004
vn -0.0000 -0.5996 -0.8003
vn 0.1168 -0.5880 -0.8004
vn 0.2289 -0.5534 -0.8008
vn 0.3319 -0.4975 -0.8014
vn 0.4219 -0.4225 -0.8022
vn 0.4953 -0.3315 -0.8030
vn 0.5496 -0.2280 -0.8037
vn 0.5830 -0.1161 -0.8042
vn 0.9629 0.0005 -0.2700
vn 0.9637 -0.1856 -0.1918
vn 0.9550 -0.1893 -0.2282
vn 0.9122 -0.3716 -0.1728
vn 0.9079 -0.3753 -0.1868
vn 0.8244 -0.5444 -0.1549
vn 0.8228 -0.5489 -0.1476
vn 0.7035 -0.6970 -0.1389
vn 0.7031 -0.7021 -0.1127
vn 0.5542 -0.8229 -0.1255
vn 0.5541 -0.8282 -0.0837
vn 0.3825 -0.9167 -0.1155
vn 0.3823 -0.9219 -0.0619
vn 0.1952 -0.9747 -0.1093
vn 0.1951 -0.9796 -0.0485
vn -0.0000 -0.9942 -0.1072
vn -0.0000 -0.9990 -0.0439
vn -0.1951 -0.9796 -0.0485
vn -0.1952 -0.9747 -0.1093
vn -0.3823 -0.9219 -0.0619
vn -0.3825 -0.9167 -0.1155
vn -0.5541 -0.8282 -0.0837
vn -0.5542 -0.8229 -0.1255
vn -0.7031 -0.7021 -0.1127
vn -0.7035 -0.6970 -0.1389
vn -0.8228 -0.5489 -0.1476
vn -0.8244 -0.5444 -0.1549
vn -0.9079 -0.3753 -0.1868
vn -0.9122 -0.3716 -0.1728
vn -0.9550 -0.1893 -0.2282
vn -0.9637 -0.1856 -0.1918
vn -0.9629 0.0005 -0.2700
vn -0.9775 0.0060 -0.2109
vn -0.9323 0.1858 -0.3102
vn -0.9535 0.1955 -0.2294
vn -0.8662 0.3591 -0.3474
vn -0.8933 0.3757 -0.2466
vn -0.7689 0.5140 -0.3802
vn -0.7999 0.5400 -0.2618
vn -0.6456 0.6457 -0.4078
vn -0.6772 0.6826 -0.2748
vn -0.5017 0.7508 -0.4297
vn -0.5301 0.7986 -0.2851
vn -0.3426 0.8271 -0.4455
vn -0.3641 0.8842 -0.2926
vn -0.1737 0.8734 -0.4550
vn -0.1853 0.9367 -0.2971
vn -0.0000 0.8889 -0.4581
vn 0.1853 0.9367 -0.2971
vn 0.1737 0.8734 -0.4550
vn 0.3641 0.8842 -0.2926
vn 0.3426 0.8271 -0.4455
vn 0.5301 0.7986 -0.2851
vn 0.5017 0.7508 -0.4297
vn 0.6772 0.6826 -0.2748
vn 0.6456 0.6457 -0.4078
vn 0.7999 0.5400 -0.2618
vn 0.7689 0.5140 -0.3802
vn 0.8933 0.3757 -0.2466
vn 0.8662 0.3591 -0.3474
vn 0.9535 0.1955 -0.2294
vn 0.9323 0.1858 -0.3102
vn 0.9775 0.0060 -0.2109
vn 0.8883 0.1795 -0.4227
vn 0.9298 0.0036 -0.3680
vn 0.8145 0.3394 -0.4706
vn 0.7141 0.4787 -0.5108
vn 0.5932 0.5942 -0.5431
vn 0.4570 0.6846 -0.5678
vn 0.3101 0.7493 -0.5852
vn 0.1567 0.7880 -0.5954
vn -0.0000 0.8009 -0.5988
vn -0.1567 0.7880 -0.5954
vn -0.3101 0.7493 -0.5852
vn -0.4570 0.6846 -0.5678
vn -0.5932 0.5942 -0.5431
vn -0.7141 0.4787 -0.5108
vn -0.8145 0.3394 -0.4706
vn -0.8883 0.1795 -0.4227
vn -0.9298 0.0036 -0.3680
vn -0.9339 -0.1813 -0.3082
vn -0.8974 -0.3664 -0.2457
vn -0.8201 -0.5418 -0.1842
vn -0.7048 -0.6979 -0.1275
vn -0.5572 -0.8265 -0.0795
vn -0.3851 -0.9219 -0.0431
vn -0.1966 -0.9803 -0.0205
vn -0.0000 -0.9999 -0.0128
vn 0.1966 -0.9803 -0.0205
vn 0.3851 -0.9219 -0.0431
vn 0.5572 -0.8265 -0.0795
vn 0.7048 -0.6979 -0.1275
vn 0.8201 -0.5418 -0.1842
vn 0.8974 -0.3664 -0.2457
vn 0.9339 -0.1813 -0.3082
vn 0.8964 0.0019 -0.4433
vn 0.9182 -0.1800 -0.3528
vn 0.8946 -0.3672 -0.2548
vn 0.8230 -0.5460 -0.1566
vn 0.7074 -0.7037 -0.0661
vn 0.5571 -0.8304 0.0094
vn 0.3835 -0.9212 0.0653
vn 0.1950 -0.9757 0.0995
vn -0.0000 -0.9938 0.1110
vn -0.1950 -0.9757 0.0995
vn -0.3835 -0.9212 0.0653
vn -0.5577 -0.8300 0.0093
vn -0.7075 -0.7036 -0.0661
vn -0.8230 -0.5460 -0.1566
vn -0.8946 -0.3672 -0.2548
vn -0.9182 -0.1800 -0.3528
vn -0.8964 0.0019 -0.4433
vn -0.8365 0.1676 -0.5217
vn -0.7482 0.3106 -0.5863
vn -0.6407 0.4283 -0.6372
vn -0.5212 0.5211 -0.6759
vn -0.3947 0.5905 -0.7039
vn -0.2646 0.6384 -0.7228
vn -0.1326 0.6664 -0.7337
vn -0.0000 0.6756 -0.7373
vn 0.1326 0.6664 -0.7337
vn 0.2646 0.6384 -0.7228
vn 0.3947 0.5905 -0.7039
vn 0.5212 0.5211 -0.6759
vn 0.6407 0.4283 -0.6372
vn 0.7480 0.3108 -0.5864
vn 0.8365 0.1676 -0.5217
vn 0.8239 0.1643 -0.5425
vn 0.8988 0.0012 -0.4383
vn 0.7222 0.2997 -0.6234
vn 0.6072 0.4055 -0.6833
vn 0.4855 0.4862 -0.7266
vn 0.3630 0.5440 -0.7565
vn 0.2410 0.5827 -0.7761
vn 0.1201 0.6050 -0.7871
vn -0.0000 0.6122 -0.7907
vn -0.1201 0.6050 -0.7871
vn -0.2410 0.5827 -0.7761
vn -0.3630 0.5440 -0.7565
vn -0.4855 0.4862 -0.7266
vn -0.6071 0.4056 -0.6833
vn -0.7224 0.2994 -0.6233
vn -0.8237 0.1646 -0.5426
vn -0.8988 0.0012 -0.4383
vn -0.9323 -0.1835 -0.3117
vn -0.9114 -0.3745 -0.1705
vn -0.8330 -0.5525 -0.0289
vn -0.7058 -0.7017 0.0977
vn -0.5462 -0.8138 0.1985
vn -0.3698 -0.8892 0.2695
vn -0.1858 -0.9320 0.3111
vn -0.0000 -0.9458 0.3247
vn 0.1858 -0.9320 0.3111
vn 0.3698 -0.8892 0.2695
vn 0.5462 -0.8138 0.1985
vn 0.7058 -0.7017 0.0977
vn 0.8330 -0.5526 -0.0289
vn 0.9115 -0.3744 -0.1705
vn 0.9323 -0.1835 -0.3117
vn -0.0000 -0.6477 -0.7619
vn -0.0000 0.9544 -0.2987
vn -0.0000 -0.0000 -1.0000
vn 0.1420 -0.6857 -0.7139
vn -0.0000 -0.6857 -0.7279
vn 0.1951 -0.0000 -0.9808
vn 0.2785 -0.6857 -0.6725
vn 0.3827 -0.0000 -0.9239
vn 0.4044 -0.6857 -0.6052
vn 0.5556 -0.0000 -0.8315
vn 0.5147 -0.6857 -0.5147
vn 0.7071 -0.0000 -0.7071
vn 0.6052 -0.6857 -0.4044
vn 0.8315 -0.0000 -0.5556
vn 0.6725 -0.6857 -0.2786
vn 0.9239 -0.0000 -0.3827
vn 0.7139 -0.6857 -0.1420
vn 0.9808 -0.0000 -0.1951
vn 0.7279 -0.6857 -0.0000
vn 1.0000 -0.0000 -0.0000
vn 0.7139 -0.6857 0.1420
vn 0.9808 -0.0000 0.1951
vn 0.6725 -0.6857 0.2786
vn 0.9239 -0.0000 0.3827
vn 0.6052 -0.6857 0.4044
vn 0.8315 -0.0000 0.5556
vn 0.5147 -0.6857 0.5147
vn 0.7071 -0.0000 0.7071
vn 0.4044 -0.6857 0.6052
vn 0.5556 -0.0000 0.8315
vn 0.2785 -0.6857 0.6725
vn 0.3827 -0.0000 0.9239
vn 0.1420 -0.6857 0.7139
vn 0.1951 -0.0000 0.9808
vn -0.0000 -0.6857 0.7279
vn -0.0000 -0.0000 1.0000
vn -0.1420 -0.6857 0.7139
vn -0.1951 -0.0000 0.9808
vn -0.2785 -0.6857 0.6725
vn -0.3827 -0.0000 0.9239
vn -0.4044 -0.6857 0.6052
vn -0.5556 -0.0000 0.8315
vn -0.5147 -0.6857 0.5147
vn -0.7071 -0.0000 0.7071
vn -0.6052 -0.6857 0.4044
vn -0.8315 -0.0000 0.5556
vn -0.6725 -0.6857 0.2786
vn -0.9239 -0.0000 0.3827
vn -0.7139 -0.6857 0.1420
vn -0.9808 -0.0000 0.1951
vn -0.7279 -0.6857 -0.0000
vn -1.0000 -0.0000 -0.0000
vn -0.7139 -0.6857 -0.1420
vn -0.9808 -0.0000 -0.1951
vn -0.6725 -0.6857 -0.2786
vn -0.9239 -0.0000 -0.3827
vn -0.6052 -0.6857 -0.4044
vn -0.8315 -0.0000 -0.5556
vn -0.5147 -0.6857 -0.5147
vn -0.7071 -0.0000 -0.7071
vn -0.4044 -0.6857 -0.6052
vn -0.5556 -0.0000 -0.8315
vn -0.2785 -0.6857 -0.6725
vn -0.3827 -0.0000 -0.9239
vn -0.1420 -0.6857 -0.7139
vn -0.1951 -0.0000 -0.9808
vn -0.0000 0.2425 -0.9701
vn -0.0000 1.0000 -0.0000
vn 0.1893 0.2425 -0.9515
vn 0.3712 0.2425 -0.8963
vn 0.5390 0.2425 -0.8067
vn 0.6860 0.2425 -0.6860
vn 0.8067 0.2425 -0.5390
vn 0.8963 0.2425 -0.3713
vn 0.9515 0.2425 -0.1893
vn 0.9701 0.2425 -0.0000
vn 0.9515 0.2425 0.1893
vn 0.8963 0.2425 0.3713
vn 0.8067 0.2425 0.5390
vn 0.6860 0.2425 0.6860
vn 0.5390 0.2425 0.8067
vn 0.3712 0.2425 0.8963
vn 0.1893 0.2425 0.9515
vn -0.0000 0.2425 0.9701
vn -0.1893 0.2425 0.9515
vn -0.3712 0.2425 0.8963
vn -0.5390 0.2425 0.8067
vn -0.6860 0.2425 0.6860
vn -0.8067 0.2425 0.5390
vn -0.8963 0.2425 0.3713
vn -0.9515 0.2425 0.1893
vn -0.9701 0.2425 -0.0000
vn -0.9515 0.2425 -0.1893
vn -0.8963 0.2425 -0.3713
vn -0.8067 0.2425 -0.5390
vn -0.6860 0.2425 -0.6860
vn -0.5390 0.2425 -0.8067
vn -0.3712 0.2425 -0.8963
vn -0.1893 0.2425 -0.9515
vn 0.2786 -0.6857 -0.6725
vn 0.5146 -0.6857 -0.5147
vn 0.5146 -0.6857 0.5147
vn -0.5146 -0.6857 0.5147
vn -0.6724 -0.6857 -0.2786
vn -0.5146 -0.6857 -0.5147
vn -0.2786 -0.6857 -0.6725
vn 0.7140 -0.1399 0.6860
vn 0.7140 0.1399 0.6860
vt 0.022266 0.757187
vt 0.026944 0.721950
vt 0.033739 0.754621
vt 0.010270 0.690581
vt 0.021781 0.689077
vt 0.017961 0.656251
vt 0.006475 0.657327
vt 0.015236 0.623598
vt 0.003796 0.624336
vt 0.013371 0.591138
vt 0.001962 0.591611
vt 0.012197 0.558790
vt 0.000774 0.559043
vt 0.011641 0.526390
vt 0.000144 0.526421
vt 0.011667 0.493742
vt 0.000144 0.493477
vt 0.012771 0.461140
vt 0.001286 0.460574
vt 0.014541 0.428780
vt 0.003133 0.427968
vt 0.016997 0.396470
vt 0.005614 0.395411
vt 0.020218 0.364087
vt 0.008834 0.362737
vt 0.024368 0.331610
vt 0.012990 0.329905
vt 0.029622 0.299103
vt 0.018289 0.296997
vt 0.036031 0.266769
vt 0.024842 0.264217
vt 0.043834 0.234868
vt 0.032811 0.231965
vt 0.052629 0.202588
vt 0.041314 0.198538
vt 0.064420 0.169642
vt 0.053360 0.164474
vt 0.079437 0.137505
vt 0.068810 0.130698
vt 0.098337 0.107739
vt 0.088307 0.100679
vt 0.118823 0.080301
vt 0.109476 0.072574
vt 0.141327 0.054883
vt 0.132677 0.046454
vt 0.165705 0.031432
vt 0.157799 0.022436
vt 0.192496 0.009523
vt 0.163466 0.999856
vt 0.145508 0.965495
vt 0.172452 0.990148
vt 0.136352 0.974395
vt 0.121812 0.939290
vt 0.112099 0.947229
vt 0.100649 0.911548
vt 0.090428 0.918557
vt 0.082039 0.882249
vt 0.071336 0.888322
vt 0.066028 0.851551
vt 0.054927 0.856667
vt 0.052671 0.819759
vt 0.506370 0.850106
vt 0.480548 0.823818
vt 0.768538 0.824677
vt 0.041304 0.823900
vt 0.042013 0.787260
vt 0.054912 0.782875
vt 0.046424 0.751666
vt 0.065464 0.813841
vt 0.078688 0.844056
vt 0.094501 0.873293
vt 0.112892 0.901262
vt 0.133869 0.927783
vt 0.157227 0.952838
vt 0.182981 0.975633
vt 0.201818 0.023761
vt 0.176181 0.044220
vt 0.152143 0.066757
vt 0.130045 0.091220
vt 0.109908 0.117507
vt 0.091828 0.145776
vt 0.077228 0.176024
vt 0.065613 0.207247
vt 0.056276 0.238153
vt 0.049077 0.269092
vt 0.043234 0.300523
vt 0.038485 0.332309
vt 0.034865 0.364295
vt 0.032155 0.396454
vt 0.030157 0.428769
vt 0.028792 0.461240
vt 0.028316 0.494029
vt 0.027671 0.526868
vt 0.027800 0.559407
vt 0.028513 0.591770
vt 0.029889 0.624014
vt 0.032134 0.656167
vt 0.035506 0.688216
vt 0.040243 0.720093
vt 0.160147 0.707037
vt 0.099129 0.709329
vt 0.156259 0.682464
vt 0.095300 0.680298
vt 0.153900 0.657288
vt 0.092814 0.650628
vt 0.152801 0.631561
vt 0.091411 0.620373
vt 0.152654 0.605314
vt 0.090824 0.589586
vt 0.153131 0.578579
vt 0.090807 0.558341
vt 0.153906 0.551406
vt 0.091163 0.526753
vt 0.154699 0.523887
vt 0.091771 0.495002
vt 0.155312 0.496172
vt 0.155706 0.468459
vt 0.092227 0.463207
vt 0.155931 0.440951
vt 0.093198 0.431613
vt 0.156174 0.413813
vt 0.094495 0.400444
vt 0.156700 0.387149
vt 0.096322 0.369805
vt 0.157823 0.361020
vt 0.098915 0.339783
vt 0.159865 0.335465
vt 0.102512 0.310453
vt 0.163125 0.310520
vt 0.107371 0.281716
vt 0.167871 0.286234
vt 0.113714 0.253792
vt 0.174330 0.262691
vt 0.121770 0.226605
vt 0.182688 0.239998
vt 0.132023 0.200271
vt 0.193081 0.218309
vt 0.144540 0.175073
vt 0.205562 0.197811
vt 0.159080 0.151156
vt 0.220139 0.178701
vt 0.175790 0.128811
vt 0.236787 0.161181
vt 0.194566 0.108070
vt 0.255463 0.145450
vt 0.215379 0.088935
vt 0.276064 0.131771
vt 0.263684 0.867009
vt 0.200116 0.908368
vt 0.243214 0.852368
vt 0.179594 0.887980
vt 0.224849 0.835697
vt 0.161544 0.865888
vt 0.208686 0.817301
vt 0.145793 0.842436
vt 0.194735 0.797422
vt 0.132316 0.817736
vt 0.182976 0.776275
vt 0.121071 0.791924
vt 0.173356 0.754059
vt 0.111792 0.765203
vt 0.165788 0.730936
vt 0.104544 0.737644
vt 0.237489 0.683803
vt 0.234389 0.665362
vt 0.242421 0.701521
vt 0.249267 0.718380
vt 0.258069 0.734213
vt 0.268835 0.748827
vt 0.281544 0.762007
vt 0.296148 0.773515
vt 0.312571 0.783089
vt 0.321639 0.216093
vt 0.305090 0.225041
vt 0.290259 0.235954
vt 0.277230 0.248585
vt 0.266061 0.262710
vt 0.256788 0.278122
vt 0.249414 0.294631
vt 0.243908 0.312070
vt 0.240194 0.330300
vt 0.238143 0.349209
vt 0.237549 0.368721
vt 0.238120 0.388802
vt 0.239468 0.409458
vt 0.241135 0.430726
vt 0.242643 0.452611
vt 0.243567 0.475025
vt 0.243624 0.497748
vt 0.242781 0.520463
vt 0.241081 0.542850
vt 0.238812 0.564702
vt 0.236403 0.585943
vt 0.234335 0.606596
vt 0.233065 0.626710
vt 0.232984 0.646308
vt 0.298772 0.616398
vt 0.298914 0.603064
vt 0.300262 0.589422
vt 0.302498 0.575483
vt 0.305222 0.561163
vt 0.307997 0.546338
vt 0.310396 0.530947
vt 0.312046 0.515066
vt 0.312691 0.498912
vt 0.312578 0.482749
vt 0.311452 0.466832
vt 0.309563 0.451385
vt 0.307280 0.436497
vt 0.305032 0.422119
vt 0.303258 0.408143
vt 0.302361 0.394497
vt 0.302656 0.381203
vt 0.304342 0.368360
vt 0.307510 0.356113
vt 0.312166 0.344626
vt 0.318262 0.334075
vt 0.325711 0.324632
vt 0.334391 0.316472
vt 0.344153 0.309758
vt 0.354811 0.304650
vt 0.348701 0.694906
vt 0.338141 0.689442
vt 0.328539 0.682388
vt 0.320076 0.673913
vt 0.312898 0.664190
vt 0.307118 0.653399
vt 0.302819 0.641720
vt 0.300042 0.629331
vt 0.346984 0.584753
vt 0.347277 0.576132
vt 0.347916 0.593151
vt 0.350095 0.601182
vt 0.353479 0.608685
vt 0.357986 0.615498
vt 0.363496 0.621472
vt 0.369862 0.626470
vt 0.376914 0.630379
vt 0.380972 0.369737
vt 0.373823 0.373418
vt 0.367324 0.378204
vt 0.361646 0.383989
vt 0.356940 0.390641
vt 0.353330 0.398017
vt 0.350904 0.405958
vt 0.349709 0.414306
vt 0.349728 0.422917
vt 0.350856 0.431691
vt 0.352871 0.440597
vt 0.355427 0.449685
vt 0.358118 0.459050
vt 0.360563 0.468769
vt 0.362457 0.478848
vt 0.363586 0.489215
vt 0.363829 0.499737
vt 0.363251 0.510247
vt 0.361792 0.520577
vt 0.359576 0.530596
vt 0.356821 0.540239
vt 0.353831 0.549523
vt 0.350984 0.558535
vt 0.348685 0.567384
vt 0.438875 0.500911
vt 0.238461 0.071461
vt 0.223190 0.927338
vt 0.439162 0.000144
vt 0.442523 0.515765
vt 0.439162 0.515765
vt 0.442523 0.000144
vt 0.445812 0.515765
vt 0.445812 0.000144
vt 0.448967 0.515765
vt 0.448967 0.000144
vt 0.451936 0.515765
vt 0.451936 0.000144
vt 0.454689 0.515765
vt 0.454689 0.000144
vt 0.457229 0.515765
vt 0.457229 0.000144
vt 0.459590 0.515765
vt 0.459590 0.000144
vt 0.461850 0.515765
vt 0.461850 0.000144
vt 0.464109 0.515765
vt 0.464109 0.000144
vt 0.466471 0.515765
vt 0.466471 0.000144
vt 0.469010 0.515765
vt 0.469010 0.000144
vt 0.471764 0.515765
vt 0.471764 0.000144
vt 0.474733 0.515765
vt 0.474733 0.000144
vt 0.477887 0.515765
vt 0.477887 0.000144
vt 0.481177 0.515765
vt 0.481177 0.000144
vt 0.484537 0.515765
vt 0.484537 0.000144
vt 0.487897 0.515765
vt 0.487897 0.000144
vt 0.491187 0.515765
vt 0.491187 0.000144
vt 0.494341 0.515765
vt 0.494341 0.000144
vt 0.497310 0.515765
vt 0.497310 0.000144
vt 0.500064 0.515765
vt 0.500064 0.000144
vt 0.502603 0.515765
vt 0.502603 0.000144
vt 0.504965 0.515765
vt 0.504965 0.000144
vt 0.507224 0.515765
vt 0.507224 0.000144
vt 0.509484 0.515765
vt 0.509484 0.000144
vt 0.511845 0.515765
vt 0.511845 0.000144
vt 0.514385 0.515765
vt 0.514385 0.000144
vt 0.517138 0.515765
vt 0.517138 0.000144
vt 0.520107 0.515765
vt 0.520107 0.000144
vt 0.523262 0.515765
vt 0.523262 0.000144
vt 0.526551 0.515765
vt 0.526551 0.000144
vt 0.529912 0.515765
vt 0.536217 0.290107
vt 0.530639 0.279512
vt 0.552627 0.271348
vt 0.530199 0.206253
vt 0.530199 0.136555
vt 0.533559 0.206217
vt 0.536847 0.206108
vt 0.539996 0.205927
vt 0.542954 0.205672
vt 0.545688 0.205340
vt 0.548193 0.204923
vt 0.550497 0.204405
vt 0.552664 0.203766
vt 0.554780 0.202974
vt 0.556932 0.202001
vt 0.559184 0.200829
vt 0.561569 0.199450
vt 0.564085 0.197875
vt 0.566710 0.196127
vt 0.569403 0.194236
vt 0.572109 0.192245
vt 0.574772 0.190195
vt 0.577334 0.188132
vt 0.579741 0.186093
vt 0.581951 0.184111
vt 0.583936 0.182202
vt 0.585686 0.180362
vt 0.587216 0.178564
vt 0.588563 0.176749
vt 0.589778 0.174844
vt 0.590913 0.172773
vt 0.592007 0.170482
vt 0.593083 0.167947
vt 0.594147 0.165175
vt 0.595193 0.162199
vt 0.596208 0.159070
vt 0.597173 0.155851
vt 0.530199 0.136267
vt 0.547387 0.131227
vt 0.547387 0.136267
vt 0.530199 0.131227
vt 0.547387 0.126293
vt 0.530199 0.126293
vt 0.547387 0.121561
vt 0.530199 0.121561
vt 0.547387 0.117108
vt 0.530199 0.117108
vt 0.547387 0.112977
vt 0.530199 0.112977
vt 0.547387 0.109168
vt 0.530199 0.109168
vt 0.547387 0.105626
vt 0.530199 0.105626
vt 0.547387 0.102237
vt 0.530199 0.098847
vt 0.547387 0.098847
vt 0.547387 0.095305
vt 0.530199 0.095305
vt 0.547387 0.091496
vt 0.530199 0.091496
vt 0.547387 0.087365
vt 0.530199 0.087365
vt 0.547387 0.082912
vt 0.530199 0.082912
vt 0.547387 0.078180
vt 0.530199 0.078180
vt 0.547387 0.073246
vt 0.530199 0.068206
vt 0.547387 0.068206
vt 0.547387 0.063165
vt 0.530199 0.058231
vt 0.547387 0.058231
vt 0.547387 0.053499
vt 0.530199 0.053499
vt 0.547387 0.049046
vt 0.530199 0.049046
vt 0.547387 0.044915
vt 0.530199 0.044915
vt 0.547387 0.041107
vt 0.530199 0.041107
vt 0.547387 0.037564
vt 0.530199 0.037564
vt 0.547387 0.034175
vt 0.530199 0.034175
vt 0.547387 0.030785
vt 0.530199 0.027243
vt 0.547387 0.027243
vt 0.547387 0.023434
vt 0.530199 0.023434
vt 0.547387 0.019304
vt 0.530199 0.019304
vt 0.547387 0.014850
vt 0.530199 0.014850
vt 0.547387 0.010119
vt 0.530199 0.010119
vt 0.547387 0.005184
vt 0.530199 0.000144
vt 0.547387 0.000144
vt 0.539226 0.254282
vt 0.530858 0.238390
vt 0.563841 0.226143
vt 0.015465 0.723959
vt 0.041525 0.199599
vt 0.053105 0.165592
vt 0.068377 0.132337
vt 0.184734 0.000144
vt 0.460261 0.792936
vt 0.446286 0.758648
vt 0.809924 0.723376
vt 0.439162 0.722270
vt 0.809924 0.686307
vt 0.439162 0.685201
vt 0.802800 0.649930
vt 0.446286 0.648866
vt 0.788826 0.615641
vt 0.460261 0.614661
vt 0.480548 0.583900
vt 0.768538 0.584759
vt 0.506370 0.557766
vt 0.742717 0.558471
vt 0.536732 0.537262
vt 0.712354 0.537786
vt 0.570470 0.523177
vt 0.642802 0.516161
vt 0.606285 0.516052
vt 0.678617 0.523500
vt 0.802800 0.759711
vt 0.788826 0.793916
vt 0.742717 0.850811
vt 0.712354 0.871315
vt 0.536732 0.870791
vt 0.678617 0.885400
vt 0.570470 0.885077
vt 0.642802 0.892525
vt 0.606285 0.892416
vt 0.030550 0.790505
vt 0.529911 0.000144
vt 0.530199 0.276181
vt 0.530199 0.272821
vt 0.530639 0.269561
vt 0.531501 0.266526
vt 0.532752 0.263834
vt 0.534344 0.261587
vt 0.536217 0.259873
vt 0.538298 0.258756
vt 0.540507 0.258280
vt 0.547049 0.260753
vt 0.542759 0.258463
vt 0.544968 0.259298
vt 0.548921 0.262772
vt 0.550514 0.265278
vt 0.551765 0.268173
vt 0.553067 0.274680
vt 0.553067 0.278040
vt 0.552627 0.281300
vt 0.551765 0.284334
vt 0.550514 0.287027
vt 0.548921 0.289273
vt 0.547049 0.290988
vt 0.544968 0.292105
vt 0.542759 0.292581
vt 0.540507 0.292398
vt 0.538298 0.291562
vt 0.534344 0.288088
vt 0.532752 0.285583
vt 0.531501 0.282687
vt 0.530199 0.102237
vt 0.530199 0.073246
vt 0.530199 0.063165
vt 0.530199 0.030785
vt 0.530199 0.005184
vt 0.530199 0.233392
vt 0.532151 0.218910
vt 0.530199 0.228352
vt 0.530858 0.223462
vt 0.534028 0.214872
vt 0.536417 0.211502
vt 0.539226 0.208930
vt 0.542347 0.207255
vt 0.545661 0.206541
vt 0.555474 0.210251
vt 0.549039 0.206815
vt 0.552352 0.208068
vt 0.558282 0.213279
vt 0.560671 0.217038
vt 0.562548 0.221381
vt 0.564500 0.231140
vt 0.562548 0.245622
vt 0.564500 0.236181
vt 0.563841 0.241071
vt 0.560671 0.249661
vt 0.558282 0.253031
vt 0.555474 0.255603
vt 0.552352 0.257278
vt 0.549039 0.257992
vt 0.545661 0.257717
vt 0.542347 0.256465
vt 0.536417 0.251253
vt 0.534028 0.247495
vt 0.532151 0.243152
s 1
usemtl マテリアル
f 2/1/1 35/2/2 34/3/3
f 35/2/2 4/4/4 36/5/5
f 4/4/4 37/6/6 36/5/5
f 5/7/7 38/8/8 37/6/6
f 6/9/9 39/10/10 38/8/8
f 7/11/11 40/12/12 39/10/10
f 8/13/13 41/14/14 40/12/12
f 9/15/15 42/16/16 41/14/14
f 10/17/17 43/18/18 42/16/16
f 11/19/19 44/20/20 43/18/18
f 12/21/21 45/22/22 44/20/20
f 13/23/23 46/24/24 45/22/22
f 14/25/25 47/26/26 46/24/24
f 15/27/27 48/28/28 47/26/26
f 16/29/29 49/30/30 48/28/28
f 17/31/31 50/32/32 49/30/30
f 18/33/33 51/34/34 50/32/32
f 19/35/35 52/36/36 51/34/34
f 20/37/37 53/38/38 52/36/36
f 21/39/39 54/40/40 53/38/38
f 22/41/41 55/42/42 54/40/40
f 23/43/43 56/44/44 55/42/42
f 24/45/45 57/46/46 56/44/44
f 25/47/47 58/48/48 57/46/46
f 26/49/49 59/50/50 58/51/48
f 27/52/51 60/53/52 59/50/50
f 28/54/53 61/55/54 60/53/52
f 29/56/55 62/57/56 61/55/54
f 30/58/57 63/59/58 62/57/56
f 31/60/59 64/61/60 63/59/58
f 6/62/9 5/63/7 14/64/25
f 32/65/61 65/66/62 64/61/60
f 65/66/62 2/1/1 34/3/3
f 257/67/63 34/3/3 226/68/64
f 256/69/65 65/66/62 257/67/63
f 255/70/66 64/61/60 256/69/65
f 254/71/67 63/59/58 255/70/66
f 253/72/68 62/57/56 254/71/67
f 252/73/69 61/55/54 253/72/68
f 251/74/70 60/53/52 252/73/69
f 250/75/71 59/50/50 251/74/70
f 57/46/46 250/76/71 249/77/72
f 56/44/44 249/77/72 248/78/73
f 55/42/42 248/78/73 247/79/74
f 54/40/40 247/79/74 246/80/75
f 53/38/38 246/80/75 245/81/76
f 52/36/36 245/81/76 244/82/77
f 51/34/34 244/82/77 243/83/78
f 50/32/32 243/83/78 242/84/79
f 241/85/80 50/32/32 242/84/79
f 240/86/81 49/30/30 241/85/80
f 239/87/82 48/28/28 240/86/81
f 238/88/83 47/26/26 239/87/82
f 237/89/84 46/24/24 238/88/83
f 236/90/85 45/22/22 237/89/84
f 235/91/86 44/20/20 236/90/85
f 234/92/87 43/18/18 235/91/86
f 41/14/14 234/92/87 233/93/88
f 40/12/12 233/93/88 232/94/89
f 39/10/10 232/94/89 231/95/90
f 38/8/8 231/95/90 230/96/91
f 37/6/6 230/96/91 229/97/92
f 36/5/5 229/97/92 228/98/93
f 35/2/2 228/98/93 227/99/94
f 34/3/3 227/99/94 226/68/64
f 129/100/95 66/101/96 98/102/97
f 98/102/97 67/103/98 99/104/99
f 99/104/99 68/105/100 100/106/101
f 100/106/101 69/107/102 101/108/103
f 101/108/103 70/109/104 102/110/105
f 102/110/105 71/111/106 103/112/107
f 103/112/107 72/113/108 104/114/109
f 104/114/109 73/115/110 105/116/111
f 73/115/110 106/117/112 105/116/111
f 74/118/113 107/119/114 106/117/112
f 75/120/115 108/121/116 107/119/114
f 76/122/117 109/123/118 108/121/116
f 77/124/119 110/125/120 109/123/118
f 78/126/121 111/127/122 110/125/120
f 79/128/123 112/129/124 111/127/122
f 80/130/125 113/131/126 112/129/124
f 81/132/127 114/133/128 113/131/126
f 82/134/129 115/135/130 114/133/128
f 83/136/131 116/137/132 115/135/130
f 84/138/133 117/139/134 116/137/132
f 85/140/135 118/141/136 117/139/134
f 86/142/137 119/143/138 118/141/136
f 87/144/139 120/145/140 119/143/138
f 88/146/141 121/147/142 120/145/140
f 121/148/142 90/149/143 122/150/144
f 122/150/144 91/151/145 123/152/146
f 123/152/146 92/153/147 124/154/148
f 124/154/148 93/155/149 125/156/150
f 125/156/150 94/157/151 126/158/152
f 126/158/152 95/159/153 127/160/154
f 127/160/154 96/161/155 128/162/156
f 128/162/156 97/163/157 129/100/95
f 160/164/158 129/100/95 161/165/159
f 159/166/160 128/162/156 160/164/158
f 158/167/161 127/160/154 159/166/160
f 157/168/162 126/158/152 158/167/161
f 156/169/163 125/156/150 157/168/162
f 155/170/164 124/154/148 156/169/163
f 154/171/165 123/152/146 155/170/164
f 153/172/166 122/150/144 154/171/165
f 120/145/140 153/173/166 152/174/167
f 119/143/138 152/174/167 151/175/168
f 118/141/136 151/175/168 150/176/169
f 117/139/134 150/176/169 149/177/170
f 116/137/132 149/177/170 148/178/171
f 115/135/130 148/178/171 147/179/172
f 114/133/128 147/179/172 146/180/173
f 113/131/126 146/180/173 145/181/174
f 112/129/124 145/181/174 144/182/175
f 111/127/122 144/182/175 143/183/176
f 110/125/120 143/183/176 142/184/177
f 109/123/118 142/184/177 141/185/178
f 108/121/116 141/185/178 140/186/179
f 107/119/114 140/186/179 139/187/180
f 106/117/112 139/187/180 138/188/181
f 105/116/111 138/188/181 137/189/182
f 136/190/183 105/116/111 137/189/182
f 135/191/184 104/114/109 136/190/183
f 134/192/185 103/112/107 135/191/184
f 133/193/186 102/110/105 134/192/185
f 132/194/187 101/108/103 133/193/186
f 131/195/188 100/106/101 132/194/187
f 130/196/189 99/104/99 131/195/188
f 161/165/159 98/102/97 130/196/189
f 193/197/190 130/196/189 162/198/191
f 162/198/191 131/195/188 163/199/192
f 163/199/192 132/194/187 164/200/193
f 164/200/193 133/193/186 165/201/194
f 165/201/194 134/192/185 166/202/195
f 166/202/195 135/191/184 167/203/196
f 167/203/196 136/190/183 168/204/197
f 168/204/197 137/189/182 169/205/198
f 137/189/182 170/206/199 169/205/198
f 138/188/181 171/207/200 170/206/199
f 139/187/180 172/208/201 171/207/200
f 140/186/179 173/209/202 172/208/201
f 141/185/178 174/210/203 173/209/202
f 142/184/177 175/211/204 174/210/203
f 143/183/176 176/212/205 175/211/204
f 144/182/175 177/213/206 176/212/205
f 145/181/174 178/214/207 177/213/206
f 146/180/173 179/215/208 178/214/207
f 147/179/172 180/216/209 179/215/208
f 148/178/171 181/217/210 180/216/209
f 149/177/170 182/218/211 181/217/210
f 150/176/169 183/219/212 182/218/211
f 151/175/168 184/220/213 183/219/212
f 152/174/167 185/221/214 184/220/213
f 185/222/214 154/171/165 186/223/215
f 186/223/215 155/170/164 187/224/216
f 187/224/216 156/169/163 188/225/217
f 188/225/217 157/168/162 189/226/218
f 189/226/218 158/167/161 190/227/219
f 190/227/219 159/166/160 191/228/220
f 191/228/220 160/164/158 192/229/221
f 192/229/221 161/165/159 193/197/190
f 224/230/222 193/197/190 225/231/223
f 223/232/224 192/229/221 224/230/222
f 222/233/225 191/228/220 223/232/224
f 221/234/226 190/227/219 222/233/225
f 220/235/227 189/226/218 221/234/226
f 219/236/228 188/225/217 220/235/227
f 218/237/229 187/224/216 219/236/228
f 217/238/230 186/223/215 218/237/229
f 184/220/213 217/239/230 216/240/231
f 183/219/212 216/240/231 215/241/232
f 182/218/211 215/241/232 214/242/233
f 181/217/210 214/242/233 213/243/234
f 180/216/209 213/243/234 212/244/235
f 179/215/208 212/244/235 211/245/236
f 178/214/207 211/245/236 210/246/237
f 177/213/206 210/246/237 209/247/238
f 176/212/205 209/247/238 208/248/239
f 175/211/204 208/248/239 207/249/240
f 174/210/203 207/249/240 206/250/241
f 173/209/202 206/250/241 205/251/242
f 172/208/201 205/251/242 204/252/243
f 171/207/200 204/252/243 203/253/244
f 170/206/199 203/253/244 202/254/245
f 169/205/198 202/254/245 201/255/246
f 200/256/247 169/205/198 201/255/246
f 199/257/248 168/204/197 200/256/247
f 198/258/249 167/203/196 199/257/248
f 197/259/250 166/202/195 198/258/249
f 196/260/251 165/201/194 197/259/250
f 195/261/252 164/200/193 196/260/251
f 194/262/253 163/199/192 195/261/252
f 225/231/223 162/198/191 194/262/253
f 1/263/254 225/231/223 194/262/253
f 1/263/254 194/262/253 195/261/252
f 1/263/254 195/261/252 196/260/251
f 1/263/254 196/260/251 197/259/250
f 1/263/254 197/259/250 198/258/249
f 1/263/254 198/258/249 199/257/248
f 1/263/254 199/257/248 200/256/247
f 1/263/254 200/256/247 201/255/246
f 1/263/254 201/255/246 202/254/245
f 1/263/254 202/254/245 203/253/244
f 1/263/254 203/253/244 204/252/243
f 1/263/254 204/252/243 205/251/242
f 1/263/254 205/251/242 206/250/241
f 1/263/254 206/250/241 207/249/240
f 1/263/254 207/249/240 208/248/239
f 1/263/254 208/248/239 209/247/238
f 1/263/254 209/247/238 210/246/237
f 1/263/254 210/246/237 211/245/236
f 1/263/254 211/245/236 212/244/235
f 1/263/254 212/244/235 213/243/234
f 1/263/254 213/243/234 214/242/233
f 1/263/254 214/242/233 215/241/232
f 1/263/254 215/241/232 216/240/231
f 1/263/254 216/240/231 217/239/230
f 1/263/254 217/238/230 218/237/229
f 1/263/254 218/237/229 219/236/228
f 1/263/254 219/236/228 220/235/227
f 1/263/254 220/235/227 221/234/226
f 1/263/254 221/234/226 222/233/225
f 1/263/254 222/233/225 223/232/224
f 1/263/254 223/232/224 224/230/222
f 1/263/254 224/230/222 225/231/223
f 97/163/157 227/99/94 66/101/96
f 227/99/94 67/103/98 66/101/96
f 228/98/93 68/105/100 67/103/98
f 229/97/92 69/107/102 68/105/100
f 69/107/102 231/95/90 70/109/104
f 231/95/90 71/111/106 70/109/104
f 232/94/89 72/113/108 71/111/106
f 72/113/108 234/92/87 73/115/110
f 234/92/87 74/118/113 73/115/110
f 235/91/86 75/120/115 74/118/113
f 236/90/85 76/122/117 75/120/115
f 237/89/84 77/124/119 76/122/117
f 238/88/83 78/126/121 77/124/119
f 239/87/82 79/128/123 78/126/121
f 240/86/81 80/130/125 79/128/123
f 241/85/80 81/132/127 80/130/125
f 242/84/79 82/134/129 81/132/127
f 243/83/78 83/136/131 82/134/129
f 83/136/131 245/81/76 84/138/133
f 84/138/133 246/80/75 85/140/135
f 246/80/75 86/142/137 85/140/135
f 247/79/74 87/144/139 86/142/137
f 87/144/139 249/77/72 88/146/141
f 249/77/72 89/264/255 88/146/141
f 89/265/255 251/74/70 90/149/143
f 90/149/143 252/73/69 91/151/145
f 91/151/145 253/72/68 92/153/147
f 92/153/147 254/71/67 93/155/149
f 254/71/67 94/157/151 93/155/149
f 255/70/66 95/159/153 94/157/151
f 95/159/153 257/67/63 96/161/155
f 96/161/155 226/68/64 97/163/157
f 259/266/256 260/267/257 258/268/258
f 261/269/259 262/270/260 260/267/257
f 263/271/261 264/272/262 262/270/260
f 265/273/263 266/274/264 264/272/262
f 267/275/265 268/276/266 266/274/264
f 269/277/267 270/278/268 268/276/266
f 271/279/269 272/280/270 270/278/268
f 273/281/271 274/282/272 272/280/270
f 275/283/273 276/284/274 274/282/272
f 277/285/275 278/286/276 276/284/274
f 279/287/277 280/288/278 278/286/276
f 281/289/279 282/290/280 280/288/278
f 283/291/281 284/292/282 282/290/280
f 285/293/283 286/294/284 284/292/282
f 287/295/285 288/296/286 286/294/284
f 289/297/287 290/298/288 288/296/286
f 291/299/289 292/300/290 290/298/288
f 293/301/291 294/302/292 292/300/290
f 295/303/293 296/304/294 294/302/292
f 297/305/295 298/306/296 296/304/294
f 299/307/297 300/308/298 298/306/296
f 301/309/299 302/310/300 300/308/298
f 303/311/301 304/312/302 302/310/300
f 305/313/303 306/314/304 304/312/302
f 307/315/305 308/316/306 306/314/304
f 309/317/307 310/318/308 308/316/306
f 311/319/309 312/320/310 310/318/308
f 313/321/311 314/322/312 312/320/310
f 315/323/313 316/324/314 314/322/312
f 317/325/315 318/326/316 316/324/314
f 319/327/317 320/328/318 318/326/316
f 321/329/319 258/330/258 320/328/318
f 312/331/310 320/332/318 288/333/286
f 322/334/320 323/335/321 324/336/322
f 324/336/322 323/335/321 325/337/323
f 325/337/323 323/335/321 326/338/324
f 326/338/324 323/335/321 327/339/325
f 327/339/325 323/335/321 328/340/326
f 328/340/326 323/335/321 329/341/327
f 329/341/327 323/335/321 330/342/328
f 330/342/328 323/335/321 331/343/329
f 331/343/329 323/335/321 332/344/330
f 332/344/330 323/335/321 333/345/331
f 333/345/331 323/335/321 334/346/332
f 334/346/332 323/335/321 335/347/333
f 335/347/333 323/335/321 336/348/334
f 336/348/334 323/335/321 337/349/335
f 337/349/335 323/335/321 338/350/336
f 338/350/336 323/335/321 339/351/337
f 339/351/337 323/335/321 340/352/338
f 340/352/338 323/335/321 341/353/339
f 341/353/339 323/335/321 342/354/340
f 342/354/340 323/335/321 343/355/341
f 343/355/341 323/335/321 344/356/342
f 344/356/342 323/335/321 345/357/343
f 345/357/343 323/335/321 346/358/344
f 346/358/344 323/335/321 347/359/345
f 347/359/345 323/335/321 348/360/346
f 348/360/346 323/335/321 349/361/347
f 349/361/347 323/335/321 350/362/348
f 350/362/348 323/335/321 351/363/349
f 351/363/349 323/335/321 352/364/350
f 352/364/350 323/335/321 353/365/351
f 353/365/351 323/335/321 354/366/352
f 354/366/352 323/335/321 322/367/320
f 356/368/256 357/369/257 355/370/258
f 358/371/259 359/372/353 357/369/257
f 360/373/261 361/374/262 359/372/353
f 362/375/263 363/376/354 361/374/262
f 364/377/265 365/378/266 363/376/354
f 366/379/267 367/380/268 365/378/266
f 368/381/269 369/382/270 367/380/268
f 370/383/271 371/384/272 369/382/270
f 371/384/272 374/385/275 373/386/274
f 374/385/275 375/387/276 373/386/274
f 376/388/277 377/389/278 375/387/276
f 378/390/279 379/391/355 377/389/278
f 380/392/281 381/393/282 379/391/355
f 382/394/283 383/395/284 381/393/282
f 384/396/285 385/397/286 383/395/284
f 385/397/286 388/398/289 387/399/288
f 388/398/289 389/400/290 387/399/288
f 389/400/290 392/401/293 391/402/292
f 392/401/293 393/403/294 391/402/292
f 394/404/295 395/405/356 393/403/294
f 396/406/297 397/407/298 395/405/356
f 398/408/299 399/409/300 397/407/298
f 400/410/301 401/411/302 399/409/300
f 402/412/303 403/413/304 401/411/302
f 404/414/305 405/415/306 403/413/304
f 405/415/306 408/416/309 407/417/357
f 408/416/309 409/418/310 407/417/357
f 410/419/311 411/420/358 409/418/310
f 412/421/313 413/422/314 411/420/358
f 414/423/315 415/424/359 413/422/314
f 416/425/317 417/426/318 415/424/359
f 417/426/318 356/427/256 355/428/258
f 409/429/310 417/430/318 385/431/286
f 2/1/1 3/432/360 35/2/2
f 35/2/2 3/432/360 4/4/4
f 4/4/4 5/7/7 37/6/6
f 5/7/7 6/9/9 38/8/8
f 6/9/9 7/11/11 39/10/10
f 7/11/11 8/13/13 40/12/12
f 8/13/13 9/15/15 41/14/14
f 9/15/15 10/17/17 42/16/16
f 10/17/17 11/19/19 43/18/18
f 11/19/19 12/21/21 44/20/20
f 12/21/21 13/23/23 45/22/22
f 13/23/23 14/25/25 46/24/24
f 14/25/25 15/27/27 47/26/26
f 15/27/27 16/29/29 48/28/28
f 16/29/29 17/31/31 49/30/30
f 17/31/31 18/33/33 50/32/32
f 18/33/33 19/433/35 51/34/34
f 19/35/35 20/434/37 52/36/36
f 20/37/37 21/435/39 53/38/38
f 21/39/39 22/41/41 54/40/40
f 22/41/41 23/43/43 55/42/42
f 23/43/43 24/45/45 56/44/44
f 24/45/45 25/47/47 57/46/46
f 25/47/47 26/436/49 58/48/48
f 26/49/49 27/52/51 59/50/50
f 27/52/51 28/54/53 60/53/52
f 28/54/53 29/56/55 61/55/54
f 29/56/55 30/58/57 62/57/56
f 30/58/57 31/60/59 63/59/58
f 31/60/59 32/65/61 64/61/60
f 4/437/4 3/438/360 17/439/31
f 3/438/360 2/440/1 18/441/33
f 2/440/1 33/442/361 19/443/35
f 33/442/361 32/444/61 20/445/37
f 32/444/61 31/446/59 20/445/37
f 31/446/59 30/447/57 21/448/39
f 20/445/37 31/446/59 21/448/39
f 30/447/57 29/449/55 22/450/41
f 29/449/55 28/451/53 23/452/43
f 22/450/41 29/449/55 23/452/43
f 28/451/53 27/453/51 25/454/47
f 27/453/51 26/455/49 25/454/47
f 25/454/47 24/456/45 28/451/53
f 24/456/45 23/452/43 28/451/53
f 22/450/41 21/448/39 30/447/57
f 20/445/37 19/443/35 33/442/361
f 19/443/35 18/441/33 2/440/1
f 18/441/33 17/439/31 3/438/360
f 17/439/31 16/457/29 4/437/4
f 16/457/29 15/458/27 4/437/4
f 15/458/27 14/64/25 5/63/7
f 4/437/4 15/458/27 5/63/7
f 14/64/25 13/459/23 6/62/9
f 13/459/23 12/460/21 7/461/11
f 6/62/9 13/459/23 7/461/11
f 12/460/21 11/462/19 8/463/13
f 11/462/19 10/464/17 9/465/15
f 8/463/13 11/462/19 9/465/15
f 8/463/13 7/461/11 12/460/21
f 32/65/61 33/466/361 65/66/62
f 65/66/62 33/466/361 2/1/1
f 257/67/63 65/66/62 34/3/3
f 256/69/65 64/61/60 65/66/62
f 255/70/66 63/59/58 64/61/60
f 254/71/67 62/57/56 63/59/58
f 253/72/68 61/55/54 62/57/56
f 252/73/69 60/53/52 61/55/54
f 251/74/70 59/50/50 60/53/52
f 250/75/71 58/51/48 59/50/50
f 57/46/46 58/48/48 250/76/71
f 56/44/44 57/46/46 249/77/72
f 55/42/42 56/44/44 248/78/73
f 54/40/40 55/42/42 247/79/74
f 53/38/38 54/40/40 246/80/75
f 52/36/36 53/38/38 245/81/76
f 51/34/34 52/36/36 244/82/77
f 50/32/32 51/34/34 243/83/78
f 241/85/80 49/30/30 50/32/32
f 240/86/81 48/28/28 49/30/30
f 239/87/82 47/26/26 48/28/28
f 238/88/83 46/24/24 47/26/26
f 237/89/84 45/22/22 46/24/24
f 236/90/85 44/20/20 45/22/22
f 235/91/86 43/18/18 44/20/20
f 234/92/87 42/16/16 43/18/18
f 41/14/14 42/16/16 234/92/87
f 40/12/12 41/14/14 233/93/88
f 39/10/10 40/12/12 232/94/89
f 38/8/8 39/10/10 231/95/90
f 37/6/6 38/8/8 230/96/91
f 36/5/5 37/6/6 229/97/92
f 35/2/2 36/5/5 228/98/93
f 34/3/3 35/2/2 227/99/94
f 129/100/95 97/163/157 66/101/96
f 98/102/97 66/101/96 67/103/98
f 99/104/99 67/103/98 68/105/100
f 100/106/101 68/105/100 69/107/102
f 101/108/103 69/107/102 70/109/104
f 102/110/105 70/109/104 71/111/106
f 103/112/107 71/111/106 72/113/108
f 104/114/109 72/113/108 73/115/110
f 73/115/110 74/118/113 106/117/112
f 74/118/113 75/120/115 107/119/114
f 75/120/115 76/122/117 108/121/116
f 76/122/117 77/124/119 109/123/118
f 77/124/119 78/126/121 110/125/120
f 78/126/121 79/128/123 111/127/122
f 79/128/123 80/130/125 112/129/124
f 80/130/125 81/132/127 113/131/126
f 81/132/127 82/134/129 114/133/128
f 82/134/129 83/136/131 115/135/130
f 83/136/131 84/138/133 116/137/132
f 84/138/133 85/140/135 117/139/134
f 85/140/135 86/142/137 118/141/136
f 86/142/137 87/144/139 119/143/138
f 87/144/139 88/146/141 120/145/140
f 88/146/141 89/264/255 121/147/142
f 121/148/142 89/265/255 90/149/143
f 122/150/144 90/149/143 91/151/145
f 123/152/146 91/151/145 92/153/147
f 124/154/148 92/153/147 93/155/149
f 125/156/150 93/155/149 94/157/151
f 126/158/152 94/157/151 95/159/153
f 127/160/154 95/159/153 96/161/155
f 128/162/156 96/161/155 97/163/157
f 160/164/158 128/162/156 129/100/95
f 159/166/160 127/160/154 128/162/156
f 158/167/161 126/158/152 127/160/154
f 157/168/162 125/156/150 126/158/152
f 156/169/163 124/154/148 125/156/150
f 155/170/164 123/152/146 124/154/148
f 154/171/165 122/150/144 123/152/146
f 153/172/166 121/148/142 122/150/144
f 120/145/140 121/147/142 153/173/166
f 119/143/138 120/145/140 152/174/167
f 118/141/136 119/143/138 151/175/168
f 117/139/134 118/141/136 150/176/169
f 116/137/132 117/139/134 149/177/170
f 115/135/130 116/137/132 148/178/171
f 114/133/128 115/135/130 147/179/172
f 113/131/126 114/133/128 146/180/173
f 112/129/124 113/131/126 145/181/174
f 111/127/122 112/129/124 144/182/175
f 110/125/120 111/127/122 143/183/176
f 109/123/118 110/125/120 142/184/177
f 108/121/116 109/123/118 141/185/178
f 107/119/114 108/121/116 140/186/179
f 106/117/112 107/119/114 139/187/180
f 105/116/111 106/117/112 138/188/181
f 136/190/183 104/114/109 105/116/111
f 135/191/184 103/112/107 104/114/109
f 134/192/185 102/110/105 103/112/107
f 133/193/186 101/108/103 102/110/105
f 132/194/187 100/106/101 101/108/103
f 131/195/188 99/104/99 100/106/101
f 130/196/189 98/102/97 99/104/99
f 161/165/159 129/100/95 98/102/97
f 193/197/190 161/165/159 130/196/189
f 162/198/191 130/196/189 131/195/188
f 163/199/192 131/195/188 132/194/187
f 164/200/193 132/194/187 133/193/186
f 165/201/194 133/193/186 134/192/185
f 166/202/195 134/192/185 135/191/184
f 167/203/196 135/191/184 136/190/183
f 168/204/197 136/190/183 137/189/182
f 137/189/182 138/188/181 170/206/199
f 138/188/181 139/187/180 171/207/200
f 139/187/180 140/186/179 172/208/201
f 140/186/179 141/185/178 173/209/202
f 141/185/178 142/184/177 174/210/203
f 142/184/177 143/183/176 175/211/204
f 143/183/176 144/182/175 176/212/205
f 144/182/175 145/181/174 177/213/206
f 145/181/174 146/180/173 178/214/207
f 146/180/173 147/179/172 179/215/208
f 147/179/172 148/178/171 180/216/209
f 148/178/171 149/177/170 181/217/210
f 149/177/170 150/176/169 182/218/211
f 150/176/169 151/175/168 183/219/212
f 151/175/168 152/174/167 184/220/213
f 152/174/167 153/173/166 185/221/214
f 185/222/214 153/172/166 154/171/165
f 186/223/215 154/171/165 155/170/164
f 187/224/216 155/170/164 156/169/163
f 188/225/217 156/169/163 157/168/162
f 189/226/218 157/168/162 158/167/161
f 190/227/219 158/167/161 159/166/160
f 191/228/220 159/166/160 160/164/158
f 192/229/221 160/164/158 161/165/159
f 224/230/222 192/229/221 193/197/190
f 223/232/224 191/228/220 192/229/221
f 222/233/225 190/227/219 191/228/220
f 221/234/226 189/226/218 190/227/219
f 220/235/227 188/225/217 189/226/218
f 219/236/228 187/224/216 188/225/217
f 218/237/229 186/223/215 187/224/216
f 217/238/230 185/222/214 186/223/215
f 184/220/213 185/221/214 217/239/230
f 183/219/212 184/220/213 216/240/231
f 182/218/211 183/219/212 215/241/232
f 181/217/210 182/218/211 214/242/233
f 180/216/209 181/217/210 213/243/234
f 179/215/208 180/216/209 212/244/235
f 178/214/207 179/215/208 211/245/236
f 177/213/206 178/214/207 210/246/237
f 176/212/205 177/213/206 209/247/238
f 175/211/204 176/212/205 208/248/239
f 174/210/203 175/211/204 207/249/240
f 173/209/202 174/210/203 206/250/241
f 172/208/201 173/209/202 205/251/242
f 171/207/200 172/208/201 204/252/243
f 170/206/199 171/207/200 203/253/244
f 169/205/198 170/206/199 202/254/245
f 200/256/247 168/204/197 169/205/198
f 199/257/248 167/203/196 168/204/197
f 198/258/249 166/202/195 167/203/196
f 197/259/250 165/201/194 166/202/195
f 196/260/251 164/200/193 165/201/194
f 195/261/252 163/199/192 164/200/193
f 194/262/253 162/198/191 163/199/192
f 225/231/223 193/197/190 162/198/191
f 97/163/157 226/68/64 227/99/94
f 227/99/94 228/98/93 67/103/98
f 228/98/93 229/97/92 68/105/100
f 229/97/92 230/96/91 69/107/102
f 69/107/102 230/96/91 231/95/90
f 231/95/90 232/94/89 71/111/106
f 232/94/89 233/93/88 72/113/108
f 72/113/108 233/93/88 234/92/87
f 234/92/87 235/91/86 74/118/113
f 235/91/86 236/90/85 75/120/115
f 236/90/85 237/89/84 76/122/117
f 237/89/84 238/88/83 77/124/119
f 238/88/83 239/87/82 78/126/121
f 239/87/82 240/86/81 79/128/123
f 240/86/81 241/85/80 80/130/125
f 241/85/80 242/84/79 81/132/127
f 242/84/79 243/83/78 82/134/129
f 243/83/78 244/82/77 83/136/131
f 83/136/131 244/82/77 245/81/76
f 84/138/133 245/81/76 246/80/75
f 246/80/75 247/79/74 86/142/137
f 247/79/74 248/78/73 87/144/139
f 87/144/139 248/78/73 249/77/72
f 249/77/72 250/76/71 89/264/255
f 89/265/255 250/75/71 251/74/70
f 90/149/143 251/74/70 252/73/69
f 91/151/145 252/73/69 253/72/68
f 92/153/147 253/72/68 254/71/67
f 254/71/67 255/70/66 94/157/151
f 255/70/66 256/69/65 95/159/153
f 95/159/153 256/69/65 257/67/63
f 96/161/155 257/67/63 226/68/64
f 259/266/256 261/269/259 260/267/257
f 261/269/259 263/271/261 262/270/260
f 263/271/261 265/273/263 264/272/262
f 265/273/263 267/275/265 266/274/264
f 267/275/265 269/277/267 268/276/266
f 269/277/267 271/279/269 270/278/268
f 271/279/269 273/281/271 272/280/270
f 273/281/271 275/283/273 274/282/272
f 275/283/273 277/285/275 276/284/274
f 277/285/275 279/287/277 278/286/276
f 279/287/277 281/289/279 280/288/278
f 281/289/279 283/291/281 282/290/280
f 283/291/281 285/293/283 284/292/282
f 285/293/283 287/295/285 286/294/284
f 287/295/285 289/297/287 288/296/286
f 289/297/287 291/299/289 290/298/288
f 291/299/289 293/301/291 292/300/290
f 293/301/291 295/303/293 294/302/292
f 295/303/293 297/305/295 296/304/294
f 297/305/295 299/307/297 298/306/296
f 299/307/297 301/309/299 300/308/298
f 301/309/299 303/311/301 302/310/300
f 303/311/301 305/313/303 304/312/302
f 305/313/303 307/315/305 306/314/304
f 307/315/305 309/317/307 308/316/306
f 309/317/307 311/319/309 310/318/308
f 311/319/309 313/321/311 312/320/310
f 313/321/311 315/323/313 314/322/312
f 315/323/313 317/325/315 316/324/314
f 317/325/315 319/327/317 318/326/316
f 319/327/317 321/329/319 320/328/318
f 321/329/319 259/467/256 258/330/258
f 320/332/318 258/468/258 260/469/257
f 260/469/257 262/470/260 264/471/262
f 264/471/262 266/472/264 268/473/266
f 268/473/266 270/474/268 264/471/262
f 270/474/268 272/475/270 264/471/262
f 272/475/270 274/476/272 280/477/278
f 274/476/272 276/478/274 280/477/278
f 276/478/274 278/479/276 280/477/278
f 280/477/278 282/480/280 284/481/282
f 284/481/282 286/482/284 288/333/286
f 288/333/286 290/483/288 292/484/290
f 292/484/290 294/485/292 296/486/294
f 296/486/294 298/487/296 300/488/298
f 300/488/298 302/489/300 296/486/294
f 302/489/300 304/490/302 296/486/294
f 304/490/302 306/491/304 312/331/310
f 306/491/304 308/492/306 312/331/310
f 308/492/306 310/493/308 312/331/310
f 312/331/310 314/494/312 316/495/314
f 316/495/314 318/496/316 320/332/318
f 320/332/318 260/469/257 272/475/270
f 260/469/257 264/471/262 272/475/270
f 280/477/278 284/481/282 288/333/286
f 288/333/286 292/484/290 304/490/302
f 292/484/290 296/486/294 304/490/302
f 312/331/310 316/495/314 320/332/318
f 272/475/270 280/477/278 320/332/318
f 280/477/278 288/333/286 320/332/318
f 304/490/302 312/331/310 288/333/286
f 356/368/256 358/371/259 357/369/257
f 358/371/259 360/373/261 359/372/353
f 360/373/261 362/375/263 361/374/262
f 362/375/263 364/377/265 363/376/354
f 364/377/265 366/379/267 365/378/266
f 366/379/267 368/381/269 367/380/268
f 368/381/269 370/383/271 369/382/270
f 370/383/271 372/497/273 371/384/272
f 371/384/272 372/497/273 374/385/275
f 374/385/275 376/388/277 375/387/276
f 376/388/277 378/390/279 377/389/278
f 378/390/279 380/392/281 379/391/355
f 380/392/281 382/394/283 381/393/282
f 382/394/283 384/396/285 383/395/284
f 384/396/285 386/498/287 385/397/286
f 385/397/286 386/498/287 388/398/289
f 388/398/289 390/499/291 389/400/290
f 389/400/290 390/499/291 392/401/293
f 392/401/293 394/404/295 393/403/294
f 394/404/295 396/406/297 395/405/356
f 396/406/297 398/408/299 397/407/298
f 398/408/299 400/410/301 399/409/300
f 400/410/301 402/412/303 401/411/302
f 402/412/303 404/414/305 403/413/304
f 404/414/305 406/500/307 405/415/306
f 405/415/306 406/500/307 408/416/309
f 408/416/309 410/419/311 409/418/310
f 410/419/311 412/421/313 411/420/358
f 412/421/313 414/423/315 413/422/314
f 414/423/315 416/425/317 415/424/359
f 416/425/317 418/501/319 417/426/318
f 417/426/318 418/501/319 356/427/256
f 417/430/318 355/502/258 361/503/262
f 355/502/258 357/504/257 361/503/262
f 357/504/257 359/505/353 361/503/262
f 361/503/262 363/506/354 365/507/266
f 365/507/266 367/508/268 369/509/270
f 369/509/270 371/510/272 377/511/278
f 371/510/272 373/512/274 377/511/278
f 373/512/274 375/513/276 377/511/278
f 377/511/278 379/514/355 381/515/282
f 381/515/282 383/516/284 385/431/286
f 385/431/286 387/517/288 393/518/294
f 387/517/288 389/519/290 393/518/294
f 389/519/290 391/520/292 393/518/294
f 393/518/294 395/521/356 397/522/298
f 397/522/298 399/523/300 401/524/302
f 401/524/302 403/525/304 409/429/310
f 403/525/304 405/526/306 409/429/310
f 405/526/306 407/527/357 409/429/310
f 409/429/310 411/528/358 413/529/314
f 413/529/314 415/530/359 417/430/318
f 361/503/262 365/507/266 369/509/270
f 377/511/278 381/515/282 369/509/270
f 381/515/282 385/431/286 369/509/270
f 393/518/294 397/522/298 385/431/286
f 397/522/298 401/524/302 385/431/286
f 409/429/310 413/529/314 417/430/318
f 417/430/318 361/503/262 385/431/286
f 361/503/262 369/509/270 385/431/286
f 401/524/302 409/429/310 385/431/286
