# Blender v2.93.1 OBJ File: ''
# www.blender.org
mtllib wall_door.mtl
o 円柱.003
v 0.000000 -0.000024 -75.000000
v 5.037916 -0.000024 -74.508263
v 5.037916 9.999975 -74.508263
v 0.000000 9.999975 -75.000000
v -5.036496 -0.000024 -74.512733
v -5.036496 9.999975 -74.512733
vt 0.500000 0.000022
vt 0.489337 0.000022
vt 0.489337 0.500076
vt 0.500000 0.500076
vt 0.510566 0.000022
vt 0.510566 0.500076
vn -0.0971 0.0000 0.9953
vn -0.0977 -0.0000 0.9952
vn 0.0976 -0.0000 0.9952
vn 0.0963 0.0000 0.9954
usemtl マテリアル.004
s 1
f 1/1/1 2/2/2 3/3/2 4/4/1
f 5/5/3 1/1/4 4/4/4 6/6/3
