# Blender v2.93.1 OBJ File: ''
# www.blender.org
mtllib halberd.mtl
o bow_Mesh_0.001
v 0.176777 2.675000 -0.000000
v -0.000000 2.675000 -0.176777
v 0.176777 -2.825000 -0.000000
v -0.000000 -2.825000 -0.176777
v -0.176777 2.675000 0.000000
v 0.000000 2.675000 0.176777
v -0.176777 -2.825000 0.000000
v 0.000000 -2.825000 0.176777
v -0.176777 2.675000 0.000000
v -0.000000 2.675000 -0.176777
v 0.000000 2.675000 0.176777
v 0.176777 2.675000 -0.000000
v 0.000000 -2.825000 0.176777
v 0.176777 -2.825000 -0.000000
v -0.176777 -2.825000 0.000000
v -0.000000 -2.825000 -0.176777
v 0.000000 2.675000 0.176777
v 0.176777 2.675000 -0.000000
v 0.000000 -2.825000 0.176777
v 0.176777 -2.825000 -0.000000
v -0.000000 2.675000 -0.176777
v -0.176777 2.675000 0.000000
v -0.000000 -2.825000 -0.176777
v -0.176777 -2.825000 0.000000
v 0.062500 3.050000 0.062500
v 0.062500 3.050000 -0.062500
v 0.062500 2.800000 0.062500
v 0.062500 2.800000 -0.062500
v -0.062500 3.050000 -0.062500
v -0.062500 3.050000 0.062500
v -0.062500 2.800000 -0.062500
v -0.062500 2.800000 0.062500
v -0.062500 3.050000 -0.062500
v 0.062500 3.050000 -0.062500
v -0.062500 3.050000 0.062500
v 0.062500 3.050000 0.062500
v -0.062500 2.800000 0.062500
v 0.062500 2.800000 0.062500
v -0.062500 2.800000 -0.062500
v 0.062500 2.800000 -0.062500
v -0.062500 3.050000 0.062500
v 0.062500 3.050000 0.062500
v -0.062500 2.800000 0.062500
v 0.062500 2.800000 0.062500
v 0.062500 3.050000 -0.062500
v -0.062500 3.050000 -0.062500
v 0.062500 2.800000 -0.062500
v -0.062500 2.800000 -0.062500
v 0.044194 3.300000 -0.000000
v -0.000000 3.300000 -0.044194
v 0.044194 3.050000 -0.000000
v -0.000000 3.050000 -0.044194
v -0.044194 3.300000 0.000000
v 0.000000 3.300000 0.044194
v -0.044194 3.050000 0.000000
v 0.000000 3.050000 0.044194
v -0.044194 3.300000 0.000000
v -0.000000 3.300000 -0.044194
v 0.000000 3.300000 0.044194
v 0.044194 3.300000 -0.000000
v 0.000000 3.050000 0.044194
v 0.044194 3.050000 -0.000000
v -0.044194 3.050000 0.000000
v -0.000000 3.050000 -0.044194
v 0.000000 3.300000 0.044194
v 0.044194 3.300000 -0.000000
v 0.000000 3.050000 0.044194
v 0.044194 3.050000 -0.000000
v -0.000000 3.300000 -0.044194
v -0.044194 3.300000 0.000000
v -0.000000 3.050000 -0.044194
v -0.044194 3.050000 0.000000
v 0.265165 -2.825000 -0.000000
v -0.000000 -2.825000 -0.265165
v 0.265165 -3.200000 -0.000000
v -0.000000 -3.200000 -0.265165
v -0.265165 -2.825000 0.000000
v 0.000000 -2.825000 0.265165
v -0.265165 -3.200000 0.000000
v 0.000000 -3.200000 0.265165
v -0.265165 -2.825000 0.000000
v -0.000000 -2.825000 -0.265165
v 0.000000 -2.825000 0.265165
v 0.265165 -2.825000 -0.000000
v 0.000000 -3.200000 0.265165
v 0.265165 -3.200000 -0.000000
v -0.265165 -3.200000 0.000000
v -0.000000 -3.200000 -0.265165
v 0.000000 -2.825000 0.265165
v 0.265165 -2.825000 -0.000000
v 0.000000 -3.200000 0.265165
v 0.265165 -3.200000 -0.000000
v -0.000000 -2.825000 -0.265165
v -0.265165 -2.825000 0.000000
v -0.000000 -3.200000 -0.265165
v -0.265165 -3.200000 0.000000
v 0.265165 -2.575000 -0.000000
v -0.000000 -2.575000 -0.265165
v 0.265165 -2.700000 -0.000000
v -0.000000 -2.700000 -0.265165
v -0.265165 -2.575000 0.000000
v 0.000000 -2.575000 0.265165
v -0.265165 -2.700000 0.000000
v 0.000000 -2.700000 0.265165
v -0.265165 -2.575000 0.000000
v -0.000000 -2.575000 -0.265165
v 0.000000 -2.575000 0.265165
v 0.265165 -2.575000 -0.000000
v 0.000000 -2.700000 0.265165
v 0.265165 -2.700000 -0.000000
v -0.265165 -2.700000 0.000000
v -0.000000 -2.700000 -0.265165
v 0.000000 -2.575000 0.265165
v 0.265165 -2.575000 -0.000000
v 0.000000 -2.700000 0.265165
v 0.265165 -2.700000 -0.000000
v -0.000000 -2.575000 -0.265165
v -0.265165 -2.575000 0.000000
v -0.000000 -2.700000 -0.265165
v -0.265165 -2.700000 0.000000
v 0.265165 2.550000 -0.000000
v -0.000000 2.550000 -0.265165
v 0.265165 1.300000 -0.000000
v -0.000000 1.300000 -0.265165
v -0.265165 2.550000 0.000000
v 0.000000 2.550000 0.265165
v -0.265165 1.300000 0.000000
v 0.000000 1.300000 0.265165
v -0.265165 2.550000 0.000000
v -0.000000 2.550000 -0.265165
v 0.000000 2.550000 0.265165
v 0.265165 2.550000 -0.000000
v 0.000000 1.300000 0.265165
v 0.265165 1.300000 -0.000000
v -0.265165 1.300000 0.000000
v -0.000000 1.300000 -0.265165
v 0.000000 2.550000 0.265165
v 0.265165 2.550000 -0.000000
v 0.000000 1.300000 0.265165
v 0.265165 1.300000 -0.000000
v -0.000000 2.550000 -0.265165
v -0.265165 2.550000 0.000000
v -0.000000 1.300000 -0.265165
v -0.265165 1.300000 0.000000
v 0.265165 2.800000 -0.000000
v -0.000000 2.800000 -0.265165
v 0.265165 2.675000 -0.000000
v -0.000000 2.675000 -0.265165
v -0.265165 2.800000 0.000000
v 0.000000 2.800000 0.265165
v -0.265165 2.675000 0.000000
v 0.000000 2.675000 0.265165
v -0.265165 2.800000 0.000000
v -0.000000 2.800000 -0.265165
v 0.000000 2.800000 0.265165
v 0.265165 2.800000 -0.000000
v 0.000000 2.675000 0.265165
v 0.265165 2.675000 -0.000000
v -0.265165 2.675000 0.000000
v -0.000000 2.675000 -0.265165
v 0.000000 2.800000 0.265165
v 0.265165 2.800000 -0.000000
v 0.000000 2.675000 0.265165
v 0.265165 2.675000 -0.000000
v -0.000000 2.800000 -0.265165
v -0.265165 2.800000 0.000000
v -0.000000 2.675000 -0.265165
v -0.265165 2.675000 0.000000
v 0.265165 1.175000 -0.000000
v -0.000000 1.175000 -0.265165
v 0.265165 1.050000 -0.000000
v -0.000000 1.050000 -0.265165
v -0.265165 1.175000 0.000000
v 0.000000 1.175000 0.265165
v -0.265165 1.050000 0.000000
v 0.000000 1.050000 0.265165
v -0.265165 1.175000 0.000000
v -0.000000 1.175000 -0.265165
v 0.000000 1.175000 0.265165
v 0.265165 1.175000 -0.000000
v 0.000000 1.050000 0.265165
v 0.265165 1.050000 -0.000000
v -0.265165 1.050000 0.000000
v -0.000000 1.050000 -0.265165
v 0.000000 1.175000 0.265165
v 0.265165 1.175000 -0.000000
v 0.000000 1.050000 0.265165
v 0.265165 1.050000 -0.000000
v -0.000000 1.175000 -0.265165
v -0.265165 1.175000 0.000000
v -0.000000 1.050000 -0.265165
v -0.265165 1.050000 0.000000
v 0.125062 2.050062 0.625063
v 0.125062 2.050062 0.124938
v 0.125062 1.799937 0.625063
v 0.125062 1.799937 0.124938
v -0.000062 2.050062 0.124938
v -0.000062 2.050062 0.625063
v -0.000062 1.799937 0.124938
v -0.000062 1.799937 0.625063
v -0.000062 2.050062 0.124938
v 0.125062 2.050062 0.124938
v -0.000062 2.050062 0.625063
v 0.125062 2.050062 0.625063
v -0.000062 1.799937 0.625063
v 0.125062 1.799937 0.625063
v -0.000062 1.799937 0.124938
v 0.125062 1.799937 0.124938
v -0.000062 2.050062 0.625063
v 0.125062 2.050062 0.625063
v -0.000062 1.799937 0.625063
v 0.125062 1.799937 0.625063
v 0.125062 2.050062 0.124938
v -0.000062 2.050062 0.124938
v 0.125062 1.799937 0.124938
v -0.000062 1.799937 0.124938
v 0.125000 1.800000 1.058013
v 0.125000 2.050000 0.625000
v 0.125000 1.583493 0.933013
v 0.125000 1.833493 0.500000
v 0.000000 2.050000 0.625000
v 0.000000 1.800000 1.058013
v 0.000000 1.833493 0.500000
v 0.000000 1.583493 0.933013
v 0.000000 2.050000 0.625000
v 0.125000 2.050000 0.625000
v 0.000000 1.800000 1.058013
v 0.125000 1.800000 1.058013
v 0.000000 1.583493 0.933013
v 0.125000 1.583493 0.933013
v 0.000000 1.833493 0.500000
v 0.125000 1.833493 0.500000
v 0.000000 1.800000 1.058013
v 0.125000 1.800000 1.058013
v 0.000000 1.583493 0.933013
v 0.125000 1.583493 0.933013
v 0.125000 2.050000 0.625000
v 0.000000 2.050000 0.625000
v 0.125000 1.833493 0.500000
v 0.000000 1.833493 0.500000
v 0.093750 2.425000 -0.062500
v 0.093750 2.425000 -0.937500
v 0.093750 1.425000 -0.062500
v 0.093750 1.425000 -0.937500
v 0.031250 2.425000 -0.937500
v 0.031250 2.425000 -0.062500
v 0.031250 1.425000 -0.937500
v 0.031250 1.425000 -0.062500
v 0.031250 2.425000 -0.937500
v 0.093750 2.425000 -0.937500
v 0.031250 2.425000 -0.062500
v 0.093750 2.425000 -0.062500
v 0.031250 1.425000 -0.062500
v 0.093750 1.425000 -0.062500
v 0.031250 1.425000 -0.937500
v 0.093750 1.425000 -0.937500
v 0.031250 2.425000 -0.062500
v 0.093750 2.425000 -0.062500
v 0.031250 1.425000 -0.062500
v 0.093750 1.425000 -0.062500
v 0.093750 2.425000 -0.937500
v 0.031250 2.425000 -0.937500
v 0.093750 1.425000 -0.937500
v 0.031250 1.425000 -0.937500
v 0.125063 2.897652 -0.180881
v 0.125063 3.256209 -0.692954
v 0.125063 1.566427 -1.113015
v 0.125063 1.924985 -1.625087
v -0.000062 3.256209 -0.692954
v -0.000062 2.897652 -0.180881
v -0.000062 1.924985 -1.625087
v -0.000062 1.566427 -1.113015
v -0.000062 3.256209 -0.692954
v 0.125063 3.256209 -0.692954
v -0.000062 2.897652 -0.180881
v 0.125063 2.897652 -0.180881
v -0.000062 1.566427 -1.113015
v 0.125063 1.566427 -1.113015
v -0.000062 1.924985 -1.625087
v 0.125063 1.924985 -1.625087
v -0.000062 2.897652 -0.180881
v 0.125063 2.897652 -0.180881
v -0.000062 1.566427 -1.113015
v 0.125063 1.566427 -1.113015
v 0.125063 3.256209 -0.692954
v -0.000062 3.256209 -0.692954
v 0.125063 1.924985 -1.625087
v -0.000062 1.924985 -1.625087
v 0.125000 2.283485 -1.113030
v 0.125000 1.925000 -1.625000
v 0.125000 0.952363 -0.180968
v 0.125000 0.593878 -0.692938
v 0.000000 1.925000 -1.625000
v 0.000000 2.283485 -1.113030
v -0.000000 0.593878 -0.692938
v 0.000000 0.952363 -0.180968
v 0.000000 1.925000 -1.625000
v 0.125000 1.925000 -1.625000
v 0.000000 2.283485 -1.113030
v 0.125000 2.283485 -1.113030
v 0.000000 0.952363 -0.180968
v 0.125000 0.952363 -0.180968
v -0.000000 0.593878 -0.692938
v 0.125000 0.593878 -0.692938
v 0.000000 2.283485 -1.113030
v 0.125000 2.283485 -1.113030
v 0.000000 0.952363 -0.180968
v 0.125000 0.952363 -0.180968
v 0.125000 1.925000 -1.625000
v 0.000000 1.925000 -1.625000
v 0.125000 0.593878 -0.692938
v -0.000000 0.593878 -0.692938
vt 0.000122 0.968628
vt 0.000122 0.281372
vt 0.031128 0.968628
vt 0.031128 0.281372
vt 0.062622 0.968628
vt 0.062622 0.281372
vt 0.093628 0.968628
vt 0.093628 0.281372
vt 0.062378 0.968872
vt 0.062378 0.999878
vt 0.031372 0.968872
vt 0.031372 0.999878
vt 0.093628 0.999878
vt 0.093628 0.968872
vt 0.062622 0.999878
vt 0.062622 0.968872
vt 0.093872 0.968628
vt 0.093872 0.281372
vt 0.124878 0.968628
vt 0.124878 0.281372
vt 0.031372 0.968628
vt 0.031372 0.281372
vt 0.062378 0.968628
vt 0.062378 0.281372
vt 0.312622 0.499878
vt 0.312622 0.468872
vt 0.328003 0.499878
vt 0.328003 0.468872
vt 0.343872 0.499878
vt 0.343872 0.468872
vt 0.359253 0.499878
vt 0.359253 0.468872
vt 0.343628 0.500122
vt 0.343628 0.515503
vt 0.328247 0.500122
vt 0.328247 0.515503
vt 0.359253 0.515503
vt 0.359253 0.500122
vt 0.343872 0.515503
vt 0.343872 0.500122
vt 0.359497 0.499878
vt 0.359497 0.468872
vt 0.374878 0.499878
vt 0.374878 0.468872
vt 0.328247 0.499878
vt 0.328247 0.468872
vt 0.343628 0.499878
vt 0.343628 0.468872
vt 0.375122 0.507690
vt 0.375122 0.476685
vt 0.382690 0.507690
vt 0.382690 0.476685
vt 0.390747 0.507690
vt 0.390747 0.476685
vt 0.398315 0.507690
vt 0.398315 0.476685
vt 0.390503 0.507935
vt 0.390503 0.515503
vt 0.382935 0.507935
vt 0.382935 0.515503
vt 0.398315 0.515503
vt 0.398315 0.507935
vt 0.390747 0.515503
vt 0.390747 0.507935
vt 0.398560 0.507690
vt 0.398560 0.476685
vt 0.406128 0.507690
vt 0.406128 0.476685
vt 0.382935 0.507690
vt 0.382935 0.476685
vt 0.390503 0.507690
vt 0.390503 0.476685
vt 0.312622 0.562378
vt 0.312622 0.515747
vt 0.359253 0.562378
vt 0.359253 0.515747
vt 0.406372 0.562378
vt 0.406372 0.515747
vt 0.453003 0.562378
vt 0.453003 0.515747
vt 0.406128 0.562622
vt 0.406128 0.609253
vt 0.359497 0.562622
vt 0.359497 0.609253
vt 0.453003 0.609253
vt 0.453003 0.562622
vt 0.406372 0.609253
vt 0.406372 0.562622
vt 0.453247 0.562378
vt 0.453247 0.515747
vt 0.499878 0.562378
vt 0.499878 0.515747
vt 0.359497 0.562378
vt 0.359497 0.515747
vt 0.406128 0.562378
vt 0.406128 0.515747
vt 0.312622 0.624878
vt 0.312622 0.609497
vt 0.359253 0.624878
vt 0.359253 0.609497
vt 0.406372 0.624878
vt 0.406372 0.609497
vt 0.453003 0.624878
vt 0.453003 0.609497
vt 0.406128 0.625122
vt 0.406128 0.671753
vt 0.359497 0.625122
vt 0.359497 0.671753
vt 0.453003 0.671753
vt 0.453003 0.625122
vt 0.406372 0.671753
vt 0.406372 0.625122
vt 0.453247 0.624878
vt 0.453247 0.609497
vt 0.499878 0.624878
vt 0.499878 0.609497
vt 0.359497 0.624878
vt 0.359497 0.609497
vt 0.406128 0.624878
vt 0.406128 0.609497
vt 0.312622 0.890503
vt 0.312622 0.734497
vt 0.359253 0.890503
vt 0.359253 0.734497
vt 0.406372 0.890503
vt 0.406372 0.734497
vt 0.453003 0.890503
vt 0.453003 0.734497
vt 0.406128 0.890747
vt 0.406128 0.937378
vt 0.359497 0.890747
vt 0.359497 0.937378
vt 0.453003 0.937378
vt 0.453003 0.890747
vt 0.406372 0.937378
vt 0.406372 0.890747
vt 0.453247 0.890503
vt 0.453247 0.734497
vt 0.499878 0.890503
vt 0.499878 0.734497
vt 0.359497 0.890503
vt 0.359497 0.734497
vt 0.406128 0.890503
vt 0.406128 0.734497
vt 0.312622 0.953003
vt 0.312622 0.937622
vt 0.359253 0.953003
vt 0.359253 0.937622
vt 0.406372 0.953003
vt 0.406372 0.937622
vt 0.453003 0.953003
vt 0.453003 0.937622
vt 0.406128 0.953247
vt 0.406128 0.999878
vt 0.359497 0.953247
vt 0.359497 0.999878
vt 0.453003 0.999878
vt 0.453003 0.953247
vt 0.406372 0.999878
vt 0.406372 0.953247
vt 0.453247 0.953003
vt 0.453247 0.937622
vt 0.499878 0.953003
vt 0.499878 0.937622
vt 0.359497 0.953003
vt 0.359497 0.937622
vt 0.406128 0.953003
vt 0.406128 0.937622
vt 0.312622 0.687378
vt 0.312622 0.671997
vt 0.359253 0.687378
vt 0.359253 0.671997
vt 0.406372 0.687378
vt 0.406372 0.671997
vt 0.453003 0.687378
vt 0.453003 0.671997
vt 0.406128 0.687622
vt 0.406128 0.734253
vt 0.359497 0.687622
vt 0.359497 0.734253
vt 0.453003 0.734253
vt 0.453003 0.687622
vt 0.406372 0.734253
vt 0.406372 0.687622
vt 0.453247 0.687378
vt 0.453247 0.671997
vt 0.499878 0.687378
vt 0.499878 0.671997
vt 0.359497 0.687378
vt 0.359497 0.671997
vt 0.406128 0.687378
vt 0.406128 0.671997
vt 0.343872 0.453003
vt 0.343872 0.421997
vt 0.406128 0.453003
vt 0.406128 0.421997
vt 0.421997 0.453003
vt 0.421997 0.421997
vt 0.484253 0.453003
vt 0.484253 0.421997
vt 0.421753 0.453247
vt 0.421753 0.515503
vt 0.406372 0.453247
vt 0.406372 0.515503
vt 0.437378 0.515503
vt 0.437378 0.453247
vt 0.421997 0.515503
vt 0.421997 0.453247
vt 0.484497 0.453003
vt 0.484497 0.421997
vt 0.499878 0.453003
vt 0.499878 0.421997
vt 0.406372 0.453003
vt 0.406372 0.421997
vt 0.421753 0.453003
vt 0.421753 0.421997
vt 0.343872 0.359253
vt 0.343872 0.328247
vt 0.406128 0.359253
vt 0.406128 0.328247
vt 0.421997 0.359253
vt 0.421997 0.328247
vt 0.484253 0.359253
vt 0.484253 0.328247
vt 0.421753 0.359497
vt 0.421753 0.421753
vt 0.406372 0.359497
vt 0.406372 0.421753
vt 0.437378 0.421753
vt 0.437378 0.359497
vt 0.421997 0.421753
vt 0.421997 0.359497
vt 0.484497 0.359253
vt 0.484497 0.328247
vt 0.499878 0.359253
vt 0.499878 0.328247
vt 0.406372 0.359253
vt 0.406372 0.328247
vt 0.421753 0.359253
vt 0.421753 0.328247
vt 0.125122 0.328003
vt 0.125122 0.203247
vt 0.234253 0.328003
vt 0.234253 0.203247
vt 0.242310 0.328003
vt 0.242310 0.203247
vt 0.351440 0.328003
vt 0.351440 0.203247
vt 0.242065 0.328247
vt 0.242065 0.437378
vt 0.234497 0.328247
vt 0.234497 0.437378
vt 0.249878 0.437378
vt 0.249878 0.328247
vt 0.242310 0.437378
vt 0.242310 0.328247
vt 0.351685 0.328003
vt 0.351685 0.203247
vt 0.359253 0.328003
vt 0.359253 0.203247
vt 0.234497 0.328003
vt 0.234497 0.203247
vt 0.242065 0.328003
vt 0.242065 0.203247
vt 0.125122 0.921753
vt 0.125122 0.718872
vt 0.203003 0.921753
vt 0.203003 0.718872
vt 0.218872 0.921753
vt 0.218872 0.718872
vt 0.296753 0.921753
vt 0.296753 0.718872
vt 0.218628 0.921997
vt 0.218628 0.999878
vt 0.203247 0.921997
vt 0.203247 0.999878
vt 0.234253 0.999878
vt 0.234253 0.921997
vt 0.218872 0.999878
vt 0.218872 0.921997
vt 0.296997 0.921753
vt 0.296997 0.718872
vt 0.312378 0.921753
vt 0.312378 0.718872
vt 0.203247 0.921753
vt 0.203247 0.718872
vt 0.218628 0.921753
vt 0.218628 0.718872
vt 0.125122 0.640503
vt 0.125122 0.437622
vt 0.203003 0.640503
vt 0.203003 0.437622
vt 0.218872 0.640503
vt 0.218872 0.437622
vt 0.296753 0.640503
vt 0.296753 0.437622
vt 0.218628 0.640747
vt 0.218628 0.718628
vt 0.203247 0.640747
vt 0.203247 0.718628
vt 0.234253 0.718628
vt 0.234253 0.640747
vt 0.218872 0.718628
vt 0.218872 0.640747
vt 0.296997 0.640503
vt 0.296997 0.437622
vt 0.312378 0.640503
vt 0.312378 0.437622
vt 0.203247 0.640503
vt 0.203247 0.437622
vt 0.218628 0.640503
vt 0.218628 0.437622
vn 0.7071 0.0000 -0.7071
vn -0.7071 0.0000 0.7071
vn 0.0000 1.0000 -0.0000
vn 0.0000 -1.0000 0.0000
vn 0.7071 0.0000 0.7071
vn -0.7071 0.0000 -0.7071
vn 1.0000 0.0000 -0.0000
vn -1.0000 0.0000 0.0000
vn 0.0000 0.0000 1.0000
vn -0.0000 0.0000 -1.0000
vn 0.0000 0.8660 0.5000
vn 0.0000 -0.8660 -0.5000
vn 0.0000 -0.5000 0.8660
vn 0.0000 0.5000 -0.8660
vn 0.0000 0.8192 0.5736
vn 0.0000 -0.8192 -0.5736
vn -0.0000 -0.5736 0.8192
vn 0.0000 0.5736 -0.8192
vn -0.0000 0.8192 -0.5736
vn 0.0000 -0.8192 0.5736
vn 0.0000 0.5736 0.8192
vn -0.0000 -0.5736 -0.8192
usemtl Material_0.001
s off
f 1/1/1 3/2/1 2/3/1
f 3/2/1 4/4/1 2/3/1
f 5/5/2 7/6/2 6/7/2
f 7/6/2 8/8/2 6/7/2
f 9/9/3 11/10/3 10/11/3
f 11/10/3 12/12/3 10/11/3
f 13/13/4 15/14/4 14/15/4
f 15/14/4 16/16/4 14/15/4
f 17/17/5 19/18/5 18/19/5
f 19/18/5 20/20/5 18/19/5
f 21/21/6 23/22/6 22/23/6
f 23/22/6 24/24/6 22/23/6
f 25/25/7 27/26/7 26/27/7
f 27/26/7 28/28/7 26/27/7
f 29/29/8 31/30/8 30/31/8
f 31/30/8 32/32/8 30/31/8
f 33/33/3 35/34/3 34/35/3
f 35/34/3 36/36/3 34/35/3
f 37/37/4 39/38/4 38/39/4
f 39/38/4 40/40/4 38/39/4
f 41/41/9 43/42/9 42/43/9
f 43/42/9 44/44/9 42/43/9
f 45/45/10 47/46/10 46/47/10
f 47/46/10 48/48/10 46/47/10
f 49/49/1 51/50/1 50/51/1
f 51/50/1 52/52/1 50/51/1
f 53/53/2 55/54/2 54/55/2
f 55/54/2 56/56/2 54/55/2
f 57/57/3 59/58/3 58/59/3
f 59/58/3 60/60/3 58/59/3
f 61/61/4 63/62/4 62/63/4
f 63/62/4 64/64/4 62/63/4
f 65/65/5 67/66/5 66/67/5
f 67/66/5 68/68/5 66/67/5
f 69/69/6 71/70/6 70/71/6
f 71/70/6 72/72/6 70/71/6
f 73/73/1 75/74/1 74/75/1
f 75/74/1 76/76/1 74/75/1
f 77/77/2 79/78/2 78/79/2
f 79/78/2 80/80/2 78/79/2
f 81/81/3 83/82/3 82/83/3
f 83/82/3 84/84/3 82/83/3
f 85/85/4 87/86/4 86/87/4
f 87/86/4 88/88/4 86/87/4
f 89/89/5 91/90/5 90/91/5
f 91/90/5 92/92/5 90/91/5
f 93/93/6 95/94/6 94/95/6
f 95/94/6 96/96/6 94/95/6
f 97/97/1 99/98/1 98/99/1
f 99/98/1 100/100/1 98/99/1
f 101/101/2 103/102/2 102/103/2
f 103/102/2 104/104/2 102/103/2
f 105/105/3 107/106/3 106/107/3
f 107/106/3 108/108/3 106/107/3
f 109/109/4 111/110/4 110/111/4
f 111/110/4 112/112/4 110/111/4
f 113/113/5 115/114/5 114/115/5
f 115/114/5 116/116/5 114/115/5
f 117/117/6 119/118/6 118/119/6
f 119/118/6 120/120/6 118/119/6
f 121/121/1 123/122/1 122/123/1
f 123/122/1 124/124/1 122/123/1
f 125/125/2 127/126/2 126/127/2
f 127/126/2 128/128/2 126/127/2
f 129/129/3 131/130/3 130/131/3
f 131/130/3 132/132/3 130/131/3
f 133/133/4 135/134/4 134/135/4
f 135/134/4 136/136/4 134/135/4
f 137/137/5 139/138/5 138/139/5
f 139/138/5 140/140/5 138/139/5
f 141/141/6 143/142/6 142/143/6
f 143/142/6 144/144/6 142/143/6
f 145/145/1 147/146/1 146/147/1
f 147/146/1 148/148/1 146/147/1
f 149/149/2 151/150/2 150/151/2
f 151/150/2 152/152/2 150/151/2
f 153/153/3 155/154/3 154/155/3
f 155/154/3 156/156/3 154/155/3
f 157/157/4 159/158/4 158/159/4
f 159/158/4 160/160/4 158/159/4
f 161/161/5 163/162/5 162/163/5
f 163/162/5 164/164/5 162/163/5
f 165/165/6 167/166/6 166/167/6
f 167/166/6 168/168/6 166/167/6
f 169/169/1 171/170/1 170/171/1
f 171/170/1 172/172/1 170/171/1
f 173/173/2 175/174/2 174/175/2
f 175/174/2 176/176/2 174/175/2
f 177/177/3 179/178/3 178/179/3
f 179/178/3 180/180/3 178/179/3
f 181/181/4 183/182/4 182/183/4
f 183/182/4 184/184/4 182/183/4
f 185/185/5 187/186/5 186/187/5
f 187/186/5 188/188/5 186/187/5
f 189/189/6 191/190/6 190/191/6
f 191/190/6 192/192/6 190/191/6
f 193/193/7 195/194/7 194/195/7
f 195/194/7 196/196/7 194/195/7
f 197/197/8 199/198/8 198/199/8
f 199/198/8 200/200/8 198/199/8
f 201/201/3 203/202/3 202/203/3
f 203/202/3 204/204/3 202/203/3
f 205/205/4 207/206/4 206/207/4
f 207/206/4 208/208/4 206/207/4
f 209/209/9 211/210/9 210/211/9
f 211/210/9 212/212/9 210/211/9
f 213/213/10 215/214/10 214/215/10
f 215/214/10 216/216/10 214/215/10
f 217/217/7 219/218/7 218/219/7
f 219/218/7 220/220/7 218/219/7
f 221/221/8 223/222/8 222/223/8
f 223/222/8 224/224/8 222/223/8
f 225/225/11 227/226/11 226/227/11
f 227/226/11 228/228/11 226/227/11
f 229/229/12 231/230/12 230/231/12
f 231/230/12 232/232/12 230/231/12
f 233/233/13 235/234/13 234/235/13
f 235/234/13 236/236/13 234/235/13
f 237/237/14 239/238/14 238/239/14
f 239/238/14 240/240/14 238/239/14
f 241/241/7 243/242/7 242/243/7
f 243/242/7 244/244/7 242/243/7
f 245/245/8 247/246/8 246/247/8
f 247/246/8 248/248/8 246/247/8
f 249/249/3 251/250/3 250/251/3
f 251/250/3 252/252/3 250/251/3
f 253/253/4 255/254/4 254/255/4
f 255/254/4 256/256/4 254/255/4
f 257/257/9 259/258/9 258/259/9
f 259/258/9 260/260/9 258/259/9
f 261/261/10 263/262/10 262/263/10
f 263/262/10 264/264/10 262/263/10
f 265/265/7 267/266/7 266/267/7
f 267/266/7 268/268/7 266/267/7
f 269/269/8 271/270/8 270/271/8
f 271/270/8 272/272/8 270/271/8
f 273/273/15 275/274/15 274/275/15
f 275/274/15 276/276/15 274/275/15
f 277/277/16 279/278/16 278/279/16
f 279/278/16 280/280/16 278/279/16
f 281/281/17 283/282/17 282/283/17
f 283/282/17 284/284/17 282/283/17
f 285/285/18 287/286/18 286/287/18
f 287/286/18 288/288/18 286/287/18
f 289/289/7 291/290/7 290/291/7
f 291/290/7 292/292/7 290/291/7
f 293/293/8 295/294/8 294/295/8
f 295/294/8 296/296/8 294/295/8
f 297/297/19 299/298/19 298/299/19
f 299/298/19 300/300/19 298/299/19
f 301/301/20 303/302/20 302/303/20
f 303/302/20 304/304/20 302/303/20
f 305/305/21 307/306/21 306/307/21
f 307/306/21 308/308/21 306/307/21
f 309/309/22 311/310/22 310/311/22
f 311/310/22 312/312/22 310/311/22
