# Blender 5.0.1
# www.blender.org
mtllib shield_enemy.mtl
o 球
v 0.000000 0.250000 -0.091346
v 0.000000 -0.250000 -0.091346
v -0.048773 0.245196 -0.091346
v -0.095671 0.230970 -0.091346
v -0.138893 0.207867 -0.091346
v -0.176777 0.176777 -0.091346
v -0.207867 0.138893 -0.091346
v -0.230970 0.095671 -0.091346
v -0.245196 0.048773 -0.091346
v -0.250000 0.000000 -0.091346
v -0.245196 -0.048773 -0.091346
v -0.230970 -0.095671 -0.091346
v -0.207867 -0.138893 -0.091346
v -0.176777 -0.176777 -0.091346
v -0.138893 -0.207867 -0.091346
v -0.095671 -0.230970 -0.091346
v -0.048773 -0.245196 -0.091346
v -0.047835 0.245196 -0.100861
v -0.093833 0.230970 -0.110011
v -0.136224 0.207867 -0.118443
v -0.173380 0.176777 -0.125834
v -0.203873 0.138893 -0.131899
v -0.226532 0.095671 -0.136406
v -0.240485 0.048773 -0.139182
v -0.245196 0.000000 -0.140119
v -0.240485 -0.048773 -0.139182
v -0.226532 -0.095671 -0.136406
v -0.203873 -0.138893 -0.131899
v -0.173380 -0.176777 -0.125834
v -0.136224 -0.207867 -0.118443
v -0.093833 -0.230970 -0.110011
v -0.047835 -0.245196 -0.100861
v -0.045060 0.245196 -0.110011
v -0.088388 0.230970 -0.127958
v -0.128320 0.207867 -0.144498
v -0.163320 0.176777 -0.158996
v -0.192044 0.138893 -0.170894
v -0.213388 0.095671 -0.179735
v -0.226532 0.048773 -0.185179
v -0.230970 0.000000 -0.187017
v -0.226532 -0.048773 -0.185179
v -0.213388 -0.095671 -0.179735
v -0.192044 -0.138893 -0.170894
v -0.163320 -0.176777 -0.158996
v -0.128320 -0.207867 -0.144498
v -0.088388 -0.230970 -0.127958
v -0.045060 -0.245196 -0.110011
v -0.040553 0.245196 -0.118443
v -0.079547 0.230970 -0.144498
v -0.115485 0.207867 -0.168511
v -0.146984 0.176777 -0.189558
v -0.172835 0.138893 -0.206831
v -0.192044 0.095671 -0.219666
v -0.203873 0.048773 -0.227570
v -0.207867 0.000000 -0.230239
v -0.203873 -0.048773 -0.227570
v -0.192044 -0.095671 -0.219666
v -0.172835 -0.138893 -0.206831
v -0.146984 -0.176777 -0.189558
v -0.115485 -0.207867 -0.168511
v -0.079547 -0.230970 -0.144498
v -0.040553 -0.245196 -0.118443
v -0.034487 0.245196 -0.125834
v -0.067649 0.230970 -0.158996
v -0.098212 0.207867 -0.189558
v -0.125000 0.176777 -0.216346
v -0.146984 0.138893 -0.238331
v -0.163320 0.095671 -0.254667
v -0.173380 0.048773 -0.264726
v -0.176777 0.000000 -0.268123
v -0.173380 -0.048773 -0.264726
v -0.163320 -0.095671 -0.254667
v -0.146984 -0.138893 -0.238331
v -0.125000 -0.176777 -0.216346
v -0.098212 -0.207867 -0.189558
v -0.067649 -0.230970 -0.158996
v -0.034487 -0.245196 -0.125834
v -0.027097 0.245196 -0.131899
v -0.053152 0.230970 -0.170894
v -0.077165 0.207867 -0.206831
v -0.098212 0.176777 -0.238331
v -0.115485 0.138893 -0.264182
v -0.128320 0.095671 -0.283391
v -0.136224 0.048773 -0.295220
v -0.138892 0.000000 -0.299214
v -0.136224 -0.048773 -0.295220
v -0.128320 -0.095671 -0.283391
v -0.115485 -0.138893 -0.264182
v -0.098212 -0.176777 -0.238331
v -0.077165 -0.207867 -0.206831
v -0.053152 -0.230970 -0.170894
v -0.027097 -0.245196 -0.131899
v -0.018664 0.245196 -0.136406
v -0.036612 0.230970 -0.179735
v -0.053152 0.207867 -0.219666
v -0.067649 0.176777 -0.254667
v -0.079547 0.138893 -0.283391
v -0.088388 0.095671 -0.304735
v -0.093833 0.048773 -0.317878
v -0.095671 0.000000 -0.322316
v -0.093833 -0.048773 -0.317878
v -0.088388 -0.095671 -0.304735
v -0.079547 -0.138893 -0.283391
v -0.067649 -0.176777 -0.254667
v -0.053152 -0.207867 -0.219666
v -0.036612 -0.230970 -0.179735
v -0.018664 -0.245196 -0.136406
v -0.009515 0.245196 -0.139182
v -0.018664 0.230970 -0.185179
v -0.027097 0.207867 -0.227570
v -0.034487 0.176777 -0.264726
v -0.040553 0.138893 -0.295220
v -0.045060 0.095671 -0.317878
v -0.047835 0.048773 -0.331831
v -0.048772 0.000000 -0.336543
v -0.047835 -0.048773 -0.331831
v -0.045060 -0.095671 -0.317878
v -0.040553 -0.138893 -0.295220
v -0.034487 -0.176777 -0.264726
v -0.027097 -0.207867 -0.227570
v -0.018664 -0.230970 -0.185179
v -0.009515 -0.245196 -0.139182
v 0.000000 0.245196 -0.140119
v 0.000000 0.230970 -0.187017
v 0.000000 0.207867 -0.230239
v 0.000000 0.176777 -0.268123
v 0.000000 0.138893 -0.299214
v -0.000000 0.095671 -0.322316
v 0.000000 0.048773 -0.336543
v 0.000000 0.000000 -0.341346
v 0.000000 -0.048773 -0.336543
v -0.000000 -0.095671 -0.322316
v 0.000000 -0.138893 -0.299214
v 0.000000 -0.176777 -0.268123
v 0.000000 -0.207867 -0.230239
v 0.000000 -0.230970 -0.187017
v 0.000000 -0.245196 -0.140119
v 0.009515 0.245196 -0.139182
v 0.018664 0.230970 -0.185179
v 0.027097 0.207867 -0.227570
v 0.034487 0.176777 -0.264726
v 0.040553 0.138893 -0.295220
v 0.045060 0.095671 -0.317878
v 0.047835 0.048773 -0.331831
v 0.048773 0.000000 -0.336543
v 0.047835 -0.048773 -0.331831
v 0.045060 -0.095671 -0.317878
v 0.040553 -0.138893 -0.295220
v 0.034487 -0.176777 -0.264726
v 0.027097 -0.207867 -0.227570
v 0.018664 -0.230970 -0.185179
v 0.009515 -0.245196 -0.139182
v 0.018664 0.245196 -0.136406
v 0.036612 0.230970 -0.179735
v 0.053152 0.207867 -0.219666
v 0.067649 0.176777 -0.254667
v 0.079547 0.138893 -0.283391
v 0.088388 0.095671 -0.304735
v 0.093833 0.048773 -0.317878
v 0.095671 0.000000 -0.322316
v 0.093833 -0.048773 -0.317878
v 0.088388 -0.095671 -0.304735
v 0.079547 -0.138893 -0.283391
v 0.067649 -0.176777 -0.254667
v 0.053152 -0.207867 -0.219666
v 0.036612 -0.230970 -0.179735
v 0.018664 -0.245196 -0.136406
v 0.027097 0.245196 -0.131899
v 0.053152 0.230970 -0.170894
v 0.077165 0.207867 -0.206831
v 0.098212 0.176777 -0.238331
v 0.115485 0.138893 -0.264182
v 0.128320 0.095671 -0.283391
v 0.136224 0.048773 -0.295220
v 0.138893 0.000000 -0.299214
v 0.136224 -0.048773 -0.295220
v 0.128320 -0.095671 -0.283391
v 0.115485 -0.138893 -0.264182
v 0.098212 -0.176777 -0.238331
v 0.077165 -0.207867 -0.206831
v 0.053152 -0.230970 -0.170894
v 0.027097 -0.245196 -0.131899
v 0.034487 0.245196 -0.125834
v 0.067649 0.230970 -0.158996
v 0.098212 0.207867 -0.189558
v 0.125000 0.176777 -0.216346
v 0.146984 0.138893 -0.238331
v 0.163320 0.095671 -0.254667
v 0.173380 0.048773 -0.264726
v 0.176777 0.000000 -0.268123
v 0.173380 -0.048773 -0.264726
v 0.163320 -0.095671 -0.254667
v 0.146984 -0.138893 -0.238331
v 0.125000 -0.176777 -0.216346
v 0.098212 -0.207867 -0.189558
v 0.067649 -0.230970 -0.158996
v 0.034487 -0.245196 -0.125834
v 0.040553 0.245196 -0.118443
v 0.079547 0.230970 -0.144498
v 0.115485 0.207867 -0.168511
v 0.146984 0.176777 -0.189558
v 0.172835 0.138893 -0.206831
v 0.192044 0.095671 -0.219666
v 0.203873 0.048773 -0.227570
v 0.207867 0.000000 -0.230239
v 0.203873 -0.048773 -0.227570
v 0.192044 -0.095671 -0.219666
v 0.172835 -0.138893 -0.206831
v 0.146984 -0.176777 -0.189558
v 0.115485 -0.207867 -0.168511
v 0.079547 -0.230970 -0.144498
v 0.040553 -0.245196 -0.118443
v 0.045060 0.245196 -0.110011
v 0.088388 0.230970 -0.127958
v 0.128320 0.207867 -0.144498
v 0.163320 0.176777 -0.158996
v 0.192044 0.138893 -0.170894
v 0.213388 0.095671 -0.179735
v 0.226532 0.048773 -0.185179
v 0.230970 0.000000 -0.187017
v 0.226532 -0.048773 -0.185179
v 0.213388 -0.095671 -0.179735
v 0.192044 -0.138893 -0.170894
v 0.163320 -0.176777 -0.158996
v 0.128320 -0.207867 -0.144498
v 0.088388 -0.230970 -0.127958
v 0.045060 -0.245196 -0.110011
v 0.047835 0.245196 -0.100861
v 0.093833 0.230970 -0.110011
v 0.136224 0.207867 -0.118443
v 0.173380 0.176777 -0.125834
v 0.203873 0.138893 -0.131899
v 0.226532 0.095671 -0.136406
v 0.240485 0.048773 -0.139182
v 0.245196 0.000000 -0.140119
v 0.240485 -0.048773 -0.139182
v 0.226532 -0.095671 -0.136406
v 0.203873 -0.138893 -0.131899
v 0.173380 -0.176777 -0.125834
v 0.136224 -0.207867 -0.118443
v 0.093833 -0.230970 -0.110011
v 0.047835 -0.245196 -0.100861
v 0.048773 0.245196 -0.091346
v 0.095671 0.230970 -0.091346
v 0.138892 0.207867 -0.091346
v 0.176777 0.176777 -0.091346
v 0.207867 0.138893 -0.091346
v 0.230970 0.095671 -0.091346
v 0.245196 0.048773 -0.091346
v 0.250000 0.000000 -0.091346
v 0.245196 -0.048773 -0.091346
v 0.230970 -0.095671 -0.091346
v 0.207867 -0.138893 -0.091346
v 0.176777 -0.176777 -0.091346
v 0.138892 -0.207867 -0.091346
v 0.095671 -0.230970 -0.091346
v 0.048773 -0.245196 -0.091346
v 0.500000 -0.500000 -0.100000
v 0.313583 0.500000 -0.100000
v 0.500000 -0.500000 0.100000
v 0.313583 0.500000 0.100000
v -0.500000 -0.500000 -0.100000
v -0.313583 0.500000 -0.100000
v -0.500000 -0.500000 0.100000
v -0.313583 0.500000 0.100000
v 0.000000 0.569166 -0.100000
v 0.000000 0.569166 0.100000
vn -0.9904 -0.0975 -0.0976
vn -0.2902 0.9565 -0.0286
vn -0.9527 -0.2890 -0.0938
vn -0.4709 0.8810 -0.0464
vn -0.8786 -0.4696 -0.0865
vn -0.6332 0.7715 -0.0624
vn -0.7708 -0.6326 -0.0759
vn -0.7708 0.6326 -0.0759
vn -0.6332 -0.7715 -0.0624
vn -0.8786 0.4696 -0.0865
vn -0.4709 -0.8810 -0.0464
vn -0.9527 0.2890 -0.0938
vn -0.2902 -0.9565 -0.0286
vn -0.9904 0.0975 -0.0976
vn -0.0980 0.9951 -0.0097
vn -0.0980 -0.9951 -0.0097
vn -0.6088 -0.7715 -0.1847
vn -0.8448 0.4696 -0.2563
vn -0.4528 -0.8810 -0.1374
vn -0.9161 0.2890 -0.2779
vn -0.2790 -0.9565 -0.0846
vn -0.9524 0.0975 -0.2889
vn -0.0942 0.9951 -0.0286
vn -0.0942 -0.9951 -0.0286
vn -0.9524 -0.0975 -0.2889
vn -0.2790 0.9565 -0.0846
vn -0.9161 -0.2890 -0.2779
vn -0.4528 0.8810 -0.1374
vn -0.8448 -0.4696 -0.2563
vn -0.6088 0.7715 -0.1847
vn -0.7412 -0.6326 -0.2248
vn -0.7412 0.6326 -0.2248
vn -0.2571 0.9565 -0.1374
vn -0.8443 -0.2890 -0.4513
vn -0.4173 0.8810 -0.2231
vn -0.7786 -0.4696 -0.4162
vn -0.5611 0.7715 -0.2999
vn -0.6831 -0.6326 -0.3651
vn -0.6831 0.6326 -0.3651
vn -0.5611 -0.7715 -0.2999
vn -0.7786 0.4696 -0.4162
vn -0.4173 -0.8810 -0.2231
vn -0.8443 0.2890 -0.4513
vn -0.2571 -0.9565 -0.1374
vn -0.8777 0.0975 -0.4691
vn -0.0869 0.9951 -0.0464
vn -0.0869 -0.9951 -0.0464
vn -0.8777 -0.0975 -0.4691
vn -0.6825 0.4696 -0.5601
vn -0.3658 -0.8810 -0.3002
vn -0.7400 0.2890 -0.6073
vn -0.2254 -0.9565 -0.1850
vn -0.7693 0.0975 -0.6314
vn -0.0761 0.9951 -0.0625
vn -0.0761 -0.9951 -0.0625
vn -0.7693 -0.0975 -0.6314
vn -0.2254 0.9565 -0.1850
vn -0.7400 -0.2890 -0.6073
vn -0.3658 0.8810 -0.3002
vn -0.6825 -0.4696 -0.5601
vn -0.4918 0.7715 -0.4036
vn -0.5987 -0.6326 -0.4913
vn -0.5987 0.6326 -0.4913
vn -0.4918 -0.7715 -0.4036
vn -0.6073 -0.2890 -0.7400
vn -0.3002 0.8810 -0.3658
vn -0.5601 -0.4696 -0.6825
vn -0.4036 0.7715 -0.4918
vn -0.4913 -0.6326 -0.5987
vn -0.4913 0.6326 -0.5987
vn -0.4036 -0.7715 -0.4918
vn -0.5601 0.4696 -0.6825
vn -0.3002 -0.8810 -0.3658
vn -0.6073 0.2890 -0.7400
vn -0.1850 -0.9565 -0.2254
vn -0.6314 0.0975 -0.7693
vn -0.0625 0.9951 -0.0761
vn -0.0625 -0.9951 -0.0761
vn -0.6314 -0.0975 -0.7693
vn -0.1850 0.9565 -0.2254
vn -0.2230 -0.8810 -0.4173
vn -0.4513 0.2890 -0.8443
vn -0.1374 -0.9565 -0.2571
vn -0.4691 0.0975 -0.8777
vn -0.0464 0.9951 -0.0869
vn -0.0464 -0.9951 -0.0869
vn -0.4691 -0.0975 -0.8777
vn -0.1374 0.9565 -0.2571
vn -0.4513 -0.2890 -0.8443
vn -0.2230 0.8810 -0.4173
vn -0.4162 -0.4696 -0.7786
vn -0.2999 0.7715 -0.5611
vn -0.3651 -0.6326 -0.6831
vn -0.3651 0.6326 -0.6831
vn -0.2999 -0.7715 -0.5611
vn -0.4162 0.4696 -0.7786
vn -0.2563 -0.4696 -0.8448
vn -0.1847 0.7715 -0.6088
vn -0.2248 -0.6326 -0.7412
vn -0.2248 0.6326 -0.7412
vn -0.1847 -0.7715 -0.6088
vn -0.2563 0.4696 -0.8448
vn -0.1374 -0.8810 -0.4528
vn -0.2779 0.2890 -0.9161
vn -0.0846 -0.9565 -0.2790
vn -0.2889 0.0975 -0.9524
vn -0.0286 0.9951 -0.0942
vn -0.0286 -0.9951 -0.0942
vn -0.2889 -0.0975 -0.9524
vn -0.0846 0.9565 -0.2790
vn -0.2779 -0.2890 -0.9161
vn -0.1374 0.8810 -0.4528
vn -0.0286 -0.9565 -0.2902
vn -0.0975 0.0975 -0.9904
vn -0.0097 0.9951 -0.0980
vn -0.0097 -0.9951 -0.0980
vn -0.0975 -0.0975 -0.9904
vn -0.0286 0.9565 -0.2902
vn -0.0938 -0.2890 -0.9527
vn -0.0464 0.8810 -0.4709
vn -0.0865 -0.4696 -0.8786
vn -0.0624 0.7715 -0.6332
vn -0.0759 -0.6326 -0.7708
vn -0.0759 0.6326 -0.7708
vn -0.0624 -0.7715 -0.6332
vn -0.0865 0.4696 -0.8786
vn -0.0464 -0.8810 -0.4709
vn -0.0938 0.2890 -0.9527
vn 0.0624 0.7715 -0.6332
vn 0.0759 -0.6326 -0.7708
vn 0.0759 0.6326 -0.7708
vn 0.0624 -0.7715 -0.6332
vn 0.0865 0.4696 -0.8786
vn 0.0464 -0.8810 -0.4709
vn 0.0938 0.2890 -0.9527
vn 0.0286 -0.9565 -0.2902
vn 0.0976 0.0975 -0.9904
vn 0.0097 0.9951 -0.0980
vn 0.0097 -0.9951 -0.0980
vn 0.0976 -0.0975 -0.9904
vn 0.0286 0.9565 -0.2902
vn 0.0938 -0.2890 -0.9527
vn 0.0464 0.8810 -0.4709
vn 0.0865 -0.4696 -0.8786
vn 0.2889 0.0975 -0.9524
vn 0.0286 0.9951 -0.0942
vn 0.0286 -0.9951 -0.0942
vn 0.2889 -0.0975 -0.9524
vn 0.0846 0.9565 -0.2790
vn 0.2779 -0.2890 -0.9161
vn 0.1374 0.8810 -0.4528
vn 0.2563 -0.4696 -0.8448
vn 0.1847 0.7715 -0.6088
vn 0.2248 -0.6326 -0.7412
vn 0.2248 0.6326 -0.7412
vn 0.1847 -0.7715 -0.6088
vn 0.2563 0.4696 -0.8448
vn 0.1374 -0.8810 -0.4528
vn 0.2779 0.2890 -0.9161
vn 0.0846 -0.9565 -0.2790
vn 0.3651 -0.6326 -0.6831
vn 0.3651 0.6326 -0.6831
vn 0.2999 -0.7715 -0.5611
vn 0.4162 0.4696 -0.7786
vn 0.2230 -0.8810 -0.4173
vn 0.4513 0.2890 -0.8443
vn 0.1374 -0.9565 -0.2571
vn 0.4691 0.0975 -0.8777
vn 0.0464 0.9951 -0.0869
vn 0.0464 -0.9951 -0.0869
vn 0.4691 -0.0975 -0.8777
vn 0.1374 0.9565 -0.2571
vn 0.4513 -0.2890 -0.8443
vn 0.2231 0.8810 -0.4173
vn 0.4162 -0.4696 -0.7786
vn 0.2999 0.7715 -0.5611
vn 0.0625 0.9951 -0.0761
vn 0.0625 -0.9951 -0.0761
vn 0.6314 -0.0975 -0.7693
vn 0.1850 0.9565 -0.2254
vn 0.6073 -0.2890 -0.7400
vn 0.3002 0.8810 -0.3658
vn 0.5601 -0.4696 -0.6825
vn 0.4036 0.7715 -0.4918
vn 0.4913 -0.6326 -0.5987
vn 0.4913 0.6326 -0.5987
vn 0.4036 -0.7715 -0.4918
vn 0.5601 0.4696 -0.6825
vn 0.3002 -0.8810 -0.3658
vn 0.6073 0.2890 -0.7400
vn 0.1850 -0.9565 -0.2254
vn 0.6314 0.0975 -0.7693
vn 0.5987 0.6326 -0.4913
vn 0.4918 -0.7715 -0.4036
vn 0.6825 0.4696 -0.5601
vn 0.3658 -0.8810 -0.3002
vn 0.7400 0.2890 -0.6073
vn 0.2254 -0.9565 -0.1850
vn 0.7693 0.0975 -0.6314
vn 0.0761 0.9951 -0.0625
vn 0.0761 -0.9951 -0.0625
vn 0.7693 -0.0975 -0.6314
vn 0.2254 0.9565 -0.1850
vn 0.7400 -0.2890 -0.6073
vn 0.3658 0.8810 -0.3002
vn 0.6825 -0.4696 -0.5601
vn 0.4918 0.7715 -0.4036
vn 0.5987 -0.6326 -0.4913
vn 0.8777 -0.0975 -0.4691
vn 0.2571 0.9565 -0.1374
vn 0.8443 -0.2890 -0.4513
vn 0.4173 0.8810 -0.2230
vn 0.7786 -0.4696 -0.4162
vn 0.5611 0.7715 -0.2999
vn 0.6831 -0.6326 -0.3651
vn 0.6831 0.6326 -0.3651
vn 0.5611 -0.7715 -0.2999
vn 0.7786 0.4696 -0.4162
vn 0.4173 -0.8810 -0.2230
vn 0.8443 0.2890 -0.4513
vn 0.2571 -0.9565 -0.1374
vn 0.8777 0.0975 -0.4691
vn 0.0869 0.9951 -0.0464
vn 0.0869 -0.9951 -0.0464
vn 0.6088 -0.7715 -0.1847
vn 0.8448 0.4696 -0.2563
vn 0.4528 -0.8810 -0.1374
vn 0.9161 0.2890 -0.2779
vn 0.2790 -0.9565 -0.0846
vn 0.9524 0.0975 -0.2889
vn 0.0942 0.9951 -0.0286
vn 0.0942 -0.9951 -0.0286
vn 0.9524 -0.0975 -0.2889
vn 0.2790 0.9565 -0.0846
vn 0.9161 -0.2890 -0.2779
vn 0.4528 0.8810 -0.1374
vn 0.8448 -0.4696 -0.2563
vn 0.6088 0.7715 -0.1847
vn 0.7412 -0.6326 -0.2248
vn 0.7412 0.6326 -0.2248
vn 0.9527 -0.2890 -0.0938
vn 0.4709 0.8810 -0.0464
vn 0.8786 -0.4696 -0.0865
vn 0.6332 0.7715 -0.0624
vn 0.7708 -0.6326 -0.0759
vn 0.7708 0.6326 -0.0759
vn 0.6332 -0.7715 -0.0624
vn 0.8786 0.4696 -0.0865
vn 0.4709 -0.8810 -0.0464
vn 0.9527 0.2890 -0.0938
vn 0.2902 -0.9565 -0.0286
vn 0.9904 0.0975 -0.0975
vn 0.0980 0.9951 -0.0097
vn 0.0980 -0.9951 -0.0097
vn 0.9904 -0.0975 -0.0975
vn 0.2902 0.9565 -0.0286
vn 0.9831 0.1833 -0.0000
vn -0.0000 -0.0000 1.0000
vn -0.9831 0.1833 -0.0000
vn -0.0000 -0.0000 -1.0000
vn -0.0000 -1.0000 -0.0000
vn 0.2154 0.9765 -0.0000
vn -0.2154 0.9765 -0.0000
vt 0.500000 0.437500
vt 0.500000 0.500000
vt 0.468750 0.500000
vt 0.468750 0.437500
vt 0.500000 0.875000
vt 0.500000 0.937500
vt 0.468750 0.937500
vt 0.468750 0.875000
vt 0.500000 0.375000
vt 0.468750 0.375000
vt 0.500000 0.812500
vt 0.468750 0.812500
vt 0.500000 0.312500
vt 0.468750 0.312500
vt 0.500000 0.750000
vt 0.468750 0.750000
vt 0.500000 0.250000
vt 0.468750 0.250000
vt 0.500000 0.687500
vt 0.468750 0.687500
vt 0.500000 0.187500
vt 0.468750 0.187500
vt 0.500000 0.625000
vt 0.468750 0.625000
vt 0.500000 0.125000
vt 0.468750 0.125000
vt 0.500000 0.562500
vt 0.468750 0.562500
vt 0.500000 0.062500
vt 0.468750 0.062500
vt 0.484375 1.000000
vt 0.484375 0.000000
vt 0.437500 0.250000
vt 0.437500 0.187500
vt 0.437500 0.687500
vt 0.437500 0.625000
vt 0.437500 0.125000
vt 0.437500 0.562500
vt 0.437500 0.062500
vt 0.437500 0.500000
vt 0.453125 1.000000
vt 0.437500 0.937500
vt 0.453125 0.000000
vt 0.437500 0.437500
vt 0.437500 0.875000
vt 0.437500 0.375000
vt 0.437500 0.812500
vt 0.437500 0.312500
vt 0.437500 0.750000
vt 0.406250 0.937500
vt 0.406250 0.875000
vt 0.406250 0.437500
vt 0.406250 0.375000
vt 0.406250 0.812500
vt 0.406250 0.312500
vt 0.406250 0.750000
vt 0.406250 0.250000
vt 0.406250 0.687500
vt 0.406250 0.187500
vt 0.406250 0.625000
vt 0.406250 0.125000
vt 0.406250 0.562500
vt 0.406250 0.062500
vt 0.406250 0.500000
vt 0.421875 1.000000
vt 0.421875 0.000000
vt 0.375000 0.687500
vt 0.375000 0.625000
vt 0.375000 0.187500
vt 0.375000 0.125000
vt 0.375000 0.562500
vt 0.375000 0.062500
vt 0.375000 0.500000
vt 0.390625 1.000000
vt 0.375000 0.937500
vt 0.390625 0.000000
vt 0.375000 0.437500
vt 0.375000 0.875000
vt 0.375000 0.375000
vt 0.375000 0.812500
vt 0.375000 0.312500
vt 0.375000 0.750000
vt 0.375000 0.250000
vt 0.343750 0.437500
vt 0.343750 0.375000
vt 0.343750 0.875000
vt 0.343750 0.812500
vt 0.343750 0.312500
vt 0.343750 0.750000
vt 0.343750 0.250000
vt 0.343750 0.687500
vt 0.343750 0.187500
vt 0.343750 0.625000
vt 0.343750 0.125000
vt 0.343750 0.562500
vt 0.343750 0.062500
vt 0.343750 0.500000
vt 0.359375 1.000000
vt 0.343750 0.937500
vt 0.359375 0.000000
vt 0.312500 0.187500
vt 0.312500 0.125000
vt 0.312500 0.625000
vt 0.312500 0.562500
vt 0.312500 0.062500
vt 0.312500 0.500000
vt 0.328125 1.000000
vt 0.312500 0.937500
vt 0.328125 0.000000
vt 0.312500 0.437500
vt 0.312500 0.875000
vt 0.312500 0.375000
vt 0.312500 0.812500
vt 0.312500 0.312500
vt 0.312500 0.750000
vt 0.312500 0.250000
vt 0.312500 0.687500
vt 0.281250 0.375000
vt 0.281250 0.312500
vt 0.281250 0.812500
vt 0.281250 0.750000
vt 0.281250 0.250000
vt 0.281250 0.687500
vt 0.281250 0.187500
vt 0.281250 0.625000
vt 0.281250 0.125000
vt 0.281250 0.562500
vt 0.281250 0.062500
vt 0.281250 0.500000
vt 0.296875 1.000000
vt 0.281250 0.937500
vt 0.296875 0.000000
vt 0.281250 0.437500
vt 0.281250 0.875000
vt 0.250000 0.125000
vt 0.250000 0.062500
vt 0.250000 0.562500
vt 0.250000 0.500000
vt 0.265625 1.000000
vt 0.250000 0.937500
vt 0.265625 0.000000
vt 0.250000 0.437500
vt 0.250000 0.875000
vt 0.250000 0.375000
vt 0.250000 0.812500
vt 0.250000 0.312500
vt 0.250000 0.750000
vt 0.250000 0.250000
vt 0.250000 0.687500
vt 0.250000 0.187500
vt 0.250000 0.625000
vt 0.218750 0.812500
vt 0.218750 0.750000
vt 0.218750 0.312500
vt 0.218750 0.250000
vt 0.218750 0.687500
vt 0.218750 0.187500
vt 0.218750 0.625000
vt 0.218750 0.125000
vt 0.218750 0.562500
vt 0.218750 0.062500
vt 0.218750 0.500000
vt 0.234375 1.000000
vt 0.218750 0.937500
vt 0.234375 0.000000
vt 0.218750 0.437500
vt 0.218750 0.875000
vt 0.218750 0.375000
vt 0.187500 0.562500
vt 0.187500 0.500000
vt 0.203125 1.000000
vt 0.187500 0.937500
vt 0.203125 0.000000
vt 0.187500 0.062500
vt 0.187500 0.437500
vt 0.187500 0.875000
vt 0.187500 0.375000
vt 0.187500 0.812500
vt 0.187500 0.312500
vt 0.187500 0.750000
vt 0.187500 0.250000
vt 0.187500 0.687500
vt 0.187500 0.187500
vt 0.187500 0.625000
vt 0.187500 0.125000
vt 0.156250 0.312500
vt 0.156250 0.250000
vt 0.156250 0.750000
vt 0.156250 0.687500
vt 0.156250 0.187500
vt 0.156250 0.625000
vt 0.156250 0.125000
vt 0.156250 0.562500
vt 0.156250 0.062500
vt 0.156250 0.500000
vt 0.171875 1.000000
vt 0.156250 0.937500
vt 0.171875 0.000000
vt 0.156250 0.437500
vt 0.156250 0.875000
vt 0.156250 0.375000
vt 0.156250 0.812500
vt 0.140625 1.000000
vt 0.125000 0.937500
vt 0.140625 0.000000
vt 0.125000 0.062500
vt 0.125000 0.500000
vt 0.125000 0.437500
vt 0.125000 0.875000
vt 0.125000 0.375000
vt 0.125000 0.812500
vt 0.125000 0.312500
vt 0.125000 0.750000
vt 0.125000 0.250000
vt 0.125000 0.687500
vt 0.125000 0.187500
vt 0.125000 0.625000
vt 0.125000 0.125000
vt 0.125000 0.562500
vt 0.093750 0.750000
vt 0.093750 0.687500
vt 0.093750 0.250000
vt 0.093750 0.187500
vt 0.093750 0.625000
vt 0.093750 0.125000
vt 0.093750 0.562500
vt 0.093750 0.062500
vt 0.093750 0.500000
vt 0.109375 1.000000
vt 0.093750 0.937500
vt 0.109375 0.000000
vt 0.093750 0.437500
vt 0.093750 0.875000
vt 0.093750 0.375000
vt 0.093750 0.812500
vt 0.093750 0.312500
vt 0.062500 0.500000
vt 0.062500 0.437500
vt 0.062500 0.937500
vt 0.062500 0.875000
vt 0.062500 0.375000
vt 0.062500 0.812500
vt 0.062500 0.312500
vt 0.062500 0.750000
vt 0.062500 0.250000
vt 0.062500 0.687500
vt 0.062500 0.187500
vt 0.062500 0.625000
vt 0.062500 0.125000
vt 0.062500 0.562500
vt 0.062500 0.062500
vt 0.078125 1.000000
vt 0.078125 0.000000
vt 0.031250 0.250000
vt 0.031250 0.187500
vt 0.031250 0.687500
vt 0.031250 0.625000
vt 0.031250 0.125000
vt 0.031250 0.562500
vt 0.031250 0.062500
vt 0.031250 0.500000
vt 0.046875 1.000000
vt 0.031250 0.937500
vt 0.046875 0.000000
vt 0.031250 0.437500
vt 0.031250 0.875000
vt 0.031250 0.375000
vt 0.031250 0.812500
vt 0.031250 0.312500
vt 0.031250 0.750000
vt 0.000000 0.437500
vt 0.000000 0.375000
vt 0.000000 0.875000
vt 0.000000 0.812500
vt 0.000000 0.312500
vt 0.000000 0.750000
vt 0.000000 0.250000
vt 0.000000 0.687500
vt 0.000000 0.187500
vt 0.000000 0.625000
vt 0.000000 0.125000
vt 0.000000 0.562500
vt 0.000000 0.062500
vt 0.000000 0.500000
vt 0.015625 1.000000
vt 0.000000 0.937500
vt 0.015625 0.000000
vt 0.625000 0.000000
vt 0.375000 0.000000
vt 0.625000 0.375000
vt 0.625000 0.500000
vt 0.375000 0.500000
vt 0.375000 0.750000
vt 0.625000 0.875000
vt 0.625000 1.000000
vt 0.375000 1.000000
vt 0.125000 0.750000
vt 0.125000 0.500000
vt 0.750000 0.500000
vt 0.875000 0.750000
vt 0.750000 0.750000
vt 0.625000 0.250000
vt 0.625000 0.750000
vt 0.875000 0.500000
s 0
f 11/1/1 10/2/1 25/3/1 26/4/1
f 4/5/2 3/6/2 18/7/2 19/8/2
f 12/9/3 11/1/3 26/4/3 27/10/3
f 5/11/4 4/5/4 19/8/4 20/12/4
f 13/13/5 12/9/5 27/10/5 28/14/5
f 6/15/6 5/11/6 20/12/6 21/16/6
f 14/17/7 13/13/7 28/14/7 29/18/7
f 7/19/8 6/15/8 21/16/8 22/20/8
f 15/21/9 14/17/9 29/18/9 30/22/9
f 8/23/10 7/19/10 22/20/10 23/24/10
f 16/25/11 15/21/11 30/22/11 31/26/11
f 9/27/12 8/23/12 23/24/12 24/28/12
f 17/29/13 16/25/13 31/26/13 32/30/13
f 10/2/14 9/27/14 24/28/14 25/3/14
f 3/6/15 1/31/15 18/7/15
f 2/32/16 17/29/16 32/30/16
f 30/22/17 29/18/17 44/33/17 45/34/17
f 23/24/18 22/20/18 37/35/18 38/36/18
f 31/26/19 30/22/19 45/34/19 46/37/19
f 24/28/20 23/24/20 38/36/20 39/38/20
f 32/30/21 31/26/21 46/37/21 47/39/21
f 25/3/22 24/28/22 39/38/22 40/40/22
f 18/7/23 1/41/23 33/42/23
f 2/43/24 32/30/24 47/39/24
f 26/4/25 25/3/25 40/40/25 41/44/25
f 19/8/26 18/7/26 33/42/26 34/45/26
f 27/10/27 26/4/27 41/44/27 42/46/27
f 20/12/28 19/8/28 34/45/28 35/47/28
f 28/14/29 27/10/29 42/46/29 43/48/29
f 21/16/30 20/12/30 35/47/30 36/49/30
f 29/18/31 28/14/31 43/48/31 44/33/31
f 22/20/32 21/16/32 36/49/32 37/35/32
f 34/45/33 33/42/33 48/50/33 49/51/33
f 42/46/34 41/44/34 56/52/34 57/53/34
f 35/47/35 34/45/35 49/51/35 50/54/35
f 43/48/36 42/46/36 57/53/36 58/55/36
f 36/49/37 35/47/37 50/54/37 51/56/37
f 44/33/38 43/48/38 58/55/38 59/57/38
f 37/35/39 36/49/39 51/56/39 52/58/39
f 45/34/40 44/33/40 59/57/40 60/59/40
f 38/36/41 37/35/41 52/58/41 53/60/41
f 46/37/42 45/34/42 60/59/42 61/61/42
f 39/38/43 38/36/43 53/60/43 54/62/43
f 47/39/44 46/37/44 61/61/44 62/63/44
f 40/40/45 39/38/45 54/62/45 55/64/45
f 33/42/46 1/65/46 48/50/46
f 2/66/47 47/39/47 62/63/47
f 41/44/48 40/40/48 55/64/48 56/52/48
f 53/60/49 52/58/49 67/67/49 68/68/49
f 61/61/50 60/59/50 75/69/50 76/70/50
f 54/62/51 53/60/51 68/68/51 69/71/51
f 62/63/52 61/61/52 76/70/52 77/72/52
f 55/64/53 54/62/53 69/71/53 70/73/53
f 48/50/54 1/74/54 63/75/54
f 2/76/55 62/63/55 77/72/55
f 56/52/56 55/64/56 70/73/56 71/77/56
f 49/51/57 48/50/57 63/75/57 64/78/57
f 57/53/58 56/52/58 71/77/58 72/79/58
f 50/54/59 49/51/59 64/78/59 65/80/59
f 58/55/60 57/53/60 72/79/60 73/81/60
f 51/56/61 50/54/61 65/80/61 66/82/61
f 59/57/62 58/55/62 73/81/62 74/83/62
f 52/58/63 51/56/63 66/82/63 67/67/63
f 60/59/64 59/57/64 74/83/64 75/69/64
f 72/79/65 71/77/65 86/84/65 87/85/65
f 65/80/66 64/78/66 79/86/66 80/87/66
f 73/81/67 72/79/67 87/85/67 88/88/67
f 66/82/68 65/80/68 80/87/68 81/89/68
f 74/83/69 73/81/69 88/88/69 89/90/69
f 67/67/70 66/82/70 81/89/70 82/91/70
f 75/69/71 74/83/71 89/90/71 90/92/71
f 68/68/72 67/67/72 82/91/72 83/93/72
f 76/70/73 75/69/73 90/92/73 91/94/73
f 69/71/74 68/68/74 83/93/74 84/95/74
f 77/72/75 76/70/75 91/94/75 92/96/75
f 70/73/76 69/71/76 84/95/76 85/97/76
f 63/75/77 1/98/77 78/99/77
f 2/100/78 77/72/78 92/96/78
f 71/77/79 70/73/79 85/97/79 86/84/79
f 64/78/80 63/75/80 78/99/80 79/86/80
f 91/94/81 90/92/81 105/101/81 106/102/81
f 84/95/82 83/93/82 98/103/82 99/104/82
f 92/96/83 91/94/83 106/102/83 107/105/83
f 85/97/84 84/95/84 99/104/84 100/106/84
f 78/99/85 1/107/85 93/108/85
f 2/109/86 92/96/86 107/105/86
f 86/84/87 85/97/87 100/106/87 101/110/87
f 79/86/88 78/99/88 93/108/88 94/111/88
f 87/85/89 86/84/89 101/110/89 102/112/89
f 80/87/90 79/86/90 94/111/90 95/113/90
f 88/88/91 87/85/91 102/112/91 103/114/91
f 81/89/92 80/87/92 95/113/92 96/115/92
f 89/90/93 88/88/93 103/114/93 104/116/93
f 82/91/94 81/89/94 96/115/94 97/117/94
f 90/92/95 89/90/95 104/116/95 105/101/95
f 83/93/96 82/91/96 97/117/96 98/103/96
f 103/114/97 102/112/97 117/118/97 118/119/97
f 96/115/98 95/113/98 110/120/98 111/121/98
f 104/116/99 103/114/99 118/119/99 119/122/99
f 97/117/100 96/115/100 111/121/100 112/123/100
f 105/101/101 104/116/101 119/122/101 120/124/101
f 98/103/102 97/117/102 112/123/102 113/125/102
f 106/102/103 105/101/103 120/124/103 121/126/103
f 99/104/104 98/103/104 113/125/104 114/127/104
f 107/105/105 106/102/105 121/126/105 122/128/105
f 100/106/106 99/104/106 114/127/106 115/129/106
f 93/108/107 1/130/107 108/131/107
f 2/132/108 107/105/108 122/128/108
f 101/110/109 100/106/109 115/129/109 116/133/109
f 94/111/110 93/108/110 108/131/110 109/134/110
f 102/112/111 101/110/111 116/133/111 117/118/111
f 95/113/112 94/111/112 109/134/112 110/120/112
f 122/128/113 121/126/113 136/135/113 137/136/113
f 115/129/114 114/127/114 129/137/114 130/138/114
f 108/131/115 1/139/115 123/140/115
f 2/141/116 122/128/116 137/136/116
f 116/133/117 115/129/117 130/138/117 131/142/117
f 109/134/118 108/131/118 123/140/118 124/143/118
f 117/118/119 116/133/119 131/142/119 132/144/119
f 110/120/120 109/134/120 124/143/120 125/145/120
f 118/119/121 117/118/121 132/144/121 133/146/121
f 111/121/122 110/120/122 125/145/122 126/147/122
f 119/122/123 118/119/123 133/146/123 134/148/123
f 112/123/124 111/121/124 126/147/124 127/149/124
f 120/124/125 119/122/125 134/148/125 135/150/125
f 113/125/126 112/123/126 127/149/126 128/151/126
f 121/126/127 120/124/127 135/150/127 136/135/127
f 114/127/128 113/125/128 128/151/128 129/137/128
f 126/147/129 125/145/129 140/152/129 141/153/129
f 134/148/130 133/146/130 148/154/130 149/155/130
f 127/149/131 126/147/131 141/153/131 142/156/131
f 135/150/132 134/148/132 149/155/132 150/157/132
f 128/151/133 127/149/133 142/156/133 143/158/133
f 136/135/134 135/150/134 150/157/134 151/159/134
f 129/137/135 128/151/135 143/158/135 144/160/135
f 137/136/136 136/135/136 151/159/136 152/161/136
f 130/138/137 129/137/137 144/160/137 145/162/137
f 123/140/138 1/163/138 138/164/138
f 2/165/139 137/136/139 152/161/139
f 131/142/140 130/138/140 145/162/140 146/166/140
f 124/143/141 123/140/141 138/164/141 139/167/141
f 132/144/142 131/142/142 146/166/142 147/168/142
f 125/145/143 124/143/143 139/167/143 140/152/143
f 133/146/144 132/144/144 147/168/144 148/154/144
f 145/162/145 144/160/145 159/169/145 160/170/145
f 138/164/146 1/171/146 153/172/146
f 2/173/147 152/161/147 167/174/147
f 146/166/148 145/162/148 160/170/148 161/175/148
f 139/167/149 138/164/149 153/172/149 154/176/149
f 147/168/150 146/166/150 161/175/150 162/177/150
f 140/152/151 139/167/151 154/176/151 155/178/151
f 148/154/152 147/168/152 162/177/152 163/179/152
f 141/153/153 140/152/153 155/178/153 156/180/153
f 149/155/154 148/154/154 163/179/154 164/181/154
f 142/156/155 141/153/155 156/180/155 157/182/155
f 150/157/156 149/155/156 164/181/156 165/183/156
f 143/158/157 142/156/157 157/182/157 158/184/157
f 151/159/158 150/157/158 165/183/158 166/185/158
f 144/160/159 143/158/159 158/184/159 159/169/159
f 152/161/160 151/159/160 166/185/160 167/174/160
f 164/181/161 163/179/161 178/186/161 179/187/161
f 157/182/162 156/180/162 171/188/162 172/189/162
f 165/183/163 164/181/163 179/187/163 180/190/163
f 158/184/164 157/182/164 172/189/164 173/191/164
f 166/185/165 165/183/165 180/190/165 181/192/165
f 159/169/166 158/184/166 173/191/166 174/193/166
f 167/174/167 166/185/167 181/192/167 182/194/167
f 160/170/168 159/169/168 174/193/168 175/195/168
f 153/172/169 1/196/169 168/197/169
f 2/198/170 167/174/170 182/194/170
f 161/175/171 160/170/171 175/195/171 176/199/171
f 154/176/172 153/172/172 168/197/172 169/200/172
f 162/177/173 161/175/173 176/199/173 177/201/173
f 155/178/174 154/176/174 169/200/174 170/202/174
f 163/179/175 162/177/175 177/201/175 178/186/175
f 156/180/176 155/178/176 170/202/176 171/188/176
f 168/197/177 1/203/177 183/204/177
f 2/205/178 182/194/178 197/206/178
f 176/199/179 175/195/179 190/207/179 191/208/179
f 169/200/180 168/197/180 183/204/180 184/209/180
f 177/201/181 176/199/181 191/208/181 192/210/181
f 170/202/182 169/200/182 184/209/182 185/211/182
f 178/186/183 177/201/183 192/210/183 193/212/183
f 171/188/184 170/202/184 185/211/184 186/213/184
f 179/187/185 178/186/185 193/212/185 194/214/185
f 172/189/186 171/188/186 186/213/186 187/215/186
f 180/190/187 179/187/187 194/214/187 195/216/187
f 173/191/188 172/189/188 187/215/188 188/217/188
f 181/192/189 180/190/189 195/216/189 196/218/189
f 174/193/190 173/191/190 188/217/190 189/219/190
f 182/194/191 181/192/191 196/218/191 197/206/191
f 175/195/192 174/193/192 189/219/192 190/207/192
f 187/215/193 186/213/193 201/220/193 202/221/193
f 195/216/194 194/214/194 209/222/194 210/223/194
f 188/217/195 187/215/195 202/221/195 203/224/195
f 196/218/196 195/216/196 210/223/196 211/225/196
f 189/219/197 188/217/197 203/224/197 204/226/197
f 197/206/198 196/218/198 211/225/198 212/227/198
f 190/207/199 189/219/199 204/226/199 205/228/199
f 183/204/200 1/229/200 198/230/200
f 2/231/201 197/206/201 212/227/201
f 191/208/202 190/207/202 205/228/202 206/232/202
f 184/209/203 183/204/203 198/230/203 199/233/203
f 192/210/204 191/208/204 206/232/204 207/234/204
f 185/211/205 184/209/205 199/233/205 200/235/205
f 193/212/206 192/210/206 207/234/206 208/236/206
f 186/213/207 185/211/207 200/235/207 201/220/207
f 194/214/208 193/212/208 208/236/208 209/222/208
f 206/232/209 205/228/209 220/237/209 221/238/209
f 199/233/210 198/230/210 213/239/210 214/240/210
f 207/234/211 206/232/211 221/238/211 222/241/211
f 200/235/212 199/233/212 214/240/212 215/242/212
f 208/236/213 207/234/213 222/241/213 223/243/213
f 201/220/214 200/235/214 215/242/214 216/244/214
f 209/222/215 208/236/215 223/243/215 224/245/215
f 202/221/216 201/220/216 216/244/216 217/246/216
f 210/223/217 209/222/217 224/245/217 225/247/217
f 203/224/218 202/221/218 217/246/218 218/248/218
f 211/225/219 210/223/219 225/247/219 226/249/219
f 204/226/220 203/224/220 218/248/220 219/250/220
f 212/227/221 211/225/221 226/249/221 227/251/221
f 205/228/222 204/226/222 219/250/222 220/237/222
f 198/230/223 1/252/223 213/239/223
f 2/253/224 212/227/224 227/251/224
f 225/247/225 224/245/225 239/254/225 240/255/225
f 218/248/226 217/246/226 232/256/226 233/257/226
f 226/249/227 225/247/227 240/255/227 241/258/227
f 219/250/228 218/248/228 233/257/228 234/259/228
f 227/251/229 226/249/229 241/258/229 242/260/229
f 220/237/230 219/250/230 234/259/230 235/261/230
f 213/239/231 1/262/231 228/263/231
f 2/264/232 227/251/232 242/260/232
f 221/238/233 220/237/233 235/261/233 236/265/233
f 214/240/234 213/239/234 228/263/234 229/266/234
f 222/241/235 221/238/235 236/265/235 237/267/235
f 215/242/236 214/240/236 229/266/236 230/268/236
f 223/243/237 222/241/237 237/267/237 238/269/237
f 216/244/238 215/242/238 230/268/238 231/270/238
f 224/245/239 223/243/239 238/269/239 239/254/239
f 217/246/240 216/244/240 231/270/240 232/256/240
f 237/267/241 236/265/241 251/271/241 252/272/241
f 230/268/242 229/266/242 244/273/242 245/274/242
f 238/269/243 237/267/243 252/272/243 253/275/243
f 231/270/244 230/268/244 245/274/244 246/276/244
f 239/254/245 238/269/245 253/275/245 254/277/245
f 232/256/246 231/270/246 246/276/246 247/278/246
f 240/255/247 239/254/247 254/277/247 255/279/247
f 233/257/248 232/256/248 247/278/248 248/280/248
f 241/258/249 240/255/249 255/279/249 256/281/249
f 234/259/250 233/257/250 248/280/250 249/282/250
f 242/260/251 241/258/251 256/281/251 257/283/251
f 235/261/252 234/259/252 249/282/252 250/284/252
f 228/263/253 1/285/253 243/286/253
f 2/287/254 242/260/254 257/283/254
f 236/265/255 235/261/255 250/284/255 251/271/255
f 229/266/256 228/263/256 243/286/256 244/273/256
f 259/288/257 260/83/257 258/289/257
f 267/290/258 265/291/258 264/292/258
f 265/291/259 262/293/259 264/292/259
f 266/294/260 259/295/260 258/296/260
f 264/292/261 258/297/261 260/298/261
f 267/299/262 259/300/262 266/301/262
f 266/301/263 265/291/263 267/299/263
f 259/288/257 261/302/257 260/83/257
f 264/292/258 260/83/258 267/290/258
f 260/83/258 261/302/258 267/290/258
f 265/291/259 263/303/259 262/293/259
f 258/296/260 262/293/260 266/294/260
f 262/293/260 263/303/260 266/294/260
f 264/292/261 262/293/261 258/297/261
f 267/299/262 261/304/262 259/300/262
f 266/301/263 263/303/263 265/291/263
