# Blender v2.93.1 OBJ File: ''
# www.blender.org
mtllib tutorial_wall.mtl
o Cube.001
v -5.000000 -0.000032 200.000000
v -5.000000 0.000032 -200.000000
v -5.000000 10.000032 -200.000000
v -5.000000 9.999968 200.000000
v 5.000000 0.000032 -200.000000
v 5.000000 -0.000032 200.000000
v 5.000000 9.999968 200.000000
v 5.000000 10.000032 -200.000000
vt 0.010640 0.002627
vt 0.010640 1.003147
vt 0.989360 1.003147
vt 0.989360 0.002627
vt 0.010640 0.001379
vt 0.010640 1.001899
vt 0.989360 1.001899
vt 0.989360 0.001379
vn 1.0000 0.0000 0.0000
vn -1.0000 0.0000 0.0000
usemtl Material.001
s 1
f 1/1/1 2/2/1 3/3/1 4/4/1
f 5/5/2 6/6/2 7/7/2 8/8/2
