# Blender v2.93.1 OBJ File: ''
# www.blender.org
mtllib wall.mtl
o 円柱
v 0.000000 0.000000 -75.000000
v 0.000000 20.000000 -75.000000
v 14.631774 0.000000 -73.558891
v 14.631774 20.000000 -73.558891
v 28.701260 0.000000 -69.290962
v 28.701260 20.000000 -69.290962
v 41.667767 0.000000 -62.360218
v 41.667767 20.000000 -62.360218
v 53.033009 0.000000 -53.033009
v 53.033009 20.000000 -53.033009
v 62.360218 0.000000 -41.667767
v 62.360218 20.000000 -41.667767
v 69.290962 0.000000 -28.701258
v 69.290962 20.000000 -28.701258
v 73.558891 0.000000 -14.631777
v 73.558891 20.000000 -14.631777
v 75.000000 0.000000 0.000003
v 75.000000 20.000000 0.000003
v 73.558891 0.000000 14.631774
v 73.558891 20.000000 14.631774
v 69.290970 0.000000 28.701254
v 69.290970 20.000000 28.701254
v 62.360226 0.000000 41.667763
v 62.360226 20.000000 41.667763
v 53.033009 0.000000 53.033009
v 53.033009 20.000000 53.033009
v 41.667763 0.000000 62.360226
v 41.667763 20.000000 62.360226
v 28.701262 0.000000 69.290962
v 28.701262 20.000000 69.290962
v 14.631773 0.000000 73.558899
v 14.631773 20.000000 73.558899
v -0.000007 0.000000 75.000000
v -0.000007 20.000000 75.000000
v -14.631768 0.000000 73.558899
v -14.631768 20.000000 73.558899
v -28.701258 0.000000 69.290962
v -28.701258 20.000000 69.290962
v -41.667774 0.000000 62.360214
v -41.667774 20.000000 62.360214
v -53.033005 0.000000 53.033012
v -53.033005 20.000000 53.033012
v -62.360210 0.000000 41.667782
v -62.360210 20.000000 41.667782
v -69.290962 0.000000 28.701267
v -69.290962 20.000000 28.701267
v -73.558891 0.000000 14.631779
v -73.558891 20.000000 14.631779
v -75.000000 0.000000 -0.000001
v -75.000000 20.000000 -0.000001
v -73.558891 0.000000 -14.631781
v -73.558891 20.000000 -14.631781
v -69.290955 0.000000 -28.701271
v -69.290955 20.000000 -28.701271
v -62.360229 0.000000 -41.667755
v -62.360229 20.000000 -41.667755
v -53.033016 0.000000 -53.033005
v -53.033016 20.000000 -53.033005
v -41.667774 0.000000 -62.360218
v -41.667774 20.000000 -62.360218
v -28.701258 0.000000 -69.290970
v -28.701258 20.000000 -69.290970
v -14.631767 0.000000 -73.558899
v -14.631767 20.000000 -73.558899
vt 1.000000 0.000022
vt 0.968750 0.000022
vt 0.968750 1.000130
vt 1.000000 1.000130
vt 0.937500 0.000022
vt 0.937500 1.000130
vt 0.906250 0.000022
vt 0.906250 1.000130
vt 0.875000 0.000022
vt 0.875000 1.000130
vt 0.843750 0.000022
vt 0.843750 1.000130
vt 0.812500 0.000022
vt 0.812500 1.000130
vt 0.781250 0.000022
vt 0.781250 1.000130
vt 0.750000 0.000022
vt 0.750000 1.000130
vt 0.718750 0.000022
vt 0.718750 1.000130
vt 0.687500 0.000022
vt 0.687500 1.000130
vt 0.656250 0.000022
vt 0.656250 1.000130
vt 0.625000 0.000022
vt 0.625000 1.000130
vt 0.593750 0.000022
vt 0.593750 1.000130
vt 0.562500 0.000022
vt 0.562500 1.000130
vt 0.531250 0.000022
vt 0.531250 1.000130
vt 0.500000 0.000022
vt 0.500000 1.000130
vt 0.468750 0.000022
vt 0.468750 1.000130
vt 0.437500 0.000022
vt 0.437500 1.000130
vt 0.406250 0.000022
vt 0.406250 1.000130
vt 0.375000 0.000022
vt 0.375000 1.000130
vt 0.343750 0.000022
vt 0.343750 1.000130
vt 0.312500 0.000022
vt 0.312500 1.000130
vt 0.281250 0.000022
vt 0.281250 1.000130
vt 0.031250 0.000022
vt 0.000000 0.000022
vt 0.000000 1.000130
vt 0.031250 1.000130
vt 0.250000 0.000022
vt 0.218750 0.000022
vt 0.218750 1.000130
vt 0.250000 1.000130
vt 0.187500 0.000022
vt 0.187500 1.000130
vt 0.156250 0.000022
vt 0.156250 1.000130
vt 0.125000 0.000022
vt 0.125000 1.000130
vt 0.093750 0.000022
vt 0.093750 1.000130
vt 0.062500 0.000022
vt 0.062500 1.000130
vt 0.031250 0.000022
vt 0.031250 1.000130
vt 0.000000 0.000022
vt 0.000000 1.000130
vn -0.0980 0.0000 0.9952
vn -0.2903 0.0000 0.9569
vn -0.4714 0.0000 0.8819
vn -0.6344 0.0000 0.7730
vn -0.7730 0.0000 0.6344
vn -0.8819 0.0000 0.4714
vn -0.9569 0.0000 0.2903
vn -0.9952 0.0000 0.0980
vn -0.9952 0.0000 -0.0980
vn -0.9569 0.0000 -0.2903
vn -0.8819 0.0000 -0.4714
vn -0.7730 0.0000 -0.6344
vn -0.6344 0.0000 -0.7730
vn -0.4714 0.0000 -0.8819
vn -0.2903 0.0000 -0.9569
vn -0.0980 0.0000 -0.9952
vn 0.0980 0.0000 -0.9952
vn 0.2903 0.0000 -0.9569
vn 0.4714 0.0000 -0.8819
vn 0.6344 0.0000 -0.7730
vn 0.7730 0.0000 -0.6344
vn 0.8819 0.0000 -0.4714
vn 0.9569 0.0000 -0.2903
vn 0.9952 0.0000 -0.0980
vn 0.9952 0.0000 0.0980
vn 0.9569 0.0000 0.2903
vn 0.8819 0.0000 0.4714
vn 0.7730 0.0000 0.6344
vn 0.6344 0.0000 0.7730
vn 0.4714 0.0000 0.8819
vn 0.2903 0.0000 0.9569
vn 0.0980 0.0000 0.9952
usemtl マテリアル
s off
f 1/1/1 3/2/1 4/3/1 2/4/1
f 3/2/2 5/5/2 6/6/2 4/3/2
f 5/5/3 7/7/3 8/8/3 6/6/3
f 7/7/4 9/9/4 10/10/4 8/8/4
f 9/9/5 11/11/5 12/12/5 10/10/5
f 11/11/6 13/13/6 14/14/6 12/12/6
f 13/13/7 15/15/7 16/16/7 14/14/7
f 15/15/8 17/17/8 18/18/8 16/16/8
f 17/17/9 19/19/9 20/20/9 18/18/9
f 19/19/10 21/21/10 22/22/10 20/20/10
f 21/21/11 23/23/11 24/24/11 22/22/11
f 23/23/12 25/25/12 26/26/12 24/24/12
f 25/25/13 27/27/13 28/28/13 26/26/13
f 27/27/14 29/29/14 30/30/14 28/28/14
f 29/29/15 31/31/15 32/32/15 30/30/15
f 31/31/16 33/33/16 34/34/16 32/32/16
f 33/33/17 35/35/17 36/36/17 34/34/17
f 35/35/18 37/37/18 38/38/18 36/36/18
f 37/37/19 39/39/19 40/40/19 38/38/19
f 39/39/20 41/41/20 42/42/20 40/40/20
f 41/41/21 43/43/21 44/44/21 42/42/21
f 43/43/22 45/45/22 46/46/22 44/44/22
f 45/45/23 47/47/23 48/48/23 46/46/23
f 47/49/24 49/50/24 50/51/24 48/52/24
f 49/53/25 51/54/25 52/55/25 50/56/25
f 51/54/26 53/57/26 54/58/26 52/55/26
f 53/57/27 55/59/27 56/60/27 54/58/27
f 55/59/28 57/61/28 58/62/28 56/60/28
f 57/61/29 59/63/29 60/64/29 58/62/29
f 59/63/30 61/65/30 62/66/30 60/64/30
f 61/65/31 63/67/31 64/68/31 62/66/31
f 63/67/32 1/69/32 2/70/32 64/68/32
