# Blender v2.93.1 OBJ File: ''
# www.blender.org
mtllib halubaad.mtl
o CubeNormal_Cube.002
v -0.005000 1.427888 0.004182
v 0.005000 1.427888 0.004182
v 0.005000 1.427888 -0.495818
v -0.005000 1.427888 -0.495818
v -0.005000 0.947888 -0.495813
v 0.005000 0.947888 -0.495813
v 0.005000 0.947888 0.004187
v -0.005000 0.947888 0.004187
v -0.050000 1.200000 0.049999
v 0.050000 1.200000 0.049999
v 0.050000 1.200000 -0.050001
v -0.050000 1.200000 -0.050001
v -0.050000 -1.200000 -0.050000
v 0.050000 -1.200000 -0.050000
v 0.050000 -1.200000 0.050000
v -0.050000 -1.200000 0.050000
vt 0.625000 0.500000
vt 0.875000 0.500000
vt 0.875000 0.750000
vt 0.625000 0.750000
vt 0.375000 0.750000
vt 0.625000 1.000000
vt 0.375000 1.000000
vt 0.375000 0.000000
vt 0.625000 0.000000
vt 0.625000 0.250000
vt 0.375000 0.250000
vt 0.125000 0.500000
vt 0.375000 0.500000
vt 0.125000 0.750000
vt 0.625000 0.500000
vt 0.875000 0.500000
vt 0.875000 0.750000
vt 0.625000 0.750000
vt 0.375000 0.750000
vt 0.625000 1.000000
vt 0.375000 1.000000
vt 0.375000 0.000000
vt 0.625000 0.000000
vt 0.625000 0.250000
vt 0.375000 0.250000
vt 0.125000 0.500000
vt 0.375000 0.500000
vt 0.125000 0.750000
vn 0.0000 1.0000 0.0000
vn 0.0000 -0.0000 -1.0000
vn 1.0000 0.0000 0.0000
vn 0.0000 -1.0000 0.0000
vn -1.0000 -0.0000 0.0000
vn 0.0000 0.0000 1.0000
usemtl Material.002
s 1
f 1/1/1 2/2/1 3/3/1 4/4/1
f 5/5/2 4/4/2 3/6/2 6/7/2
f 6/8/3 3/9/3 2/10/3 7/11/3
f 7/12/4 8/13/4 5/5/4 6/14/4
f 8/13/5 1/1/5 4/4/5 5/5/5
f 7/11/6 2/10/6 1/1/6 8/13/6
usemtl Material.001
f 9/15/1 10/16/1 11/17/1 12/18/1
f 13/19/2 12/18/2 11/20/2 14/21/2
f 14/22/3 11/23/3 10/24/3 15/25/3
f 15/26/4 16/27/4 13/19/4 14/28/4
f 16/27/5 9/15/5 12/18/5 13/19/5
f 15/25/6 10/24/6 9/15/6 16/27/6
