# Blender v2.93.1 OBJ File: ''
# www.blender.org
mtllib spike.mtl
o cube.004_Mesh_4
v 0.031250 1.000000 0.031250
v 0.031250 1.000000 -0.031250
v 0.031250 0.750000 0.031250
v 0.031250 0.750000 -0.031250
v -0.031250 1.000000 -0.031250
v -0.031250 1.000000 0.031250
v -0.031250 0.750000 -0.031250
v -0.031250 0.750000 0.031250
v -0.031250 1.000000 -0.031250
v 0.031250 1.000000 -0.031250
v -0.031250 1.000000 0.031250
v 0.031250 1.000000 0.031250
v -0.031250 1.000000 0.031250
v 0.031250 1.000000 0.031250
v -0.031250 0.750000 0.031250
v 0.031250 0.750000 0.031250
v 0.031250 1.000000 -0.031250
v -0.031250 1.000000 -0.031250
v 0.031250 0.750000 -0.031250
v -0.031250 0.750000 -0.031250
v 0.281250 -0.500000 0.281250
v 0.281250 -0.500000 -0.281250
v 0.281250 -1.000000 0.281250
v 0.281250 -1.000000 -0.281250
v -0.281250 -0.500000 -0.281250
v -0.281250 -0.500000 0.281250
v -0.281250 -1.000000 -0.281250
v -0.281250 -1.000000 0.281250
v -0.281250 -0.500000 -0.281250
v 0.281250 -0.500000 -0.281250
v -0.281250 -0.500000 0.281250
v 0.281250 -0.500000 0.281250
v -0.281250 -1.000000 0.281250
v 0.281250 -1.000000 0.281250
v -0.281250 -1.000000 -0.281250
v 0.281250 -1.000000 -0.281250
v -0.281250 -0.500000 0.281250
v 0.281250 -0.500000 0.281250
v -0.281250 -1.000000 0.281250
v 0.281250 -1.000000 0.281250
v 0.281250 -0.500000 -0.281250
v -0.281250 -0.500000 -0.281250
v 0.281250 -1.000000 -0.281250
v -0.281250 -1.000000 -0.281250
v 0.218750 0.000000 0.218750
v 0.218750 0.000000 -0.218750
v 0.218750 -0.500000 0.218750
v 0.218750 -0.500000 -0.218750
v -0.218750 0.000000 -0.218750
v -0.218750 0.000000 0.218750
v -0.218750 -0.500000 -0.218750
v -0.218750 -0.500000 0.218750
v -0.218750 0.000000 -0.218750
v 0.218750 0.000000 -0.218750
v -0.218750 0.000000 0.218750
v 0.218750 0.000000 0.218750
v -0.218750 0.000000 0.218750
v 0.218750 0.000000 0.218750
v -0.218750 -0.500000 0.218750
v 0.218750 -0.500000 0.218750
v 0.218750 0.000000 -0.218750
v -0.218750 0.000000 -0.218750
v 0.218750 -0.500000 -0.218750
v -0.218750 -0.500000 -0.218750
v 0.156250 0.375000 0.156250
v 0.156250 0.375000 -0.156250
v 0.156250 0.000000 0.156250
v 0.156250 0.000000 -0.156250
v -0.156250 0.375000 -0.156250
v -0.156250 0.375000 0.156250
v -0.156250 0.000000 -0.156250
v -0.156250 0.000000 0.156250
v -0.156250 0.375000 -0.156250
v 0.156250 0.375000 -0.156250
v -0.156250 0.375000 0.156250
v 0.156250 0.375000 0.156250
v -0.156250 0.375000 0.156250
v 0.156250 0.375000 0.156250
v -0.156250 0.000000 0.156250
v 0.156250 0.000000 0.156250
v 0.156250 0.375000 -0.156250
v -0.156250 0.375000 -0.156250
v 0.156250 0.000000 -0.156250
v -0.156250 0.000000 -0.156250
v 0.093750 0.750000 0.093750
v 0.093750 0.750000 -0.093750
v 0.093750 0.375000 0.093750
v 0.093750 0.375000 -0.093750
v -0.093750 0.750000 -0.093750
v -0.093750 0.750000 0.093750
v -0.093750 0.375000 -0.093750
v -0.093750 0.375000 0.093750
v -0.093750 0.750000 -0.093750
v 0.093750 0.750000 -0.093750
v -0.093750 0.750000 0.093750
v 0.093750 0.750000 0.093750
v -0.093750 0.750000 0.093750
v 0.093750 0.750000 0.093750
v -0.093750 0.375000 0.093750
v 0.093750 0.375000 0.093750
v 0.093750 0.750000 -0.093750
v -0.093750 0.750000 -0.093750
v 0.093750 0.375000 -0.093750
v -0.093750 0.375000 -0.093750
vt 0.000244 0.484131
vt 0.000244 0.422119
vt 0.015381 0.484131
vt 0.015381 0.422119
vt 0.031494 0.484131
vt 0.031494 0.422119
vt 0.046631 0.484131
vt 0.046631 0.422119
vt 0.031006 0.484619
vt 0.031006 0.499756
vt 0.015869 0.484619
vt 0.015869 0.499756
vt 0.047119 0.484131
vt 0.047119 0.422119
vt 0.062256 0.484131
vt 0.062256 0.422119
vt 0.015869 0.484131
vt 0.015869 0.422119
vt 0.031006 0.484131
vt 0.031006 0.422119
vt 0.000244 0.859131
vt 0.000244 0.734619
vt 0.140381 0.859131
vt 0.140381 0.734619
vt 0.281494 0.859131
vt 0.281494 0.734619
vt 0.421631 0.859131
vt 0.421631 0.734619
vt 0.281006 0.859619
vt 0.281006 0.999756
vt 0.140869 0.859619
vt 0.140869 0.999756
vt 0.421631 0.999756
vt 0.421631 0.859619
vt 0.281494 0.999756
vt 0.281494 0.859619
vt 0.422119 0.859131
vt 0.422119 0.734619
vt 0.562256 0.859131
vt 0.562256 0.734619
vt 0.140869 0.859131
vt 0.140869 0.734619
vt 0.281006 0.859131
vt 0.281006 0.734619
vt 0.000244 0.624756
vt 0.000244 0.500244
vt 0.109131 0.624756
vt 0.109131 0.500244
vt 0.218994 0.624756
vt 0.218994 0.500244
vt 0.327881 0.624756
vt 0.327881 0.500244
vt 0.218506 0.625244
vt 0.218506 0.734131
vt 0.109619 0.625244
vt 0.109619 0.734131
vt 0.328369 0.624756
vt 0.328369 0.500244
vt 0.437256 0.624756
vt 0.437256 0.500244
vt 0.109619 0.624756
vt 0.109619 0.500244
vt 0.218506 0.624756
vt 0.218506 0.500244
vt 0.437744 0.656006
vt 0.437744 0.562744
vt 0.515381 0.656006
vt 0.515381 0.562744
vt 0.593994 0.656006
vt 0.593994 0.562744
vt 0.671631 0.656006
vt 0.671631 0.562744
vt 0.593506 0.656494
vt 0.593506 0.734131
vt 0.515869 0.656494
vt 0.515869 0.734131
vt 0.672119 0.656006
vt 0.672119 0.562744
vt 0.749756 0.656006
vt 0.749756 0.562744
vt 0.515869 0.656006
vt 0.515869 0.562744
vt 0.593506 0.656006
vt 0.593506 0.562744
vt 0.437744 0.515381
vt 0.437744 0.422119
vt 0.484131 0.515381
vt 0.484131 0.422119
vt 0.531494 0.515381
vt 0.531494 0.422119
vt 0.577881 0.515381
vt 0.577881 0.422119
vt 0.531006 0.515869
vt 0.531006 0.562256
vt 0.484619 0.515869
vt 0.484619 0.562256
vt 0.578369 0.515381
vt 0.578369 0.422119
vt 0.624756 0.515381
vt 0.624756 0.422119
vt 0.484619 0.515381
vt 0.484619 0.422119
vt 0.531006 0.515381
vt 0.531006 0.422119
vn 1.0000 0.0000 0.0000
vn -1.0000 0.0000 0.0000
vn 0.0000 1.0000 0.0000
vn 0.0000 0.0000 1.0000
vn 0.0000 0.0000 -1.0000
vn 0.0000 -1.0000 0.0000
usemtl Material_0.001
s off
f 1/1/1 3/2/1 2/3/1
f 3/2/1 4/4/1 2/3/1
f 5/5/2 7/6/2 6/7/2
f 7/6/2 8/8/2 6/7/2
f 9/9/3 11/10/3 10/11/3
f 11/10/3 12/12/3 10/11/3
f 13/13/4 15/14/4 14/15/4
f 15/14/4 16/16/4 14/15/4
f 17/17/5 19/18/5 18/19/5
f 19/18/5 20/20/5 18/19/5
f 21/21/1 23/22/1 22/23/1
f 23/22/1 24/24/1 22/23/1
f 25/25/2 27/26/2 26/27/2
f 27/26/2 28/28/2 26/27/2
f 29/29/3 31/30/3 30/31/3
f 31/30/3 32/32/3 30/31/3
f 33/33/6 35/34/6 34/35/6
f 35/34/6 36/36/6 34/35/6
f 37/37/4 39/38/4 38/39/4
f 39/38/4 40/40/4 38/39/4
f 41/41/5 43/42/5 42/43/5
f 43/42/5 44/44/5 42/43/5
f 45/45/1 47/46/1 46/47/1
f 47/46/1 48/48/1 46/47/1
f 49/49/2 51/50/2 50/51/2
f 51/50/2 52/52/2 50/51/2
f 53/53/3 55/54/3 54/55/3
f 55/54/3 56/56/3 54/55/3
f 57/57/4 59/58/4 58/59/4
f 59/58/4 60/60/4 58/59/4
f 61/61/5 63/62/5 62/63/5
f 63/62/5 64/64/5 62/63/5
f 65/65/1 67/66/1 66/67/1
f 67/66/1 68/68/1 66/67/1
f 69/69/2 71/70/2 70/71/2
f 71/70/2 72/72/2 70/71/2
f 73/73/3 75/74/3 74/75/3
f 75/74/3 76/76/3 74/75/3
f 77/77/4 79/78/4 78/79/4
f 79/78/4 80/80/4 78/79/4
f 81/81/5 83/82/5 82/83/5
f 83/82/5 84/84/5 82/83/5
f 85/85/1 87/86/1 86/87/1
f 87/86/1 88/88/1 86/87/1
f 89/89/2 91/90/2 90/91/2
f 91/90/2 92/92/2 90/91/2
f 93/93/3 95/94/3 94/95/3
f 95/94/3 96/96/3 94/95/3
f 97/97/4 99/98/4 98/99/4
f 99/98/4 100/100/4 98/99/4
f 101/101/5 103/102/5 102/103/5
f 103/102/5 104/104/5 102/103/5
