# Blender v2.93.1 OBJ File: ''
# www.blender.org
mtllib drill_ghost.mtl
o Drill3.004_Mesh_6.004
v 0.062500 1.219000 0.062500
v 0.062500 1.219000 -0.062500
v -0.062500 1.344000 0.062500
v 0.062500 1.344000 -0.062500
v -0.062500 1.344000 -0.062500
v -0.062500 1.219000 -0.062500
v 0.062500 1.344000 0.062500
v -0.062500 1.219000 0.062500
v -0.500000 0.100000 0.500000
v -0.500000 -0.900000 -0.500000
v 0.500000 0.100000 -0.500000
v 0.500000 -0.900000 -0.500000
v -0.500000 -0.900000 0.500000
v -0.500000 0.100000 -0.500000
v 0.500000 0.100000 0.500000
v 0.500000 -0.900000 0.500000
v -0.500000 -1.399000 0.500000
v 0.500000 -1.399000 0.500000
v 0.500000 -1.399000 -0.500000
v -0.500000 -1.399000 -0.500000
v -0.562500 0.099000 -0.562500
v -0.562500 0.099000 0.562500
v 0.562500 0.474000 0.562500
v 0.562500 0.474000 -0.562500
v 0.562500 0.099000 -0.562500
v -0.562500 0.474000 -0.562500
v -0.562500 0.474000 0.562500
v 0.562500 0.099000 0.562500
v -0.437500 0.723000 -0.437500
v -0.437500 0.473000 0.437500
v 0.437500 0.723000 -0.437500
v 0.437500 0.473000 0.437500
v 0.437500 0.473000 -0.437500
v -0.437500 0.473000 -0.437500
v -0.437500 0.723000 0.437500
v 0.437500 0.723000 0.437500
v 0.312500 0.972000 -0.312500
v 0.312500 0.722000 0.312500
v 0.312500 0.972000 0.312500
v -0.312500 0.972000 0.312500
v -0.312500 0.972000 -0.312500
v 0.312500 0.722000 -0.312500
v -0.312500 0.722000 -0.312500
v -0.312500 0.722000 0.312500
v -0.187500 1.220000 -0.187500
v -0.187500 0.970000 -0.187500
v -0.187500 0.970000 0.187500
v 0.187500 1.220000 0.187500
v 0.187500 0.970000 0.187500
v 0.187500 0.970000 -0.187500
v 0.187500 1.220000 -0.187500
v -0.187500 1.220000 0.187500
vt 0.312622 0.546753
vt 0.312622 0.531372
vt 0.328003 0.546753
vt 0.328003 0.531372
vt 0.343872 0.546753
vt 0.343872 0.531372
vt 0.359253 0.546753
vt 0.359253 0.531372
vt 0.343628 0.546997
vt 0.343628 0.562378
vt 0.328247 0.546997
vt 0.328247 0.562378
vt 0.359497 0.546753
vt 0.359497 0.531372
vt 0.374878 0.546753
vt 0.374878 0.531372
vt 0.328247 0.546753
vt 0.328247 0.531372
vt 0.343628 0.546753
vt 0.343628 0.531372
vt 0.000122 0.874878
vt 0.000122 0.750122
vt 0.124878 0.874878
vt 0.124878 0.750122
vt 0.250122 0.874878
vt 0.250122 0.750122
vt 0.374878 0.874878
vt 0.374878 0.750122
vt 0.374878 0.999878
vt 0.374878 0.875122
vt 0.250122 0.999878
vt 0.250122 0.875122
vt 0.375122 0.874878
vt 0.375122 0.750122
vt 0.499878 0.874878
vt 0.499878 0.750122
vt 0.125122 0.874878
vt 0.125122 0.750122
vt 0.249878 0.874878
vt 0.249878 0.750122
vt 0.000122 0.624878
vt 0.000122 0.562622
vt 0.124878 0.624878
vt 0.124878 0.562622
vt 0.250122 0.624878
vt 0.250122 0.562622
vt 0.374878 0.624878
vt 0.374878 0.562622
vt 0.375122 0.624878
vt 0.375122 0.562622
vt 0.499878 0.624878
vt 0.499878 0.562622
vt 0.125122 0.624878
vt 0.125122 0.562622
vt 0.249878 0.624878
vt 0.249878 0.562622
vt 0.000122 0.171753
vt 0.000122 0.125122
vt 0.140503 0.171753
vt 0.140503 0.125122
vt 0.281372 0.171753
vt 0.281372 0.125122
vt 0.421753 0.171753
vt 0.421753 0.125122
vt 0.281128 0.171997
vt 0.281128 0.312378
vt 0.140747 0.171997
vt 0.140747 0.312378
vt 0.421753 0.312378
vt 0.421753 0.171997
vt 0.281372 0.312378
vt 0.281372 0.171997
vt 0.421997 0.171753
vt 0.421997 0.125122
vt 0.562378 0.171753
vt 0.562378 0.125122
vt 0.140747 0.171753
vt 0.140747 0.125122
vt 0.281128 0.171753
vt 0.281128 0.125122
vt 0.000122 0.343628
vt 0.000122 0.312622
vt 0.109253 0.343628
vt 0.109253 0.312622
vt 0.218872 0.343628
vt 0.218872 0.312622
vt 0.328003 0.343628
vt 0.328003 0.312622
vt 0.218628 0.343872
vt 0.218628 0.453003
vt 0.109497 0.343872
vt 0.109497 0.453003
vt 0.328247 0.343628
vt 0.328247 0.312622
vt 0.437378 0.343628
vt 0.437378 0.312622
vt 0.109497 0.343628
vt 0.109497 0.312622
vt 0.218628 0.343628
vt 0.218628 0.312622
vt 0.000122 0.484253
vt 0.000122 0.453247
vt 0.078003 0.484253
vt 0.078003 0.453247
vt 0.156372 0.484253
vt 0.156372 0.453247
vt 0.234253 0.484253
vt 0.234253 0.453247
vt 0.156128 0.484497
vt 0.156128 0.562378
vt 0.078247 0.484497
vt 0.078247 0.562378
vt 0.234497 0.484253
vt 0.234497 0.453247
vt 0.312378 0.484253
vt 0.312378 0.453247
vt 0.078247 0.484253
vt 0.078247 0.453247
vt 0.156128 0.484253
vt 0.156128 0.453247
vt 0.312622 0.484253
vt 0.312622 0.453247
vt 0.359253 0.484253
vt 0.359253 0.453247
vt 0.406372 0.484253
vt 0.406372 0.453247
vt 0.453003 0.484253
vt 0.453003 0.453247
vt 0.406128 0.484497
vt 0.406128 0.531128
vt 0.359497 0.484497
vt 0.359497 0.531128
vt 0.453247 0.484253
vt 0.453247 0.453247
vt 0.499878 0.484253
vt 0.499878 0.453247
vt 0.359497 0.484253
vt 0.359497 0.453247
vt 0.406128 0.484253
vt 0.406128 0.453247
vn -1.0000 0.0000 0.0000
vn 1.0000 0.0000 0.0000
vn 0.0000 1.0000 0.0000
vn 0.0000 0.0000 -1.0000
vn 0.0000 0.0000 1.0000
vn 0.0000 -1.0000 0.0000
usemtl Material_0.004
s off
f 5/1/1 6/2/1 3/3/1
f 6/2/1 8/4/1 3/3/1
f 7/5/2 1/6/2 4/7/2
f 1/6/2 2/8/2 4/7/2
f 7/9/3 4/10/3 3/11/3
f 4/10/3 5/12/3 3/11/3
f 4/13/4 2/14/4 5/15/4
f 2/14/4 6/16/4 5/15/4
f 3/17/5 8/18/5 7/19/5
f 8/18/5 1/20/5 7/19/5
f 14/21/1 10/22/1 9/23/1
f 10/22/1 13/24/1 9/23/1
f 15/25/2 16/26/2 11/27/2
f 16/26/2 12/28/2 11/27/2
f 12/29/6 16/30/6 10/31/6
f 16/30/6 13/32/6 10/31/6
f 11/33/4 12/34/4 14/35/4
f 12/34/4 10/36/4 14/35/4
f 9/37/5 13/38/5 15/39/5
f 13/38/5 16/40/5 15/39/5
f 10/41/1 20/42/1 13/43/1
f 20/42/1 17/44/1 13/43/1
f 16/45/2 18/46/2 12/47/2
f 18/46/2 19/48/2 12/47/2
f 12/49/4 19/50/4 10/51/4
f 19/50/4 20/52/4 10/51/4
f 13/53/5 17/54/5 16/55/5
f 17/54/5 18/56/5 16/55/5
f 26/57/1 21/58/1 27/59/1
f 21/58/1 22/60/1 27/59/1
f 23/61/2 28/62/2 24/63/2
f 28/62/2 25/64/2 24/63/2
f 23/65/3 24/66/3 27/67/3
f 24/66/3 26/68/3 27/67/3
f 25/69/6 28/70/6 21/71/6
f 28/70/6 22/72/6 21/71/6
f 24/73/4 25/74/4 26/75/4
f 25/74/4 21/76/4 26/75/4
f 27/77/5 22/78/5 23/79/5
f 22/78/5 28/80/5 23/79/5
f 29/81/1 34/82/1 35/83/1
f 34/82/1 30/84/1 35/83/1
f 36/85/2 32/86/2 31/87/2
f 32/86/2 33/88/2 31/87/2
f 36/89/3 31/90/3 35/91/3
f 31/90/3 29/92/3 35/91/3
f 31/93/4 33/94/4 29/95/4
f 33/94/4 34/96/4 29/95/4
f 35/97/5 30/98/5 36/99/5
f 30/98/5 32/100/5 36/99/5
f 41/101/1 43/102/1 40/103/1
f 43/102/1 44/104/1 40/103/1
f 39/105/2 38/106/2 37/107/2
f 38/106/2 42/108/2 37/107/2
f 39/109/3 37/110/3 40/111/3
f 37/110/3 41/112/3 40/111/3
f 37/113/4 42/114/4 41/115/4
f 42/114/4 43/116/4 41/115/4
f 40/117/5 44/118/5 39/119/5
f 44/118/5 38/120/5 39/119/5
f 45/121/1 46/122/1 52/123/1
f 46/122/1 47/124/1 52/123/1
f 48/125/2 49/126/2 51/127/2
f 49/126/2 50/128/2 51/127/2
f 48/129/3 51/130/3 52/131/3
f 51/130/3 45/132/3 52/131/3
f 51/133/4 50/134/4 45/135/4
f 50/134/4 46/136/4 45/135/4
f 52/137/5 47/138/5 48/139/5
f 47/138/5 49/140/5 48/139/5
