# Blender v2.93.1 OBJ File: ''
# www.blender.org
mtllib boss_ghost.mtl
o Body.001_Mesh_1
v 1.000000 1.000000 1.000000
v 1.000000 1.000000 -1.000000
v 1.000000 -1.000000 1.000000
v 1.000000 -1.000000 -1.000000
v -1.000000 1.000000 -1.000000
v -1.000000 1.000000 1.000000
v -1.000000 -1.000000 -1.000000
v -1.000000 -1.000000 1.000000
v -1.000000 1.000000 -1.000000
v 1.000000 1.000000 -1.000000
v -1.000000 1.000000 1.000000
v 1.000000 1.000000 1.000000
v -1.000000 -1.000000 1.000000
v 1.000000 -1.000000 1.000000
v -1.000000 -1.000000 -1.000000
v 1.000000 -1.000000 -1.000000
v -1.000000 1.000000 1.000000
v 1.000000 1.000000 1.000000
v -1.000000 -1.000000 1.000000
v 1.000000 -1.000000 1.000000
v 1.000000 1.000000 -1.000000
v -1.000000 1.000000 -1.000000
v 1.000000 -1.000000 -1.000000
v -1.000000 -1.000000 -1.000000
v 1.000000 -1.000000 1.000000
v 1.000000 -1.000000 -1.000000
v 1.000000 -2.000000 1.000000
v 1.000000 -2.000000 -1.000000
v -1.000000 -1.000000 -1.000000
v -1.000000 -1.000000 1.000000
v -1.000000 -2.000000 -1.000000
v -1.000000 -2.000000 1.000000
v -1.000000 -1.000000 1.000000
v 1.000000 -1.000000 1.000000
v -1.000000 -2.000000 1.000000
v 1.000000 -2.000000 1.000000
v 1.000000 -1.000000 -1.000000
v -1.000000 -1.000000 -1.000000
v 1.000000 -2.000000 -1.000000
v -1.000000 -2.000000 -1.000000
v 1.031250 1.031250 1.031250
v 1.031250 1.031250 -1.031250
v 1.031250 -1.031250 1.031250
v 1.031250 -1.031250 -1.031250
v -1.031250 1.031250 -1.031250
v -1.031250 1.031250 1.031250
v -1.031250 -1.031250 -1.031250
v -1.031250 -1.031250 1.031250
v -1.031250 1.031250 -1.031250
v 1.031250 1.031250 -1.031250
v -1.031250 1.031250 1.031250
v 1.031250 1.031250 1.031250
v -1.031250 -1.031250 1.031250
v 1.031250 -1.031250 1.031250
v -1.031250 -1.031250 -1.031250
v 1.031250 -1.031250 -1.031250
v -1.031250 1.031250 1.031250
v 1.031250 1.031250 1.031250
v -1.031250 -1.031250 1.031250
v 1.031250 -1.031250 1.031250
v 1.031250 1.031250 -1.031250
v -1.031250 1.031250 -1.031250
v 1.031250 -1.031250 -1.031250
v -1.031250 -1.031250 -1.031250
v 1.031312 2.031312 1.031312
v 1.031312 2.031312 -1.031312
v 1.031312 0.968688 1.031312
v 1.031312 0.968688 -1.031312
v -1.031312 2.031312 -1.031312
v -1.031312 2.031312 1.031312
v -1.031312 0.968688 -1.031312
v -1.031312 0.968688 1.031312
v -1.031312 2.031312 1.031312
v 1.031312 2.031312 1.031312
v -1.031312 0.968688 1.031312
v 1.031312 0.968688 1.031312
v 1.031312 2.031312 -1.031312
v -1.031312 2.031312 -1.031312
v 1.031312 0.968688 -1.031312
v -1.031312 0.968688 -1.031312
vt 0.000061 0.874939
vt 0.000061 0.750061
vt 0.124939 0.874939
vt 0.124939 0.750061
vt 0.250061 0.874939
vt 0.250061 0.750061
vt 0.374939 0.874939
vt 0.374939 0.750061
vt 0.249939 0.875061
vt 0.249939 0.999939
vt 0.125061 0.875061
vt 0.125061 0.999939
vt 0.374939 0.999939
vt 0.374939 0.875061
vt 0.250061 0.999939
vt 0.250061 0.875061
vt 0.375061 0.874939
vt 0.375061 0.750061
vt 0.499939 0.874939
vt 0.499939 0.750061
vt 0.125061 0.874939
vt 0.125061 0.750061
vt 0.249939 0.874939
vt 0.249939 0.750061
vt 0.000061 0.374939
vt 0.000061 0.312561
vt 0.124939 0.374939
vt 0.124939 0.312561
vt 0.250061 0.374939
vt 0.250061 0.312561
vt 0.374939 0.374939
vt 0.374939 0.312561
vt 0.375061 0.374939
vt 0.375061 0.312561
vt 0.499939 0.374939
vt 0.499939 0.312561
vt 0.125061 0.374939
vt 0.125061 0.312561
vt 0.249939 0.374939
vt 0.249939 0.312561
vt 0.000061 0.624939
vt 0.000061 0.500061
vt 0.124939 0.624939
vt 0.124939 0.500061
vt 0.250061 0.624939
vt 0.250061 0.500061
vt 0.374939 0.624939
vt 0.374939 0.500061
vt 0.249939 0.625061
vt 0.249939 0.749939
vt 0.125061 0.625061
vt 0.125061 0.749939
vt 0.374939 0.749939
vt 0.374939 0.625061
vt 0.250061 0.749939
vt 0.250061 0.625061
vt 0.375061 0.624939
vt 0.375061 0.500061
vt 0.499939 0.624939
vt 0.499939 0.500061
vt 0.125061 0.624939
vt 0.125061 0.500061
vt 0.249939 0.624939
vt 0.249939 0.500061
vt 0.500061 0.874939
vt 0.500061 0.812561
vt 0.624939 0.874939
vt 0.624939 0.812561
vt 0.750061 0.874939
vt 0.750061 0.812561
vt 0.874939 0.874939
vt 0.874939 0.812561
vt 0.875061 0.874939
vt 0.875061 0.812561
vt 0.999939 0.874939
vt 0.999939 0.812561
vt 0.625061 0.874939
vt 0.625061 0.812561
vt 0.749939 0.874939
vt 0.749939 0.812561
vn 1.0000 0.0000 0.0000
vn -1.0000 0.0000 0.0000
vn 0.0000 1.0000 0.0000
vn 0.0000 -1.0000 0.0000
vn 0.0000 0.0000 1.0000
vn 0.0000 0.0000 -1.0000
usemtl Material_0
s off
f 1/1/1 3/2/1 2/3/1
f 3/2/1 4/4/1 2/3/1
f 5/5/2 7/6/2 6/7/2
f 7/6/2 8/8/2 6/7/2
f 9/9/3 11/10/3 10/11/3
f 11/10/3 12/12/3 10/11/3
f 13/13/4 15/14/4 14/15/4
f 15/14/4 16/16/4 14/15/4
f 17/17/5 19/18/5 18/19/5
f 19/18/5 20/20/5 18/19/5
f 21/21/6 23/22/6 22/23/6
f 23/22/6 24/24/6 22/23/6
f 25/25/1 27/26/1 26/27/1
f 27/26/1 28/28/1 26/27/1
f 29/29/2 31/30/2 30/31/2
f 31/30/2 32/32/2 30/31/2
f 33/33/5 35/34/5 34/35/5
f 35/34/5 36/36/5 34/35/5
f 37/37/6 39/38/6 38/39/6
f 39/38/6 40/40/6 38/39/6
f 41/41/1 43/42/1 42/43/1
f 43/42/1 44/44/1 42/43/1
f 45/45/2 47/46/2 46/47/2
f 47/46/2 48/48/2 46/47/2
f 49/49/3 51/50/3 50/51/3
f 51/50/3 52/52/3 50/51/3
f 53/53/4 55/54/4 54/55/4
f 55/54/4 56/56/4 54/55/4
f 57/57/5 59/58/5 58/59/5
f 59/58/5 60/60/5 58/59/5
f 61/61/6 63/62/6 62/63/6
f 63/62/6 64/64/6 62/63/6
f 65/65/1 67/66/1 66/67/1
f 67/66/1 68/68/1 66/67/1
f 69/69/2 71/70/2 70/71/2
f 71/70/2 72/72/2 70/71/2
f 73/73/5 75/74/5 74/75/5
f 75/74/5 76/76/5 74/75/5
f 77/77/6 79/78/6 78/79/6
f 79/78/6 80/80/6 78/79/6
