# Blender v2.93.1 OBJ File: ''
# www.blender.org
mtllib creeking.mtl
o Head.000
v 0.437500 1.160000 -0.250000
v 0.062500 1.160000 -0.250000
v 0.062500 1.347500 -0.250000
v 0.437500 1.347500 -0.250000
v 0.437500 1.160000 0.125000
v 0.437500 1.347500 0.125000
v 0.062500 1.160000 0.125000
v 0.062500 1.347500 0.125000
v 0.437500 0.535000 -0.250000
v 0.062500 0.535000 -0.250000
v 0.062500 1.160000 -0.250000
v 0.437500 1.160000 -0.250000
v 0.437500 0.535000 0.125000
v 0.437500 1.160000 0.125000
v 0.062500 0.535000 0.125000
v 0.062500 1.160000 0.125000
v 0.812500 0.535000 -0.062500
v 0.437500 0.535000 -0.062500
v 0.437500 1.222500 -0.062500
v 0.812500 1.222500 -0.062500
v 0.812500 0.535000 -0.062500
v 0.812500 1.222500 -0.062500
v 0.437500 0.535000 -0.062500
v 0.437500 1.222500 -0.062500
v -0.312482 1.160002 -0.062500
v 0.062518 1.160000 -0.062500
v 0.062513 0.472500 -0.062500
v -0.312487 0.472502 -0.062500
v -0.312482 1.160002 -0.062500
v -0.312487 0.472502 -0.062500
v 0.062518 1.160000 -0.062500
v 0.062513 0.472500 -0.062500
v 0.062500 -0.340000 -0.187500
v -0.312500 -0.340000 -0.187500
v -0.312500 0.472500 -0.187500
v 0.062500 0.472500 -0.187500
v 0.062500 -0.340000 0.125000
v 0.062500 0.472500 0.125000
v -0.312500 -0.340000 0.125000
v -0.312500 0.472500 0.125000
v 0.437500 0.097500 -0.187500
v 0.062500 0.097500 -0.187500
v 0.062500 0.535000 -0.187500
v 0.437500 0.535000 -0.187500
v 0.437500 0.097500 0.125000
v 0.437500 0.535000 0.125000
v 0.062500 0.097500 0.125000
v 0.062500 0.535000 0.125000
v 0.625000 -0.902500 -0.125000
v 0.437500 -0.902500 -0.125000
v 0.437500 0.410000 -0.125000
v 0.625000 0.410000 -0.125000
v 0.625000 -0.902500 0.062500
v 0.625000 0.410000 0.062500
v 0.437500 -0.902500 0.062500
v 0.437500 0.410000 0.062500
v 0.625000 -1.027500 -0.125000
v 0.437500 -1.027500 -0.125000
v 0.437500 -0.902500 -0.125000
v 0.625000 -0.902500 -0.125000
v 0.625000 -1.027500 0.062500
v 0.625000 -0.902500 0.062500
v 0.437500 -1.027500 0.062500
v 0.437500 -0.902500 0.062500
v -0.312500 -0.590000 -0.125000
v -0.500000 -0.590000 -0.125000
v -0.500000 0.597500 -0.125000
v -0.312500 0.597500 -0.125000
v -0.312500 -0.590000 0.062500
v -0.312500 0.597500 0.062500
v -0.500000 -0.590000 0.062500
v -0.500000 0.597500 0.062500
v -0.312500 0.597500 -0.125000
v -0.500000 0.597500 -0.125000
v -0.500000 0.785000 -0.125000
v -0.312500 0.785000 -0.125000
v -0.312500 0.597500 0.062500
v -0.312500 0.785000 0.062500
v -0.500000 0.597500 0.062500
v -0.500000 0.785000 0.062500
v -0.312500 -0.715000 -0.125000
v -0.500000 -0.715000 -0.125000
v -0.500000 -0.590000 -0.125000
v -0.312500 -0.590000 -0.125000
v -0.312500 -0.715000 0.062500
v -0.312500 -0.590000 0.062500
v -0.500000 -0.715000 0.062500
v -0.500000 -0.590000 0.062500
v 0.250000 -1.340000 -0.125000
v 0.062500 -1.340000 -0.125000
v 0.062500 -0.340000 -0.125000
v 0.250000 -0.340000 -0.125000
v 0.250000 -1.340000 0.062500
v 0.250000 -0.340000 0.062500
v 0.062500 -1.340000 0.062500
v 0.062500 -0.340000 0.062500
v 0.250000 -0.340000 -0.125000
v 0.062500 -0.340000 -0.125000
v 0.062500 -0.152500 -0.125000
v 0.250000 -0.152500 -0.125000
v 0.250000 -0.340000 0.062500
v 0.250000 -0.152500 0.062500
v 0.062500 -0.340000 0.062500
v 0.062500 -0.152500 0.062500
v 0.312500 -1.340000 -0.250000
v 0.000000 -1.340000 -0.250000
v 0.000000 -1.340000 -0.250000
v 0.312500 -1.340000 -0.250000
v 0.312500 -1.340000 0.312500
v 0.312500 -1.340000 0.312500
v 0.000000 -1.340000 0.312500
v 0.000000 -1.340000 0.312500
v 0.071225 -1.339962 -0.312500
v -0.241275 -1.339962 -0.312500
v -0.241275 -1.339962 -0.312500
v 0.071225 -1.339962 -0.312500
v 0.071225 -1.339963 0.250000
v 0.071225 -1.339963 0.250000
v -0.241275 -1.339963 0.250000
v -0.241275 -1.339963 0.250000
v 0.008725 -1.339962 -0.125000
v -0.178775 -1.339962 -0.125000
v -0.178775 -0.339962 -0.125000
v 0.008725 -0.339962 -0.125000
v 0.008725 -1.339963 0.062500
v 0.008725 -0.339962 0.062500
v -0.178775 -1.339963 0.062500
v -0.178775 -0.339962 0.062500
vt 0.531250 0.375000
vt 0.625000 0.375000
vt 0.625000 0.421875
vt 0.531250 0.421875
vt 0.437500 0.375000
vt 0.437500 0.421875
vt 0.718750 0.375000
vt 0.812500 0.375000
vt 0.812500 0.421875
vt 0.718750 0.421875
vt 0.625000 0.515625
vt 0.531250 0.515625
vt 0.718750 0.421875
vt 0.625000 0.421875
vt 0.625000 0.515625
vt 0.718750 0.515625
vt 0.093750 0.750000
vt 0.187500 0.750000
vt 0.187500 0.906250
vt 0.093750 0.906250
vt 0.000000 0.750000
vt 0.000000 0.906250
vt 0.281250 0.750000
vt 0.375000 0.750000
vt 0.375000 0.906250
vt 0.281250 0.906250
vt 0.187500 1.000000
vt 0.093750 1.000000
vt 0.281250 0.906250
vt 0.187500 0.906250
vt 0.187500 1.000000
vt 0.281250 1.000000
vt 0.578125 0.609375
vt 0.671875 0.609375
vt 0.671875 0.781250
vt 0.578125 0.781250
vt 0.578125 0.609375
vt 0.578125 0.781250
vt 0.671875 0.609375
vt 0.765625 0.609375
vt 0.765625 0.781250
vt 0.671875 0.781250
vt 0.765625 0.781250
vt 0.671875 0.781250
vt 0.671875 0.781250
vt 0.765625 0.781250
vt 0.578125 0.609375
vt 0.671875 0.609375
vt 0.671875 0.781250
vt 0.578125 0.781250
vt 0.578125 0.609375
vt 0.578125 0.781250
vt 0.671875 0.609375
vt 0.765625 0.609375
vt 0.765625 0.781250
vt 0.671875 0.781250
vt 0.765625 0.781250
vt 0.671875 0.781250
vt 0.671875 0.781250
vt 0.765625 0.781250
vt 0.078125 0.468750
vt 0.171875 0.468750
vt 0.171875 0.671875
vt 0.078125 0.671875
vt 0.000000 0.468750
vt 0.000000 0.671875
vt 0.250000 0.468750
vt 0.343750 0.468750
vt 0.343750 0.671875
vt 0.250000 0.671875
vt 0.171875 0.750000
vt 0.078125 0.750000
vt 0.265625 0.671875
vt 0.171875 0.671875
vt 0.171875 0.750000
vt 0.265625 0.750000
vt 0.453125 0.812500
vt 0.546875 0.812500
vt 0.546875 0.921875
vt 0.453125 0.921875
vt 0.375000 0.812500
vt 0.375000 0.921875
vt 0.625000 0.812500
vt 0.718750 0.812500
vt 0.718750 0.921875
vt 0.625000 0.921875
vt 0.546875 1.000000
vt 0.453125 1.000000
vt 0.640625 0.921875
vt 0.546875 0.921875
vt 0.546875 1.000000
vt 0.640625 1.000000
vt 0.390625 0.421875
vt 0.437500 0.421875
vt 0.437500 0.750000
vt 0.390625 0.750000
vt 0.343750 0.421875
vt 0.343750 0.750000
vt 0.484375 0.421875
vt 0.531250 0.421875
vt 0.531250 0.750000
vt 0.484375 0.750000
vt 0.437500 0.796875
vt 0.390625 0.796875
vt 0.484375 0.750000
vt 0.437500 0.750000
vt 0.437500 0.796875
vt 0.484375 0.796875
vt 0.765625 0.921875
vt 0.812500 0.921875
vt 0.812500 0.953125
vt 0.765625 0.953125
vt 0.718750 0.921875
vt 0.718750 0.953125
vt 0.859375 0.921875
vt 0.906250 0.921875
vt 0.906250 0.953125
vt 0.859375 0.953125
vt 0.812500 1.000000
vt 0.765625 1.000000
vt 0.859375 0.953125
vt 0.812500 0.953125
vt 0.812500 1.000000
vt 0.859375 1.000000
vt 0.046875 0.125000
vt 0.093750 0.125000
vt 0.093750 0.421875
vt 0.046875 0.421875
vt 0.000000 0.125000
vt 0.000000 0.421875
vt 0.140625 0.125000
vt 0.187500 0.125000
vt 0.187500 0.421875
vt 0.140625 0.421875
vt 0.093750 0.468750
vt 0.046875 0.468750
vt 0.140625 0.421875
vt 0.093750 0.421875
vt 0.093750 0.468750
vt 0.140625 0.468750
vt 0.859375 0.703125
vt 0.906250 0.703125
vt 0.906250 0.750000
vt 0.859375 0.750000
vt 0.812500 0.703125
vt 0.812500 0.750000
vt 0.953125 0.703125
vt 1.000000 0.703125
vt 1.000000 0.750000
vt 0.953125 0.750000
vt 0.906250 0.796875
vt 0.859375 0.796875
vt 0.953125 0.750000
vt 0.906250 0.750000
vt 0.906250 0.796875
vt 0.953125 0.796875
vt 0.765625 0.921875
vt 0.812500 0.921875
vt 0.812500 0.953125
vt 0.765625 0.953125
vt 0.718750 0.921875
vt 0.718750 0.953125
vt 0.859375 0.921875
vt 0.906250 0.921875
vt 0.906250 0.953125
vt 0.859375 0.953125
vt 0.812500 1.000000
vt 0.765625 1.000000
vt 0.859375 0.953125
vt 0.812500 0.953125
vt 0.812500 1.000000
vt 0.859375 1.000000
vt 0.515625 0.078125
vt 0.562500 0.078125
vt 0.562500 0.328125
vt 0.515625 0.328125
vt 0.468750 0.078125
vt 0.468750 0.328125
vt 0.609375 0.078125
vt 0.656250 0.078125
vt 0.656250 0.328125
vt 0.609375 0.328125
vt 0.562500 0.375000
vt 0.515625 0.375000
vt 0.609375 0.328125
vt 0.562500 0.328125
vt 0.562500 0.375000
vt 0.609375 0.375000
vt 0.859375 0.703125
vt 0.906250 0.703125
vt 0.906250 0.750000
vt 0.859375 0.750000
vt 0.812500 0.703125
vt 0.812500 0.750000
vt 0.953125 0.703125
vt 1.000000 0.703125
vt 1.000000 0.750000
vt 0.953125 0.750000
vt 0.906250 0.796875
vt 0.859375 0.796875
vt 0.953125 0.750000
vt 0.906250 0.750000
vt 0.906250 0.796875
vt 0.953125 0.796875
vt 0.843750 0.000000
vt 0.921875 0.000000
vt 0.921875 0.000000
vt 0.843750 0.000000
vt 0.703125 0.000000
vt 0.703125 0.000000
vt 1.062500 0.000000
vt 1.140625 0.000000
vt 1.140625 0.000000
vt 1.062500 0.000000
vt 0.921875 0.140625
vt 0.843750 0.140625
vt 1.000000 0.000000
vt 0.921875 0.000000
vt 0.921875 0.140625
vt 1.000000 0.140625
vt 0.843750 0.140625
vt 0.921875 0.140625
vt 0.921875 0.140625
vt 0.843750 0.140625
vt 0.703125 0.140625
vt 0.703125 0.140625
vt 1.062500 0.140625
vt 1.140625 0.140625
vt 1.140625 0.140625
vt 1.062500 0.140625
vt 0.921875 0.281250
vt 0.843750 0.281250
vt 1.000000 0.140625
vt 0.921875 0.140625
vt 0.921875 0.281250
vt 1.000000 0.281250
vt 0.703125 0.078125
vt 0.750000 0.078125
vt 0.750000 0.328125
vt 0.703125 0.328125
vt 0.656250 0.078125
vt 0.656250 0.328125
vt 0.796875 0.078125
vt 0.843750 0.078125
vt 0.843750 0.328125
vt 0.796875 0.328125
vt 0.750000 0.375000
vt 0.703125 0.375000
vt 0.796875 0.328125
vt 0.750000 0.328125
vt 0.750000 0.375000
vt 0.796875 0.375000
vn 0.0000 0.0000 -1.0000
vn 1.0000 0.0000 0.0000
vn 0.0000 -0.0000 1.0000
vn -1.0000 0.0000 0.0000
vn 0.0000 1.0000 0.0000
vn 0.0000 -1.0000 0.0000
vn 0.0000 0.0000 0.0000
usemtl m_51881420-fd18-d827-9578-3e83b715e56b
s 1
f 1/1/1 2/2/1 3/3/1 4/4/1
f 5/5/2 1/1/2 4/4/2 6/6/2
f 7/7/3 5/8/3 6/9/3 8/10/3
f 2/2/4 7/7/4 8/10/4 3/3/4
f 8/11/5 6/12/5 4/4/5 3/3/5
f 2/13/6 1/14/6 5/15/6 7/16/6
f 9/17/1 10/18/1 11/19/1 12/20/1
f 13/21/2 9/17/2 12/20/2 14/22/2
f 15/23/3 13/24/3 14/25/3 16/26/3
f 10/18/4 15/23/4 16/26/4 11/19/4
f 16/27/5 14/28/5 12/20/5 11/19/5
f 10/29/6 9/30/6 13/31/6 15/32/6
f 17/33/1 18/34/1 19/35/1 20/36/1
f 21/37/3 17/33/2 20/36/3 22/38/2
f 23/39/3 21/40/3 22/41/3 24/42/3
f 18/34/3 23/39/4 24/42/3 19/35/4
f 24/42/5 22/38/3 20/36/5 19/35/3
f 18/43/6 17/44/3 21/45/6 23/46/3
f 25/47/1 26/48/1 27/49/1 28/50/1
f 29/51/3 25/47/4 28/50/3 30/52/4
f 31/53/3 29/54/3 30/55/3 32/56/3
f 26/48/3 31/53/2 32/56/3 27/49/2
f 32/56/6 30/52/3 28/50/6 27/49/3
f 26/57/5 25/58/3 29/59/5 31/60/3
f 33/61/1 34/62/1 35/63/1 36/64/1
f 37/65/2 33/61/2 36/64/2 38/66/2
f 39/67/3 37/68/3 38/69/3 40/70/3
f 34/62/4 39/67/4 40/70/4 35/63/4
f 40/71/5 38/72/5 36/64/5 35/63/5
f 34/73/6 33/74/6 37/75/6 39/76/6
f 41/77/1 42/78/1 43/79/1 44/80/1
f 45/81/2 41/77/2 44/80/2 46/82/2
f 47/83/3 45/84/3 46/85/3 48/86/3
f 42/78/4 47/83/4 48/86/4 43/79/4
f 48/87/5 46/88/5 44/80/5 43/79/5
f 42/89/6 41/90/6 45/91/6 47/92/6
f 49/93/1 50/94/1 51/95/1 52/96/1
f 53/97/2 49/93/2 52/96/2 54/98/2
f 55/99/3 53/100/3 54/101/3 56/102/3
f 50/94/4 55/99/4 56/102/4 51/95/4
f 56/103/5 54/104/5 52/96/5 51/95/5
f 50/105/6 49/106/6 53/107/6 55/108/6
f 57/109/1 58/110/1 59/111/1 60/112/1
f 61/113/2 57/109/2 60/112/2 62/114/2
f 63/115/3 61/116/3 62/117/3 64/118/3
f 58/110/4 63/115/4 64/118/4 59/111/4
f 64/119/5 62/120/5 60/112/5 59/111/5
f 58/121/6 57/122/6 61/123/6 63/124/6
f 65/125/1 66/126/1 67/127/1 68/128/1
f 69/129/2 65/125/2 68/128/2 70/130/2
f 71/131/3 69/132/3 70/133/3 72/134/3
f 66/126/4 71/131/4 72/134/4 67/127/4
f 72/135/5 70/136/5 68/128/5 67/127/5
f 66/137/6 65/138/6 69/139/6 71/140/6
f 73/141/1 74/142/1 75/143/1 76/144/1
f 77/145/2 73/141/2 76/144/2 78/146/2
f 79/147/3 77/148/3 78/149/3 80/150/3
f 74/142/4 79/147/4 80/150/4 75/143/4
f 80/151/5 78/152/5 76/144/5 75/143/5
f 74/153/6 73/154/6 77/155/6 79/156/6
f 81/157/1 82/158/1 83/159/1 84/160/1
f 85/161/2 81/157/2 84/160/2 86/162/2
f 87/163/3 85/164/3 86/165/3 88/166/3
f 82/158/4 87/163/4 88/166/4 83/159/4
f 88/167/5 86/168/5 84/160/5 83/159/5
f 82/169/6 81/170/6 85/171/6 87/172/6
f 89/173/1 90/174/1 91/175/1 92/176/1
f 93/177/2 89/173/2 92/176/2 94/178/2
f 95/179/3 93/180/3 94/181/3 96/182/3
f 90/174/4 95/179/4 96/182/4 91/175/4
f 96/183/5 94/184/5 92/176/5 91/175/5
f 90/185/6 89/186/6 93/187/6 95/188/6
f 97/189/1 98/190/1 99/191/1 100/192/1
f 101/193/2 97/189/2 100/192/2 102/194/2
f 103/195/3 101/196/3 102/197/3 104/198/3
f 98/190/4 103/195/4 104/198/4 99/191/4
f 104/199/5 102/200/5 100/192/5 99/191/5
f 98/201/6 97/202/6 101/203/6 103/204/6
f 105/205/1 106/206/1 107/207/1 108/208/1
f 109/209/7 105/205/7 108/208/7 110/210/7
f 111/211/3 109/212/3 110/213/3 112/214/3
f 106/206/7 111/211/7 112/214/7 107/207/7
f 112/215/5 110/216/5 108/208/5 107/207/5
f 106/217/6 105/218/6 109/219/6 111/220/6
f 113/221/1 114/222/1 115/223/1 116/224/1
f 117/225/7 113/221/7 116/224/7 118/226/7
f 119/227/3 117/228/3 118/229/3 120/230/3
f 114/222/7 119/227/7 120/230/7 115/223/7
f 120/231/5 118/232/5 116/224/5 115/223/5
f 114/233/6 113/234/6 117/235/6 119/236/6
f 121/237/1 122/238/1 123/239/1 124/240/1
f 125/241/2 121/237/2 124/240/2 126/242/2
f 127/243/3 125/244/3 126/245/3 128/246/3
f 122/238/4 127/243/4 128/246/4 123/239/4
f 128/247/5 126/248/5 124/240/5 123/239/5
f 122/249/6 121/250/6 125/251/6 127/252/6
