# Blender v2.93.1 OBJ File: ''
# www.blender.org
mtllib spike.mtl
o cube.002_Mesh_2
v 0.031250 1.000000 0.031250
v 0.031250 1.000000 -0.031250
v 0.031250 0.750000 0.031250
v 0.031250 0.750000 -0.031250
v -0.031250 1.000000 -0.031250
v -0.031250 1.000000 0.031250
v -0.031250 0.750000 -0.031250
v -0.031250 0.750000 0.031250
v -0.031250 1.000000 -0.031250
v 0.031250 1.000000 -0.031250
v -0.031250 1.000000 0.031250
v 0.031250 1.000000 0.031250
v -0.031250 0.750000 0.031250
v 0.031250 0.750000 0.031250
v -0.031250 0.750000 -0.031250
v 0.031250 0.750000 -0.031250
v -0.031250 1.000000 0.031250
v 0.031250 1.000000 0.031250
v -0.031250 0.750000 0.031250
v 0.031250 0.750000 0.031250
v 0.031250 1.000000 -0.031250
v -0.031250 1.000000 -0.031250
v 0.031250 0.750000 -0.031250
v -0.031250 0.750000 -0.031250
v 0.156250 0.375000 0.156250
v 0.156250 0.375000 -0.156250
v 0.156250 0.000000 0.156250
v 0.156250 0.000000 -0.156250
v -0.156250 0.375000 -0.156250
v -0.156250 0.375000 0.156250
v -0.156250 0.000000 -0.156250
v -0.156250 0.000000 0.156250
v -0.156250 0.375000 -0.156250
v 0.156250 0.375000 -0.156250
v -0.156250 0.375000 0.156250
v 0.156250 0.375000 0.156250
v -0.156250 0.000000 0.156250
v 0.156250 0.000000 0.156250
v -0.156250 0.000000 -0.156250
v 0.156250 0.000000 -0.156250
v -0.156250 0.375000 0.156250
v 0.156250 0.375000 0.156250
v -0.156250 0.000000 0.156250
v 0.156250 0.000000 0.156250
v 0.156250 0.375000 -0.156250
v -0.156250 0.375000 -0.156250
v 0.156250 0.000000 -0.156250
v -0.156250 0.000000 -0.156250
v 0.093750 0.750000 0.093750
v 0.093750 0.750000 -0.093750
v 0.093750 0.375000 0.093750
v 0.093750 0.375000 -0.093750
v -0.093750 0.750000 -0.093750
v -0.093750 0.750000 0.093750
v -0.093750 0.375000 -0.093750
v -0.093750 0.375000 0.093750
v -0.093750 0.750000 -0.093750
v 0.093750 0.750000 -0.093750
v -0.093750 0.750000 0.093750
v 0.093750 0.750000 0.093750
v -0.093750 0.375000 0.093750
v 0.093750 0.375000 0.093750
v -0.093750 0.375000 -0.093750
v 0.093750 0.375000 -0.093750
v -0.093750 0.750000 0.093750
v 0.093750 0.750000 0.093750
v -0.093750 0.375000 0.093750
v 0.093750 0.375000 0.093750
v 0.093750 0.750000 -0.093750
v -0.093750 0.750000 -0.093750
v 0.093750 0.375000 -0.093750
v -0.093750 0.375000 -0.093750
vt 0.375488 0.624512
vt 0.375488 0.500488
vt 0.405762 0.624512
vt 0.405762 0.500488
vt 0.437988 0.624512
vt 0.437988 0.500488
vt 0.468262 0.624512
vt 0.468262 0.500488
vt 0.437012 0.625488
vt 0.437012 0.655762
vt 0.406738 0.625488
vt 0.406738 0.655762
vt 0.468262 0.655762
vt 0.468262 0.625488
vt 0.437988 0.655762
vt 0.437988 0.625488
vt 0.469238 0.624512
vt 0.469238 0.500488
vt 0.499512 0.624512
vt 0.499512 0.500488
vt 0.406738 0.624512
vt 0.406738 0.500488
vt 0.437012 0.624512
vt 0.437012 0.500488
vt 0.000488 0.843262
vt 0.000488 0.656738
vt 0.155762 0.843262
vt 0.155762 0.656738
vt 0.312988 0.843262
vt 0.312988 0.656738
vt 0.468262 0.843262
vt 0.468262 0.656738
vt 0.312012 0.844238
vt 0.312012 0.999512
vt 0.156738 0.844238
vt 0.156738 0.999512
vt 0.468262 0.999512
vt 0.468262 0.844238
vt 0.312988 0.999512
vt 0.312988 0.844238
vt 0.469238 0.843262
vt 0.469238 0.656738
vt 0.624512 0.843262
vt 0.624512 0.656738
vt 0.156738 0.843262
vt 0.156738 0.656738
vt 0.312012 0.843262
vt 0.312012 0.656738
vt 0.000488 0.562012
vt 0.000488 0.375488
vt 0.093262 0.562012
vt 0.093262 0.375488
vt 0.187988 0.562012
vt 0.187988 0.375488
vt 0.280762 0.562012
vt 0.280762 0.375488
vt 0.187012 0.562988
vt 0.187012 0.655762
vt 0.094238 0.562988
vt 0.094238 0.655762
vt 0.280762 0.655762
vt 0.280762 0.562988
vt 0.187988 0.655762
vt 0.187988 0.562988
vt 0.281738 0.562012
vt 0.281738 0.375488
vt 0.374512 0.562012
vt 0.374512 0.375488
vt 0.094238 0.562012
vt 0.094238 0.375488
vt 0.187012 0.562012
vt 0.187012 0.375488
vn 1.0000 0.0000 0.0000
vn -1.0000 0.0000 0.0000
vn 0.0000 1.0000 0.0000
vn 0.0000 -1.0000 0.0000
vn 0.0000 0.0000 1.0000
vn 0.0000 0.0000 -1.0000
usemtl Material_0
s off
f 1/1/1 3/2/1 2/3/1
f 3/2/1 4/4/1 2/3/1
f 5/5/2 7/6/2 6/7/2
f 7/6/2 8/8/2 6/7/2
f 9/9/3 11/10/3 10/11/3
f 11/10/3 12/12/3 10/11/3
f 13/13/4 15/14/4 14/15/4
f 15/14/4 16/16/4 14/15/4
f 17/17/5 19/18/5 18/19/5
f 19/18/5 20/20/5 18/19/5
f 21/21/6 23/22/6 22/23/6
f 23/22/6 24/24/6 22/23/6
f 25/25/1 27/26/1 26/27/1
f 27/26/1 28/28/1 26/27/1
f 29/29/2 31/30/2 30/31/2
f 31/30/2 32/32/2 30/31/2
f 33/33/3 35/34/3 34/35/3
f 35/34/3 36/36/3 34/35/3
f 37/37/4 39/38/4 38/39/4
f 39/38/4 40/40/4 38/39/4
f 41/41/5 43/42/5 42/43/5
f 43/42/5 44/44/5 42/43/5
f 45/45/6 47/46/6 46/47/6
f 47/46/6 48/48/6 46/47/6
f 49/49/1 51/50/1 50/51/1
f 51/50/1 52/52/1 50/51/1
f 53/53/2 55/54/2 54/55/2
f 55/54/2 56/56/2 54/55/2
f 57/57/3 59/58/3 58/59/3
f 59/58/3 60/60/3 58/59/3
f 61/61/4 63/62/4 62/63/4
f 63/62/4 64/64/4 62/63/4
f 65/65/5 67/66/5 66/67/5
f 67/66/5 68/68/5 66/67/5
f 69/69/6 71/70/6 70/71/6
f 71/70/6 72/72/6 70/71/6
