# Blender 5.0.1
# www.blender.org
mtllib skydome.mtl
o 球
v 0.000000 490.392639 97.545158
v 0.000000 461.939758 191.341721
v 0.000000 415.734802 277.785126
v 0.000000 353.553375 353.553375
v 0.000000 277.785126 415.734802
v 0.000000 191.341721 461.939758
v 0.000000 97.545174 490.392639
v 0.000000 -277.785095 415.734833
v 0.000000 -353.553375 353.553375
v 0.000000 -415.734833 277.785095
v 19.030127 490.392639 95.670860
v 37.328930 461.939758 187.665146
v 54.193199 415.734802 272.447571
v 68.974854 353.553375 346.759949
v 81.105843 277.785126 407.746552
v 90.119980 191.341721 453.063690
v 95.670860 97.545174 480.969849
v 97.545166 -0.000022 490.392639
v 95.670860 -97.545158 480.969849
v 90.119987 -191.341705 453.063721
v 81.105850 -277.785095 407.746582
v 68.974854 -353.553375 346.759949
v 54.193192 -415.734833 272.447540
v 37.328930 -461.939758 187.665161
v 19.030127 -490.392670 95.670853
v 37.328934 490.392639 90.119972
v 73.223320 461.939758 176.776703
v 106.303780 415.734802 256.639954
v 135.299042 353.553375 326.640717
v 159.094818 277.785126 384.088806
v 176.776703 191.341721 426.776672
v 187.665146 97.545174 453.063690
v 191.341736 -0.000022 461.939728
v 187.665146 -97.545158 453.063690
v 176.776718 -191.341705 426.776703
v 159.094849 -277.785095 384.088837
v 135.299042 -353.553375 326.640717
v 106.303764 -415.734833 256.639954
v 73.223328 -461.939758 176.776718
v 37.328930 -490.392670 90.119965
v 54.193207 490.392639 81.105827
v 106.303787 461.939758 159.094818
v 154.329163 415.734802 230.969849
v 196.423767 353.553375 293.968872
v 230.969879 277.785126 345.670776
v 256.639984 191.341721 384.088837
v 272.447571 97.545174 407.746552
v 277.785126 -0.000022 415.734741
v 272.447571 -97.545158 407.746552
v 256.640015 -191.341705 384.088867
v 230.969925 -277.785095 345.670807
v 196.423767 -353.553375 293.968872
v 154.329147 -415.734833 230.969849
v 106.303795 -461.939758 159.094833
v 54.193203 -490.392670 81.105820
v 68.974869 490.392639 68.974831
v 135.299072 461.939758 135.299011
v 196.423767 415.734802 196.423691
v 250.000000 353.553375 249.999985
v 293.968842 277.785126 293.968842
v 326.640717 191.341721 326.640686
v 346.759949 97.545174 346.759918
v 353.553375 -0.000022 353.553284
v 346.759949 -97.545158 346.759918
v 326.640778 -191.341705 326.640717
v 293.968903 -277.785095 293.968842
v 250.000000 -353.553375 249.999985
v 196.423752 -415.734833 196.423691
v 135.299072 -461.939758 135.299026
v 68.974861 -490.392670 68.974823
v 81.105865 490.392639 54.193169
v 159.094879 461.939758 106.303741
v 230.969910 415.734802 154.329086
v 293.968872 353.553375 196.423706
v 345.670807 277.785126 230.969818
v 384.088837 191.341721 256.639954
v 407.746552 97.545174 272.447510
v 415.734772 -0.000022 277.785004
v 407.746552 -97.545158 272.447510
v 384.088928 -191.341705 256.639954
v 345.670837 -277.785095 230.969818
v 293.968872 -353.553375 196.423706
v 230.969894 -415.734833 154.329086
v 159.094879 -461.939758 106.303757
v 81.105858 -490.392670 54.193161
v 90.120003 490.392639 37.328892
v 176.776749 461.939758 73.223274
v 256.639984 415.734802 106.303703
v 326.640717 353.553375 135.298996
v 384.088806 277.785126 159.094757
v 426.776642 191.341721 176.776672
v 453.063660 97.545174 187.665070
v 461.939697 -0.000022 191.341614
v 453.063660 -97.545158 187.665070
v 426.776733 -191.341705 176.776642
v 384.088837 -277.785095 159.094757
v 326.640717 -353.553375 135.298996
v 256.639984 -415.734833 106.303703
v 176.776764 -461.939758 73.223282
v 90.119995 -490.392670 37.328884
v 95.670876 490.392639 19.030087
v 187.665192 461.939758 37.328869
v 272.447540 415.734802 54.193127
v 346.759949 353.553375 68.974823
v 407.746490 277.785126 81.105782
v 453.063660 191.341721 90.119965
v 480.969818 97.545174 95.670807
v 490.392548 -0.000022 97.545067
v 480.969818 -97.545158 95.670807
v 453.063751 -191.341705 90.119911
v 407.746521 -277.785095 81.105774
v 346.759949 -353.553375 68.974823
v 272.447540 -415.734833 54.193127
v 187.665207 -461.939758 37.328880
v 95.670868 -490.392670 19.030081
v 97.545181 490.392639 -0.000034
v 191.341751 461.939758 -0.000060
v 277.785065 415.734802 -0.000057
v 353.553345 353.553375 -0.000023
v 415.734711 277.785126 -0.000046
v 461.939697 191.341721 -0.000008
v 490.392578 97.545174 -0.000046
v 499.999847 -0.000022 -0.000083
v 490.392578 -97.545158 -0.000046
v 461.939789 -191.341705 -0.000075
v 415.734741 -277.785095 -0.000053
v 353.553345 -353.553375 -0.000023
v 277.785065 -415.734833 -0.000057
v 191.341782 -461.939758 -0.000049
v 97.545174 -490.392670 -0.000038
v 95.670876 490.392639 -19.030155
v 187.665176 461.939758 -37.328983
v 272.447510 415.734802 -54.193233
v 346.759918 353.553375 -68.974861
v 407.746460 277.785126 -81.105865
v 453.063629 191.341721 -90.119972
v 480.969788 97.545174 -95.670883
v 490.392456 -0.000022 -97.545212
v 480.969788 -97.545158 -95.670883
v 453.063721 -191.341705 -90.120056
v 407.746490 -277.785095 -81.105881
v 346.759918 -353.553375 -68.974861
v 272.447510 -415.734833 -54.193233
v 187.665207 -461.939758 -37.328979
v 95.670868 -490.392670 -19.030157
v 90.119995 490.392639 -37.328957
v 176.776733 461.939758 -73.223381
v 256.639893 415.734802 -106.303795
v 326.640686 353.553375 -135.299026
v 384.088745 277.785126 -159.094818
v 426.776611 191.341721 -176.776672
v 453.063599 97.545174 -187.665146
v 461.939545 -0.000022 -191.341721
v 453.063599 -97.545158 -187.665146
v 426.776672 -191.341705 -176.776764
v 384.088776 -277.785095 -159.094833
v 326.640686 -353.553375 -135.299026
v 256.639893 -415.734833 -106.303795
v 176.776749 -461.939758 -73.223381
v 90.119987 -490.392670 -37.328957
v 81.105850 490.392639 -54.193230
v 159.094849 461.939758 -106.303841
v 230.969803 415.734802 -154.329147
v 293.968842 353.553375 -196.423737
v 345.670715 277.785126 -230.969849
v 384.088776 191.341721 -256.639954
v 407.746460 97.545174 -272.447540
v 415.734558 -0.000022 -277.785095
v 407.746460 -97.545158 -272.447540
v 384.088837 -191.341705 -256.640045
v 345.670746 -277.785095 -230.969879
v 293.968842 -353.553375 -196.423737
v 230.969803 -415.734833 -154.329147
v 159.094864 -461.939758 -106.303848
v 81.105843 -490.392670 -54.193230
v 68.974854 490.392639 -68.974892
v 135.299042 461.939758 -135.299118
v 196.423660 415.734802 -196.423737
v 249.999985 353.553375 -250.000000
v 293.968781 277.785126 -293.968842
v 326.640656 191.341721 -326.640686
v 346.759857 97.545174 -346.759918
v 353.553131 -0.000022 -353.553314
v 346.759857 -97.545158 -346.759918
v 326.640686 -191.341705 -326.640778
v 293.968811 -277.785095 -293.968842
v 249.999985 -353.553375 -250.000000
v 196.423660 -415.734833 -196.423737
v 135.299057 -461.939758 -135.299118
v 68.974846 -490.392670 -68.974884
v 54.193195 490.392639 -81.105888
v 106.303772 461.939758 -159.094894
v 154.329071 415.734802 -230.969879
v 196.423721 353.553375 -293.968872
v 230.969788 277.785126 -345.670746
v 256.639923 191.341721 -384.088806
v 272.447449 97.545174 -407.746490
v 277.784851 -0.000022 -415.734680
v 272.447449 -97.545158 -407.746490
v 256.639923 -191.341705 -384.088898
v 230.969803 -277.785095 -345.670776
v 196.423721 -353.553375 -293.968872
v 154.329071 -415.734833 -230.969879
v 106.303787 -461.939758 -159.094894
v 54.193188 -490.392670 -81.105873
v 37.328922 490.392639 -90.120026
v 73.223305 461.939758 -176.776764
v 106.303703 415.734802 -256.639954
v 135.299026 353.553375 -326.640717
v 159.094757 277.785126 -384.088745
v 176.776657 191.341721 -426.776611
v 187.665024 97.545174 -453.063599
v 191.341492 -0.000022 -461.939575
v 187.665024 -97.545158 -453.063599
v 176.776627 -191.341705 -426.776703
v 159.094772 -277.785095 -384.088776
v 135.299026 -353.553375 -326.640717
v 106.303703 -415.734833 -256.639954
v 73.223320 -461.939758 -176.776764
v 37.328915 -490.392670 -90.120010
v 19.030119 490.392639 -95.670898
v 37.328911 461.939758 -187.665207
v 54.193142 415.734802 -272.447540
v 68.974861 353.553375 -346.759949
v 81.105797 277.785126 -407.746429
v 90.119965 191.341721 -453.063629
v 95.670784 97.545174 -480.969727
v 97.544975 -0.000022 -490.392395
v 95.670784 -97.545158 -480.969727
v 90.119911 -191.341705 -453.063721
v 81.105789 -277.785095 -407.746460
v 68.974861 -353.553375 -346.759949
v 54.193142 -415.734833 -272.447540
v 37.328926 -461.939758 -187.665207
v 19.030115 -490.392670 -95.670883
v 0.000001 490.392639 -97.545204
v -0.000014 461.939758 -191.341766
v -0.000032 415.734802 -277.785065
v 0.000023 353.553375 -353.553345
v -0.000006 277.785126 -415.734650
v 0.000009 191.341721 -461.939667
v -0.000036 97.545174 -490.392487
v -0.000133 -0.000022 -499.999695
v -0.000036 -97.545158 -490.392487
v -0.000059 -191.341705 -461.939758
v -0.000021 -277.785095 -415.734680
v 0.000023 -353.553375 -353.553345
v -0.000032 -415.734833 -277.785065
v 0.000001 -461.939758 -191.341766
v -0.000001 -490.392670 -97.545189
v -19.030115 490.392639 -95.670898
v -37.328938 461.939758 -187.665192
v -54.193203 415.734802 -272.447510
v -68.974808 353.553375 -346.759918
v -81.105804 277.785126 -407.746399
v -90.119942 191.341721 -453.063599
v -95.670860 97.545174 -480.969696
v -97.545227 -0.000022 -490.392303
v -95.670860 -97.545158 -480.969696
v -90.120026 -191.341705 -453.063690
v -81.105827 -277.785095 -407.746429
v -68.974808 -353.553375 -346.759918
v -54.193203 -415.734833 -272.447510
v -37.328922 -461.939758 -187.665192
v -19.030113 -490.392670 -95.670883
v -37.328915 490.392639 -90.120018
v -73.223328 461.939758 -176.776733
v -106.303757 415.734802 -256.639893
v -135.298965 353.553375 -326.640686
v -159.094742 277.785126 -384.088715
v -176.776611 191.341721 -426.776581
v -187.665085 97.545174 -453.063538
v -191.341705 -0.000022 -461.939392
v -187.665085 -97.545158 -453.063538
v -176.776718 -191.341705 -426.776642
v -159.094772 -277.785095 -384.088745
v -135.298965 -353.553375 -326.640686
v -106.303757 -415.734833 -256.639893
v -73.223312 -461.939758 -176.776733
v -37.328911 -490.392670 -90.120003
v -54.193184 490.392639 -81.105873
v -106.303787 461.939758 -159.094849
v -154.329102 415.734802 -230.969788
v -196.423660 353.553375 -293.968842
v -230.969757 277.785126 -345.670715
v -256.639893 191.341721 -384.088776
v -272.447479 97.545174 -407.746399
v -277.785034 -0.000022 -415.734406
v -272.447479 -97.545158 -407.746399
v -256.639984 -191.341705 -384.088806
v -230.969772 -277.785095 -345.670746
v -196.423660 -353.553375 -293.968842
v -154.329102 -415.734833 -230.969788
v -106.303772 -461.939758 -159.094849
v -54.193176 -490.392670 -81.105858
v -68.974838 490.392639 -68.974876
v -135.299042 461.939758 -135.299042
v -196.423660 415.734802 -196.423645
v -249.999893 353.553375 -249.999969
v -293.968750 277.785126 -293.968811
v -326.640625 191.341721 -326.640656
v -346.759827 97.545174 -346.759796
v -353.553223 -0.000022 -353.553009
v -346.759827 -97.545158 -346.759796
v -326.640717 -191.341705 -326.640656
v -293.968781 -277.785095 -293.968811
v -249.999893 -353.553375 -249.999969
v -196.423660 -415.734833 -196.423645
v -135.299026 -461.939758 -135.299042
v -68.974831 -490.392670 -68.974869
v -81.105827 490.392639 -54.193222
v -159.094818 461.939758 -106.303780
v -230.969772 415.734802 -154.329056
v -293.968811 353.553375 -196.423721
v -345.670685 277.785126 -230.969818
v -384.088745 191.341721 -256.639923
v -407.746399 97.545174 -272.447418
v -415.734558 -0.000022 -277.784729
v -407.746399 -97.545158 -272.447418
v -384.088837 -191.341705 -256.639893
v -345.670715 -277.785095 -230.969818
v -293.968811 -353.553375 -196.423721
v -230.969772 -415.734833 -154.329056
v -159.094818 -461.939758 -106.303780
v -81.105820 -490.392670 -54.193214
v -0.000040 500.000000 -0.000060
v -90.119965 490.392639 -37.328953
v -176.776672 461.939758 -73.223320
v -256.639832 415.734802 -106.303703
v -326.640625 353.553375 -135.299026
v -384.088654 277.785126 -159.094788
v -426.776550 191.341721 -176.776642
v -453.063507 97.545174 -187.665009
v -461.939423 -0.000022 -191.341370
v -453.063507 -97.545158 -187.665009
v -426.776642 -191.341705 -176.776611
v -384.088684 -277.785095 -159.094788
v -326.640625 -353.553375 -135.299026
v -256.639832 -415.734833 -106.303703
v -176.776657 -461.939758 -73.223320
v -90.119949 -490.392670 -37.328945
v -95.670845 490.392639 -19.030149
v -187.665100 461.939758 -37.328938
v -272.447418 415.734802 -54.193157
v -346.759857 353.553375 -68.974869
v -407.746368 277.785126 -81.105827
v -453.063568 191.341721 -90.119949
v -480.969635 97.545174 -95.670776
v -490.392212 -0.000022 -97.544876
v -480.969635 -97.545158 -95.670776
v -453.063629 -191.341705 -90.119904
v -407.746368 -277.785095 -81.105820
v -346.759857 -353.553375 -68.974869
v -272.447418 -415.734833 -54.193157
v -187.665085 -461.939758 -37.328941
v -95.670830 -490.392670 -19.030146
v -97.545143 490.392639 -0.000036
v -191.341675 461.939758 -0.000023
v -277.784943 415.734802 0.000003
v -353.553253 353.553375 -0.000046
v -415.734589 277.785126 -0.000023
v -461.939606 191.341721 -0.000001
v -490.392395 97.545174 0.000036
v -499.999512 -0.000022 0.000193
v -490.392395 -97.545158 0.000036
v -461.939667 -191.341705 0.000059
v -415.734589 -277.785095 -0.000016
v -353.553253 -353.553375 -0.000046
v -277.784943 -415.734833 0.000003
v -191.341660 -461.939758 -0.000031
v -97.545128 -490.392670 -0.000034
v -95.670837 490.392639 19.030077
v -187.665070 461.939758 37.328884
v -272.447388 415.734802 54.193157
v -346.759827 353.553375 68.974777
v -407.746338 277.785126 81.105774
v -453.063538 191.341721 90.119942
v -480.969604 97.545174 95.670853
v -490.392120 -0.000022 97.545258
v -480.969604 -97.545158 95.670853
v -453.063599 -191.341705 90.120018
v -407.746338 -277.785095 81.105782
v -346.759827 -353.553375 68.974777
v -272.447388 -415.734833 54.193157
v -187.665054 -461.939758 37.328876
v -95.670822 -490.392670 19.030075
v -90.119949 490.392639 37.328873
v -176.776611 461.939758 73.223267
v -256.639801 415.734802 106.303696
v -326.640594 353.553375 135.298935
v -384.088654 277.785126 159.094727
v -426.776520 191.341721 176.776611
v -453.063446 97.545174 187.665070
v -461.939240 -0.000022 191.341721
v -453.063446 -97.545158 187.665070
v -426.776550 -191.341705 176.776703
v -384.088654 -277.785095 159.094727
v -326.640594 -353.553375 135.298935
v -256.639801 -415.734833 106.303696
v -176.776611 -461.939758 73.223251
v -90.119934 -490.392670 37.328869
v -81.105804 490.392639 54.193138
v -159.094742 461.939758 106.303703
v -230.969696 415.734802 154.329025
v -293.968811 353.553375 196.423615
v -345.670685 277.785126 230.969742
v -384.088715 191.341721 256.639862
v -407.746307 97.545174 272.447449
v -415.734253 -0.000022 277.785004
v -407.746307 -97.545158 272.447449
v -384.088715 -191.341705 256.639954
v -345.670685 -277.785095 230.969742
v -293.968811 -353.553375 196.423615
v -230.969696 -415.734833 154.329025
v -159.094742 -461.939758 106.303696
v -81.105789 -490.392670 54.193130
v -68.974808 490.392639 68.974792
v -135.298935 461.939758 135.298950
v -196.423538 415.734802 196.423584
v -249.999908 353.553375 249.999863
v -293.968750 277.785126 293.968719
v -326.640594 191.341721 326.640594
v -346.759735 97.545174 346.759796
v -353.552856 -0.000022 353.553162
v -346.759735 -97.545158 346.759796
v -326.640594 -191.341705 326.640656
v -293.968750 -277.785095 293.968719
v -249.999908 -353.553375 249.999863
v -196.423538 -415.734833 196.423584
v -135.298935 -461.939758 135.298935
v -68.974800 -490.392670 68.974777
v -54.193153 490.392639 81.105774
v -106.303688 461.939758 159.094742
v -154.328964 415.734802 230.969696
v -196.423645 353.553375 293.968750
v -230.969742 277.785126 345.670654
v -256.639862 191.341721 384.088715
v -272.447357 97.545174 407.746368
v -277.784607 -0.000022 415.734467
v -272.447357 -97.545158 407.746368
v -256.639862 -191.341705 384.088776
v -230.969742 -277.785095 345.670654
v -196.423645 -353.553375 293.968750
v -154.328964 -415.734833 230.969696
v -106.303688 -461.939758 159.094727
v -54.193150 -490.392670 81.105759
v -37.328884 490.392639 90.119904
v -73.223236 461.939758 176.776596
v -106.303612 415.734802 256.639740
v -135.298950 353.553375 326.640564
v -159.094711 277.785126 384.088593
v -176.776581 191.341721 426.776520
v -187.664948 97.545174 453.063477
v -191.341263 -0.000022 461.939301
v -187.664948 -97.545158 453.063477
v -176.776566 -191.341705 426.776581
v -159.094711 -277.785095 384.088593
v -135.298950 -353.553375 326.640564
v -106.303612 -415.734833 256.639740
v -73.223244 -461.939758 176.776581
v -37.328884 -490.392670 90.119888
v -19.030088 490.392639 95.670776
v -37.328854 461.939758 187.665024
v -54.193073 415.734802 272.447296
v -68.974800 353.553375 346.759796
v -81.105766 277.785126 407.746277
v -90.119888 191.341721 453.063507
v -95.670700 97.545174 480.969604
v -97.544792 -0.000022 490.392090
v -95.670700 -97.545158 480.969604
v -90.119858 -191.341705 453.063568
v -81.105766 -277.785095 407.746277
v -68.974800 -353.553375 346.759796
v -54.193073 -415.734833 272.447296
v -37.328865 -461.939758 187.665009
v -19.030092 -490.392670 95.670761
v 0.000269 -0.000022 499.999359
v 0.000113 -97.545158 490.392334
v 0.000098 -191.341705 461.939606
v 0.000035 -461.939758 191.341583
v 0.000014 -490.392670 97.545059
v 0.000000 -500.000000 -0.000044
vn -0.0097 0.9951 -0.0980
vn -0.0975 0.0975 -0.9904
vn -0.0286 -0.9565 -0.2902
vn -0.0938 0.2890 -0.9527
vn -0.0464 -0.8810 -0.4709
vn -0.0865 0.4696 -0.8786
vn -0.0624 -0.7715 -0.6332
vn -0.0759 0.6326 -0.7708
vn -0.0759 -0.6326 -0.7708
vn -0.0624 0.7715 -0.6332
vn -0.0865 -0.4696 -0.8786
vn -0.0464 0.8810 -0.4709
vn -0.0938 -0.2890 -0.9527
vn -0.0286 0.9565 -0.2902
vn -0.0975 -0.0975 -0.9904
vn -0.0097 -0.9951 -0.0980
vn -0.0846 0.9565 -0.2790
vn -0.2889 -0.0976 -0.9524
vn -0.0286 -0.9951 -0.0942
vn -0.0286 0.9951 -0.0942
vn -0.2889 0.0976 -0.9524
vn -0.0846 -0.9565 -0.2790
vn -0.2779 0.2890 -0.9161
vn -0.1374 -0.8810 -0.4528
vn -0.2563 0.4696 -0.8448
vn -0.1847 -0.7715 -0.6088
vn -0.2248 0.6326 -0.7412
vn -0.2248 -0.6326 -0.7412
vn -0.1847 0.7715 -0.6088
vn -0.2563 -0.4696 -0.8448
vn -0.1374 0.8810 -0.4528
vn -0.2779 -0.2890 -0.9161
vn -0.2999 -0.7715 -0.5611
vn -0.3651 0.6326 -0.6831
vn -0.3651 -0.6326 -0.6831
vn -0.2999 0.7715 -0.5611
vn -0.4162 -0.4696 -0.7786
vn -0.2230 0.8810 -0.4173
vn -0.4513 -0.2890 -0.8443
vn -0.1374 0.9565 -0.2571
vn -0.4691 -0.0975 -0.8777
vn -0.0464 -0.9951 -0.0869
vn -0.0464 0.9951 -0.0869
vn -0.4691 0.0975 -0.8777
vn -0.1374 -0.9565 -0.2571
vn -0.4513 0.2890 -0.8443
vn -0.2230 -0.8810 -0.4173
vn -0.4162 0.4696 -0.7786
vn -0.6314 -0.0975 -0.7693
vn -0.0625 -0.9951 -0.0761
vn -0.0625 0.9951 -0.0761
vn -0.6314 0.0975 -0.7693
vn -0.1850 -0.9565 -0.2254
vn -0.6073 0.2890 -0.7400
vn -0.3002 -0.8810 -0.3658
vn -0.5601 0.4696 -0.6825
vn -0.4036 -0.7715 -0.4918
vn -0.4913 0.6326 -0.5987
vn -0.4913 -0.6326 -0.5987
vn -0.4036 0.7715 -0.4918
vn -0.5601 -0.4696 -0.6825
vn -0.3002 0.8810 -0.3658
vn -0.6073 -0.2890 -0.7400
vn -0.1850 0.9565 -0.2254
vn -0.5987 0.6326 -0.4913
vn -0.5987 -0.6326 -0.4913
vn -0.4918 0.7715 -0.4036
vn -0.6825 -0.4696 -0.5601
vn -0.3658 0.8810 -0.3002
vn -0.7400 -0.2890 -0.6073
vn -0.2254 0.9565 -0.1850
vn -0.7693 -0.0975 -0.6314
vn -0.0761 -0.9951 -0.0625
vn -0.0761 0.9951 -0.0625
vn -0.7693 0.0975 -0.6314
vn -0.2254 -0.9565 -0.1850
vn -0.7400 0.2890 -0.6073
vn -0.3658 -0.8810 -0.3002
vn -0.6825 0.4696 -0.5601
vn -0.4918 -0.7715 -0.4036
vn -0.0869 0.9951 -0.0464
vn -0.8777 0.0975 -0.4691
vn -0.2571 -0.9565 -0.1374
vn -0.8443 0.2890 -0.4513
vn -0.4173 -0.8810 -0.2230
vn -0.7786 0.4696 -0.4162
vn -0.5611 -0.7715 -0.2999
vn -0.6831 0.6326 -0.3651
vn -0.6831 -0.6326 -0.3651
vn -0.5611 0.7715 -0.2999
vn -0.7786 -0.4696 -0.4162
vn -0.4173 0.8810 -0.2230
vn -0.8443 -0.2890 -0.4513
vn -0.2571 0.9565 -0.1374
vn -0.8777 -0.0975 -0.4691
vn -0.0869 -0.9951 -0.0464
vn -0.6088 0.7715 -0.1847
vn -0.8448 -0.4696 -0.2563
vn -0.4528 0.8810 -0.1374
vn -0.9161 -0.2890 -0.2779
vn -0.2790 0.9565 -0.0846
vn -0.9524 -0.0975 -0.2889
vn -0.0942 -0.9951 -0.0286
vn -0.0942 0.9951 -0.0286
vn -0.9524 0.0975 -0.2889
vn -0.2790 -0.9565 -0.0846
vn -0.9161 0.2890 -0.2779
vn -0.4528 -0.8810 -0.1374
vn -0.8448 0.4696 -0.2563
vn -0.6088 -0.7715 -0.1847
vn -0.7412 0.6326 -0.2248
vn -0.7412 -0.6326 -0.2248
vn -0.2902 -0.9565 -0.0286
vn -0.9527 0.2890 -0.0938
vn -0.4709 -0.8810 -0.0464
vn -0.8786 0.4696 -0.0865
vn -0.6332 -0.7715 -0.0624
vn -0.7708 0.6326 -0.0759
vn -0.7708 -0.6326 -0.0759
vn -0.6332 0.7715 -0.0624
vn -0.8786 -0.4696 -0.0865
vn -0.4709 0.8810 -0.0464
vn -0.9527 -0.2890 -0.0938
vn -0.2902 0.9565 -0.0286
vn -0.9904 -0.0975 -0.0975
vn -0.0980 -0.9951 -0.0097
vn -0.0980 0.9951 -0.0097
vn -0.9904 0.0975 -0.0975
vn -0.8786 -0.4696 0.0865
vn -0.4709 0.8810 0.0464
vn -0.9527 -0.2890 0.0938
vn -0.2902 0.9565 0.0286
vn -0.9904 -0.0975 0.0976
vn -0.0980 -0.9951 0.0097
vn -0.0980 0.9951 0.0097
vn -0.9904 0.0975 0.0976
vn -0.2902 -0.9565 0.0286
vn -0.9527 0.2890 0.0938
vn -0.4709 -0.8810 0.0464
vn -0.8786 0.4696 0.0865
vn -0.6332 -0.7715 0.0624
vn -0.7708 0.6326 0.0759
vn -0.7708 -0.6326 0.0759
vn -0.6332 0.7715 0.0624
vn -0.9161 0.2890 0.2779
vn -0.4528 -0.8810 0.1374
vn -0.8448 0.4696 0.2563
vn -0.6088 -0.7715 0.1847
vn -0.7412 0.6326 0.2248
vn -0.7412 -0.6326 0.2248
vn -0.6088 0.7715 0.1847
vn -0.8448 -0.4696 0.2563
vn -0.4528 0.8810 0.1374
vn -0.9161 -0.2890 0.2779
vn -0.2790 0.9565 0.0846
vn -0.9524 -0.0975 0.2889
vn -0.0942 -0.9951 0.0286
vn -0.0942 0.9951 0.0286
vn -0.9524 0.0975 0.2889
vn -0.2790 -0.9565 0.0846
vn -0.4173 0.8810 0.2231
vn -0.8443 -0.2890 0.4513
vn -0.2571 0.9565 0.1374
vn -0.8777 -0.0975 0.4691
vn -0.0869 -0.9951 0.0464
vn -0.0869 0.9951 0.0464
vn -0.8777 0.0975 0.4691
vn -0.2571 -0.9565 0.1374
vn -0.8443 0.2890 0.4513
vn -0.4173 -0.8810 0.2231
vn -0.7786 0.4696 0.4162
vn -0.5611 -0.7715 0.2999
vn -0.6831 0.6326 0.3651
vn -0.6831 -0.6326 0.3651
vn -0.5611 0.7715 0.2999
vn -0.7786 -0.4696 0.4162
vn -0.3658 -0.8810 0.3002
vn -0.6825 0.4696 0.5601
vn -0.4918 -0.7715 0.4036
vn -0.5987 0.6326 0.4913
vn -0.5987 -0.6326 0.4913
vn -0.4918 0.7715 0.4036
vn -0.6825 -0.4696 0.5601
vn -0.3658 0.8810 0.3002
vn -0.7400 -0.2890 0.6073
vn -0.2254 0.9565 0.1850
vn -0.7693 -0.0975 0.6314
vn -0.0761 -0.9951 0.0625
vn -0.0761 0.9951 0.0625
vn -0.7693 0.0975 0.6314
vn -0.2254 -0.9565 0.1850
vn -0.7400 0.2890 0.6073
vn -0.6073 -0.2890 0.7400
vn -0.1850 0.9565 0.2254
vn -0.6314 -0.0975 0.7693
vn -0.0625 -0.9951 0.0761
vn -0.0625 0.9951 0.0761
vn -0.6314 0.0975 0.7693
vn -0.1850 -0.9565 0.2254
vn -0.6073 0.2890 0.7400
vn -0.3002 -0.8810 0.3658
vn -0.5601 0.4696 0.6825
vn -0.4036 -0.7715 0.4918
vn -0.4913 0.6326 0.5987
vn -0.4913 -0.6326 0.5987
vn -0.4036 0.7715 0.4918
vn -0.5601 -0.4696 0.6825
vn -0.3002 0.8810 0.3658
vn -0.4162 0.4696 0.7786
vn -0.2999 -0.7715 0.5611
vn -0.3651 0.6326 0.6831
vn -0.3651 -0.6326 0.6831
vn -0.2999 0.7715 0.5611
vn -0.4162 -0.4696 0.7786
vn -0.2230 0.8810 0.4173
vn -0.4513 -0.2890 0.8443
vn -0.1374 0.9565 0.2571
vn -0.4691 -0.0975 0.8777
vn -0.0464 -0.9951 0.0869
vn -0.0464 0.9951 0.0869
vn -0.4691 0.0975 0.8777
vn -0.1374 -0.9565 0.2571
vn -0.4513 0.2890 0.8443
vn -0.2230 -0.8810 0.4173
vn -0.0846 0.9565 0.2790
vn -0.2889 -0.0975 0.9524
vn -0.0286 -0.9951 0.0942
vn -0.0286 0.9951 0.0942
vn -0.2889 0.0975 0.9524
vn -0.0846 -0.9565 0.2790
vn -0.2779 0.2890 0.9161
vn -0.1374 -0.8810 0.4528
vn -0.2563 0.4696 0.8448
vn -0.1847 -0.7715 0.6088
vn -0.2248 0.6326 0.7412
vn -0.2248 -0.6326 0.7412
vn -0.1847 0.7715 0.6088
vn -0.2563 -0.4696 0.8448
vn -0.1374 0.8810 0.4528
vn -0.2779 -0.2890 0.9161
vn -0.0759 0.6326 0.7708
vn -0.0759 -0.6326 0.7708
vn -0.0624 0.7715 0.6332
vn -0.0865 -0.4696 0.8786
vn -0.0464 0.8810 0.4709
vn -0.0938 -0.2890 0.9527
vn -0.0286 0.9565 0.2902
vn -0.0975 -0.0975 0.9904
vn -0.0097 -0.9951 0.0980
vn -0.0097 0.9951 0.0980
vn -0.0975 0.0975 0.9904
vn -0.0286 -0.9565 0.2902
vn -0.0938 0.2890 0.9527
vn -0.0464 -0.8810 0.4709
vn -0.0865 0.4696 0.8786
vn -0.0624 -0.7715 0.6332
vn 0.0097 -0.9951 0.0980
vn 0.0097 0.9951 0.0980
vn 0.0976 0.0975 0.9904
vn 0.0286 -0.9565 0.2902
vn 0.0938 0.2890 0.9527
vn 0.0464 -0.8810 0.4709
vn 0.0865 0.4696 0.8786
vn 0.0624 -0.7715 0.6332
vn 0.0759 0.6326 0.7708
vn 0.0759 -0.6326 0.7708
vn 0.0624 0.7715 0.6332
vn 0.0865 -0.4696 0.8786
vn 0.0464 0.8810 0.4709
vn 0.0938 -0.2890 0.9527
vn 0.0286 0.9565 0.2902
vn 0.0976 -0.0975 0.9904
vn 0.2248 -0.6326 0.7412
vn 0.1847 0.7715 0.6088
vn 0.2563 -0.4696 0.8448
vn 0.1374 0.8810 0.4528
vn 0.2779 -0.2890 0.9161
vn 0.0846 0.9565 0.2790
vn 0.2889 -0.0975 0.9524
vn 0.0286 -0.9951 0.0942
vn 0.0286 0.9951 0.0942
vn 0.2889 0.0975 0.9524
vn 0.0846 -0.9565 0.2790
vn 0.2779 0.2890 0.9161
vn 0.1374 -0.8810 0.4528
vn 0.2563 0.4696 0.8448
vn 0.1847 -0.7715 0.6088
vn 0.2248 0.6326 0.7412
vn 0.4691 0.0975 0.8777
vn 0.1374 -0.9565 0.2571
vn 0.4513 0.2890 0.8443
vn 0.2231 -0.8810 0.4173
vn 0.4162 0.4696 0.7786
vn 0.2999 -0.7715 0.5611
vn 0.3651 0.6326 0.6831
vn 0.3651 -0.6326 0.6831
vn 0.2999 0.7715 0.5611
vn 0.4162 -0.4696 0.7786
vn 0.2230 0.8810 0.4173
vn 0.4513 -0.2890 0.8443
vn 0.1374 0.9565 0.2571
vn 0.4691 -0.0975 0.8777
vn 0.0464 -0.9951 0.0869
vn 0.0464 0.9951 0.0869
vn 0.4036 0.7715 0.4918
vn 0.5601 -0.4696 0.6825
vn 0.3002 0.8810 0.3658
vn 0.6073 -0.2890 0.7400
vn 0.1850 0.9565 0.2254
vn 0.6314 -0.0975 0.7693
vn 0.0625 -0.9951 0.0761
vn 0.0625 0.9951 0.0761
vn 0.6314 0.0975 0.7693
vn 0.1850 -0.9565 0.2254
vn 0.6073 0.2890 0.7400
vn 0.3002 -0.8810 0.3658
vn 0.5601 0.4696 0.6825
vn 0.4036 -0.7715 0.4918
vn 0.4913 0.6326 0.5987
vn 0.4913 -0.6326 0.5987
vn 0.2254 -0.9565 0.1850
vn 0.7400 0.2890 0.6073
vn 0.3658 -0.8810 0.3002
vn 0.6825 0.4696 0.5601
vn 0.4918 -0.7715 0.4036
vn 0.5987 0.6326 0.4913
vn 0.5987 -0.6326 0.4913
vn 0.4918 0.7715 0.4036
vn 0.6825 -0.4696 0.5601
vn 0.3658 0.8810 0.3002
vn 0.7400 -0.2890 0.6073
vn 0.2254 0.9565 0.1850
vn 0.7693 -0.0975 0.6314
vn 0.0761 -0.9951 0.0625
vn 0.0761 0.9951 0.0625
vn 0.7693 0.0975 0.6314
vn 0.7786 -0.4696 0.4162
vn 0.4173 0.8810 0.2230
vn 0.8443 -0.2890 0.4513
vn 0.2571 0.9565 0.1374
vn 0.8777 -0.0975 0.4691
vn 0.0869 -0.9951 0.0464
vn 0.0869 0.9951 0.0464
vn 0.8777 0.0975 0.4691
vn 0.2571 -0.9565 0.1374
vn 0.8443 0.2890 0.4513
vn 0.4173 -0.8810 0.2230
vn 0.7786 0.4696 0.4162
vn 0.5611 -0.7715 0.2999
vn 0.6831 0.6326 0.3651
vn 0.6831 -0.6326 0.3651
vn 0.5611 0.7715 0.2999
vn 0.9161 0.2890 0.2779
vn 0.4528 -0.8810 0.1374
vn 0.8448 0.4696 0.2563
vn 0.6088 -0.7715 0.1847
vn 0.7412 0.6326 0.2248
vn 0.7412 -0.6326 0.2248
vn 0.6088 0.7715 0.1847
vn 0.8448 -0.4696 0.2563
vn 0.4528 0.8810 0.1374
vn 0.9161 -0.2890 0.2779
vn 0.2790 0.9565 0.0846
vn 0.9524 -0.0975 0.2889
vn 0.0942 -0.9951 0.0286
vn 0.0942 0.9951 0.0286
vn 0.9524 0.0975 0.2889
vn 0.2790 -0.9565 0.0846
vn 0.4709 0.8810 0.0464
vn 0.9527 -0.2890 0.0938
vn 0.2902 0.9565 0.0286
vn 0.9904 -0.0975 0.0975
vn 0.0980 -0.9951 0.0097
vn 0.0980 0.9951 0.0097
vn 0.9904 0.0975 0.0975
vn 0.2902 -0.9565 0.0286
vn 0.9527 0.2890 0.0938
vn 0.4709 -0.8810 0.0464
vn 0.8786 0.4696 0.0865
vn 0.6332 -0.7715 0.0624
vn 0.7708 0.6326 0.0759
vn 0.7708 -0.6326 0.0759
vn 0.6332 0.7715 0.0624
vn 0.8786 -0.4696 0.0865
vn 0.8786 0.4696 -0.0865
vn 0.6332 -0.7715 -0.0624
vn 0.7708 0.6326 -0.0759
vn 0.7708 -0.6326 -0.0759
vn 0.6332 0.7715 -0.0624
vn 0.8786 -0.4696 -0.0865
vn 0.4709 0.8810 -0.0464
vn 0.9527 -0.2890 -0.0938
vn 0.2902 0.9565 -0.0286
vn 0.9904 -0.0975 -0.0975
vn 0.0980 -0.9951 -0.0097
vn 0.0980 0.9951 -0.0097
vn 0.9904 0.0975 -0.0975
vn 0.2902 -0.9565 -0.0286
vn 0.9527 0.2890 -0.0938
vn 0.4709 -0.8810 -0.0464
vn 0.2790 0.9565 -0.0846
vn 0.9524 -0.0975 -0.2889
vn 0.0942 -0.9951 -0.0286
vn 0.0942 0.9951 -0.0286
vn 0.9524 0.0975 -0.2889
vn 0.2790 -0.9565 -0.0846
vn 0.9161 0.2890 -0.2779
vn 0.4528 -0.8810 -0.1374
vn 0.8448 0.4696 -0.2563
vn 0.6088 -0.7715 -0.1847
vn 0.7412 0.6326 -0.2248
vn 0.7412 -0.6326 -0.2248
vn 0.6088 0.7715 -0.1847
vn 0.8448 -0.4696 -0.2563
vn 0.4528 0.8810 -0.1374
vn 0.9161 -0.2890 -0.2779
vn 0.5611 -0.7715 -0.2999
vn 0.6831 0.6326 -0.3651
vn 0.6831 -0.6326 -0.3651
vn 0.5611 0.7715 -0.2999
vn 0.7786 -0.4696 -0.4162
vn 0.4173 0.8810 -0.2231
vn 0.8443 -0.2890 -0.4513
vn 0.2571 0.9565 -0.1374
vn 0.8777 -0.0975 -0.4691
vn 0.0869 -0.9951 -0.0464
vn 0.0869 0.9951 -0.0464
vn 0.8777 0.0975 -0.4691
vn 0.2571 -0.9565 -0.1374
vn 0.8443 0.2890 -0.4513
vn 0.4173 -0.8810 -0.2231
vn 0.7786 0.4696 -0.4162
vn 0.7693 -0.0975 -0.6314
vn 0.0761 -0.9951 -0.0625
vn 0.0761 0.9951 -0.0625
vn 0.7693 0.0975 -0.6314
vn 0.2254 -0.9565 -0.1850
vn 0.7400 0.2890 -0.6073
vn 0.3658 -0.8810 -0.3002
vn 0.6825 0.4696 -0.5601
vn 0.4918 -0.7715 -0.4036
vn 0.5987 0.6326 -0.4913
vn 0.5987 -0.6326 -0.4913
vn 0.4918 0.7715 -0.4036
vn 0.6825 -0.4696 -0.5601
vn 0.3658 0.8810 -0.3002
vn 0.7400 -0.2890 -0.6073
vn 0.2254 0.9565 -0.1850
vn 0.4913 0.6326 -0.5987
vn 0.4913 -0.6326 -0.5987
vn 0.4036 0.7715 -0.4918
vn 0.5601 -0.4696 -0.6825
vn 0.3002 0.8810 -0.3658
vn 0.6073 -0.2890 -0.7400
vn 0.1850 0.9565 -0.2254
vn 0.6314 -0.0975 -0.7693
vn 0.0625 -0.9951 -0.0761
vn 0.0625 0.9951 -0.0761
vn 0.6314 0.0975 -0.7693
vn 0.1850 -0.9565 -0.2254
vn 0.6073 0.2890 -0.7400
vn 0.3002 -0.8810 -0.3658
vn 0.5601 0.4696 -0.6825
vn 0.4036 -0.7715 -0.4918
vn 0.0464 -0.9951 -0.0869
vn 0.0464 0.9951 -0.0869
vn 0.4691 0.0975 -0.8777
vn 0.1374 -0.9565 -0.2571
vn 0.4513 0.2890 -0.8443
vn 0.2230 -0.8810 -0.4173
vn 0.4162 0.4696 -0.7786
vn 0.2999 -0.7715 -0.5611
vn 0.3651 0.6326 -0.6831
vn 0.3651 -0.6326 -0.6831
vn 0.2999 0.7715 -0.5611
vn 0.4162 -0.4696 -0.7786
vn 0.2230 0.8810 -0.4173
vn 0.4513 -0.2890 -0.8443
vn 0.1374 0.9565 -0.2571
vn 0.4691 -0.0975 -0.8777
vn 0.2248 -0.6326 -0.7412
vn 0.1847 0.7715 -0.6088
vn 0.2563 -0.4696 -0.8448
vn 0.1374 0.8810 -0.4528
vn 0.2779 -0.2890 -0.9161
vn 0.0846 0.9565 -0.2790
vn 0.2889 -0.0975 -0.9524
vn 0.0286 -0.9951 -0.0942
vn 0.0286 0.9951 -0.0942
vn 0.2889 0.0975 -0.9524
vn 0.0846 -0.9565 -0.2790
vn 0.2779 0.2890 -0.9161
vn 0.1374 -0.8810 -0.4528
vn 0.2563 0.4696 -0.8448
vn 0.1847 -0.7715 -0.6088
vn 0.2248 0.6326 -0.7412
vn 0.0975 0.0975 -0.9904
vn 0.0286 -0.9565 -0.2902
vn 0.0938 0.2890 -0.9527
vn 0.0464 -0.8810 -0.4709
vn 0.0865 0.4696 -0.8786
vn 0.0624 -0.7715 -0.6332
vn 0.0759 0.6326 -0.7708
vn 0.0759 -0.6326 -0.7708
vn 0.0624 0.7715 -0.6332
vn 0.0865 -0.4696 -0.8786
vn 0.0464 0.8810 -0.4709
vn 0.0938 -0.2890 -0.9527
vn 0.0286 0.9565 -0.2902
vn 0.0976 -0.0975 -0.9904
vn 0.0097 -0.9951 -0.0980
vn 0.0097 0.9951 -0.0980
vt 0.734375 0.000000
vt 0.718750 0.062500
vt 0.750000 0.062500
vt 0.750000 0.437500
vt 0.718750 0.437500
vt 0.718750 0.500000
vt 0.750000 0.500000
vt 0.750000 0.875000
vt 0.718750 0.875000
vt 0.718750 0.937500
vt 0.750000 0.937500
vt 0.750000 0.375000
vt 0.718750 0.375000
vt 0.750000 0.812500
vt 0.718750 0.812500
vt 0.750000 0.312500
vt 0.718750 0.312500
vt 0.750000 0.750000
vt 0.718750 0.750000
vt 0.750000 0.250000
vt 0.718750 0.250000
vt 0.750000 0.687500
vt 0.718750 0.687500
vt 0.750000 0.187500
vt 0.718750 0.187500
vt 0.750000 0.625000
vt 0.718750 0.625000
vt 0.750000 0.125000
vt 0.718750 0.125000
vt 0.750000 0.562500
vt 0.718750 0.562500
vt 0.734375 1.000000
vt 0.687500 0.062500
vt 0.687500 0.125000
vt 0.687500 0.500000
vt 0.687500 0.562500
vt 0.687500 0.937500
vt 0.703125 1.000000
vt 0.703125 0.000000
vt 0.687500 0.437500
vt 0.687500 0.875000
vt 0.687500 0.375000
vt 0.687500 0.812500
vt 0.687500 0.312500
vt 0.687500 0.750000
vt 0.687500 0.250000
vt 0.687500 0.687500
vt 0.687500 0.187500
vt 0.687500 0.625000
vt 0.656250 0.750000
vt 0.656250 0.812500
vt 0.656250 0.250000
vt 0.656250 0.312500
vt 0.656250 0.687500
vt 0.656250 0.187500
vt 0.656250 0.625000
vt 0.656250 0.125000
vt 0.656250 0.562500
vt 0.656250 0.062500
vt 0.656250 0.500000
vt 0.656250 0.937500
vt 0.671875 1.000000
vt 0.671875 0.000000
vt 0.656250 0.437500
vt 0.656250 0.875000
vt 0.656250 0.375000
vt 0.625000 0.500000
vt 0.625000 0.562500
vt 0.625000 0.937500
vt 0.640625 1.000000
vt 0.640625 0.000000
vt 0.625000 0.062500
vt 0.625000 0.437500
vt 0.625000 0.875000
vt 0.625000 0.375000
vt 0.625000 0.812500
vt 0.625000 0.312500
vt 0.625000 0.750000
vt 0.625000 0.250000
vt 0.625000 0.687500
vt 0.625000 0.187500
vt 0.625000 0.625000
vt 0.625000 0.125000
vt 0.593750 0.250000
vt 0.593750 0.312500
vt 0.593750 0.687500
vt 0.593750 0.750000
vt 0.593750 0.187500
vt 0.593750 0.625000
vt 0.593750 0.125000
vt 0.593750 0.562500
vt 0.593750 0.062500
vt 0.593750 0.500000
vt 0.593750 0.937500
vt 0.609375 1.000000
vt 0.609375 0.000000
vt 0.593750 0.437500
vt 0.593750 0.875000
vt 0.593750 0.375000
vt 0.593750 0.812500
vt 0.578125 0.000000
vt 0.562500 0.062500
vt 0.562500 0.437500
vt 0.562500 0.500000
vt 0.562500 0.875000
vt 0.562500 0.937500
vt 0.562500 0.375000
vt 0.562500 0.812500
vt 0.562500 0.312500
vt 0.562500 0.750000
vt 0.562500 0.250000
vt 0.562500 0.687500
vt 0.562500 0.187500
vt 0.562500 0.625000
vt 0.562500 0.125000
vt 0.562500 0.562500
vt 0.578125 1.000000
vt 0.531250 0.187500
vt 0.531250 0.250000
vt 0.531250 0.625000
vt 0.531250 0.687500
vt 0.531250 0.125000
vt 0.531250 0.562500
vt 0.531250 0.062500
vt 0.531250 0.500000
vt 0.531250 0.937500
vt 0.546875 1.000000
vt 0.546875 0.000000
vt 0.531250 0.437500
vt 0.531250 0.875000
vt 0.531250 0.375000
vt 0.531250 0.812500
vt 0.531250 0.312500
vt 0.531250 0.750000
vt 0.500000 0.875000
vt 0.500000 0.937500
vt 0.500000 0.375000
vt 0.500000 0.437500
vt 0.500000 0.812500
vt 0.500000 0.312500
vt 0.500000 0.750000
vt 0.500000 0.250000
vt 0.500000 0.687500
vt 0.500000 0.187500
vt 0.500000 0.625000
vt 0.500000 0.125000
vt 0.500000 0.562500
vt 0.500000 0.062500
vt 0.500000 0.500000
vt 0.515625 1.000000
vt 0.515625 0.000000
vt 0.468750 0.625000
vt 0.468750 0.687500
vt 0.468750 0.125000
vt 0.468750 0.187500
vt 0.468750 0.562500
vt 0.468750 0.062500
vt 0.468750 0.500000
vt 0.468750 0.937500
vt 0.484375 1.000000
vt 0.484375 0.000000
vt 0.468750 0.437500
vt 0.468750 0.875000
vt 0.468750 0.375000
vt 0.468750 0.812500
vt 0.468750 0.312500
vt 0.468750 0.750000
vt 0.468750 0.250000
vt 0.437500 0.375000
vt 0.437500 0.437500
vt 0.437500 0.812500
vt 0.437500 0.875000
vt 0.437500 0.312500
vt 0.437500 0.750000
vt 0.437500 0.250000
vt 0.437500 0.687500
vt 0.437500 0.187500
vt 0.437500 0.625000
vt 0.437500 0.125000
vt 0.437500 0.562500
vt 0.437500 0.062500
vt 0.437500 0.500000
vt 0.437500 0.937500
vt 0.453125 1.000000
vt 0.453125 0.000000
vt 0.406250 0.125000
vt 0.406250 0.187500
vt 0.406250 0.562500
vt 0.406250 0.625000
vt 0.406250 0.062500
vt 0.406250 0.500000
vt 0.406250 0.937500
vt 0.421875 1.000000
vt 0.421875 0.000000
vt 0.406250 0.437500
vt 0.406250 0.875000
vt 0.406250 0.375000
vt 0.406250 0.812500
vt 0.406250 0.312500
vt 0.406250 0.750000
vt 0.406250 0.250000
vt 0.406250 0.687500
vt 0.375000 0.812500
vt 0.375000 0.875000
vt 0.375000 0.312500
vt 0.375000 0.375000
vt 0.375000 0.750000
vt 0.375000 0.250000
vt 0.375000 0.687500
vt 0.375000 0.187500
vt 0.375000 0.625000
vt 0.375000 0.125000
vt 0.375000 0.562500
vt 0.375000 0.062500
vt 0.375000 0.500000
vt 0.375000 0.937500
vt 0.390625 1.000000
vt 0.390625 0.000000
vt 0.375000 0.437500
vt 0.343750 0.562500
vt 0.343750 0.625000
vt 0.343750 0.062500
vt 0.343750 0.125000
vt 0.343750 0.500000
vt 0.343750 0.937500
vt 0.359375 1.000000
vt 0.359375 0.000000
vt 0.343750 0.437500
vt 0.343750 0.875000
vt 0.343750 0.375000
vt 0.343750 0.812500
vt 0.343750 0.312500
vt 0.343750 0.750000
vt 0.343750 0.250000
vt 0.343750 0.687500
vt 0.343750 0.187500
vt 0.312500 0.312500
vt 0.312500 0.375000
vt 0.312500 0.750000
vt 0.312500 0.812500
vt 0.312500 0.250000
vt 0.312500 0.687500
vt 0.312500 0.187500
vt 0.312500 0.625000
vt 0.312500 0.125000
vt 0.312500 0.562500
vt 0.312500 0.062500
vt 0.312500 0.500000
vt 0.312500 0.937500
vt 0.328125 1.000000
vt 0.328125 0.000000
vt 0.312500 0.437500
vt 0.312500 0.875000
vt 0.281250 0.062500
vt 0.281250 0.125000
vt 0.281250 0.500000
vt 0.281250 0.562500
vt 0.281250 0.937500
vt 0.296875 1.000000
vt 0.296875 0.000000
vt 0.281250 0.437500
vt 0.281250 0.875000
vt 0.281250 0.375000
vt 0.281250 0.812500
vt 0.281250 0.312500
vt 0.281250 0.750000
vt 0.281250 0.250000
vt 0.281250 0.687500
vt 0.281250 0.187500
vt 0.281250 0.625000
vt 0.250000 0.250000
vt 0.250000 0.312500
vt 0.250000 0.687500
vt 0.250000 0.750000
vt 0.250000 0.187500
vt 0.250000 0.625000
vt 0.250000 0.125000
vt 0.250000 0.562500
vt 0.250000 0.062500
vt 0.250000 0.500000
vt 0.250000 0.937500
vt 0.265625 1.000000
vt 0.265625 0.000000
vt 0.250000 0.437500
vt 0.250000 0.875000
vt 0.250000 0.375000
vt 0.250000 0.812500
vt 0.218750 0.937500
vt 0.234375 1.000000
vt 0.234375 0.000000
vt 0.218750 0.062500
vt 0.218750 0.437500
vt 0.218750 0.500000
vt 0.218750 0.875000
vt 0.218750 0.375000
vt 0.218750 0.812500
vt 0.218750 0.312500
vt 0.218750 0.750000
vt 0.218750 0.250000
vt 0.218750 0.687500
vt 0.218750 0.187500
vt 0.218750 0.625000
vt 0.218750 0.125000
vt 0.218750 0.562500
vt 0.187500 0.687500
vt 0.187500 0.750000
vt 0.187500 0.187500
vt 0.187500 0.250000
vt 0.187500 0.625000
vt 0.187500 0.125000
vt 0.187500 0.562500
vt 0.187500 0.062500
vt 0.187500 0.500000
vt 0.187500 0.937500
vt 0.203125 1.000000
vt 0.203125 0.000000
vt 0.187500 0.437500
vt 0.187500 0.875000
vt 0.187500 0.375000
vt 0.187500 0.812500
vt 0.187500 0.312500
vt 0.156250 0.437500
vt 0.156250 0.500000
vt 0.156250 0.875000
vt 0.156250 0.937500
vt 0.156250 0.375000
vt 0.156250 0.812500
vt 0.156250 0.312500
vt 0.156250 0.750000
vt 0.156250 0.250000
vt 0.156250 0.687500
vt 0.156250 0.187500
vt 0.156250 0.625000
vt 0.156250 0.125000
vt 0.156250 0.562500
vt 0.156250 0.062500
vt 0.171875 1.000000
vt 0.171875 0.000000
vt 0.125000 0.187500
vt 0.125000 0.250000
vt 0.125000 0.625000
vt 0.125000 0.687500
vt 0.125000 0.125000
vt 0.125000 0.562500
vt 0.125000 0.062500
vt 0.125000 0.500000
vt 0.125000 0.937500
vt 0.140625 1.000000
vt 0.140625 0.000000
vt 0.125000 0.437500
vt 0.125000 0.875000
vt 0.125000 0.375000
vt 0.125000 0.812500
vt 0.125000 0.312500
vt 0.125000 0.750000
vt 0.093750 0.875000
vt 0.093750 0.937500
vt 0.093750 0.375000
vt 0.093750 0.437500
vt 0.093750 0.812500
vt 0.093750 0.312500
vt 0.093750 0.750000
vt 0.093750 0.250000
vt 0.093750 0.687500
vt 0.093750 0.187500
vt 0.093750 0.625000
vt 0.093750 0.125000
vt 0.093750 0.562500
vt 0.093750 0.062500
vt 0.093750 0.500000
vt 0.109375 1.000000
vt 0.109375 0.000000
vt 0.062500 0.625000
vt 0.062500 0.687500
vt 0.062500 0.125000
vt 0.062500 0.187500
vt 0.062500 0.562500
vt 0.062500 0.062500
vt 0.062500 0.500000
vt 0.062500 0.937500
vt 0.078125 1.000000
vt 0.078125 0.000000
vt 0.062500 0.437500
vt 0.062500 0.875000
vt 0.062500 0.375000
vt 0.062500 0.812500
vt 0.062500 0.312500
vt 0.062500 0.750000
vt 0.062500 0.250000
vt 0.031250 0.375000
vt 0.031250 0.437500
vt 0.031250 0.812500
vt 0.031250 0.875000
vt 0.031250 0.312500
vt 0.031250 0.750000
vt 0.031250 0.250000
vt 0.031250 0.687500
vt 0.031250 0.187500
vt 0.031250 0.625000
vt 0.031250 0.125000
vt 0.031250 0.562500
vt 0.031250 0.062500
vt 0.031250 0.500000
vt 0.031250 0.937500
vt 0.046875 1.000000
vt 0.046875 0.000000
vt 0.000000 0.125000
vt 0.000000 0.187500
vt 0.000000 0.562500
vt 0.000000 0.625000
vt 0.000000 0.062500
vt 0.000000 0.500000
vt 0.000000 0.937500
vt 0.015625 1.000000
vt 0.015625 0.000000
vt 0.000000 0.437500
vt 0.000000 0.875000
vt 0.000000 0.375000
vt 0.000000 0.812500
vt 0.000000 0.312500
vt 0.000000 0.750000
vt 0.000000 0.250000
vt 0.000000 0.687500
vt 1.000000 0.312500
vt 0.968750 0.312500
vt 0.968750 0.375000
vt 1.000000 0.375000
vt 1.000000 0.750000
vt 0.968750 0.750000
vt 0.968750 0.812500
vt 1.000000 0.812500
vt 1.000000 0.250000
vt 0.968750 0.250000
vt 1.000000 0.687500
vt 0.968750 0.687500
vt 1.000000 0.187500
vt 0.968750 0.187500
vt 1.000000 0.625000
vt 0.968750 0.625000
vt 1.000000 0.125000
vt 0.968750 0.125000
vt 1.000000 0.562500
vt 0.968750 0.562500
vt 1.000000 0.062500
vt 0.968750 0.062500
vt 1.000000 0.500000
vt 0.968750 0.500000
vt 1.000000 0.937500
vt 0.968750 0.937500
vt 0.984375 1.000000
vt 0.984375 0.000000
vt 1.000000 0.437500
vt 0.968750 0.437500
vt 1.000000 0.875000
vt 0.968750 0.875000
vt 0.937500 0.062500
vt 0.937500 0.125000
vt 0.937500 0.500000
vt 0.937500 0.562500
vt 0.937500 0.937500
vt 0.953125 1.000000
vt 0.953125 0.000000
vt 0.937500 0.437500
vt 0.937500 0.875000
vt 0.937500 0.375000
vt 0.937500 0.812500
vt 0.937500 0.312500
vt 0.937500 0.750000
vt 0.937500 0.250000
vt 0.937500 0.687500
vt 0.937500 0.187500
vt 0.937500 0.625000
vt 0.906250 0.750000
vt 0.906250 0.812500
vt 0.906250 0.250000
vt 0.906250 0.312500
vt 0.906250 0.687500
vt 0.906250 0.187500
vt 0.906250 0.625000
vt 0.906250 0.125000
vt 0.906250 0.562500
vt 0.906250 0.062500
vt 0.906250 0.500000
vt 0.906250 0.937500
vt 0.921875 1.000000
vt 0.921875 0.000000
vt 0.906250 0.437500
vt 0.906250 0.875000
vt 0.906250 0.375000
vt 0.875000 0.500000
vt 0.875000 0.562500
vt 0.875000 0.937500
vt 0.890625 1.000000
vt 0.890625 0.000000
vt 0.875000 0.062500
vt 0.875000 0.437500
vt 0.875000 0.875000
vt 0.875000 0.375000
vt 0.875000 0.812500
vt 0.875000 0.312500
vt 0.875000 0.750000
vt 0.875000 0.250000
vt 0.875000 0.687500
vt 0.875000 0.187500
vt 0.875000 0.625000
vt 0.875000 0.125000
vt 0.843750 0.250000
vt 0.843750 0.312500
vt 0.843750 0.687500
vt 0.843750 0.750000
vt 0.843750 0.187500
vt 0.843750 0.625000
vt 0.843750 0.125000
vt 0.843750 0.562500
vt 0.843750 0.062500
vt 0.843750 0.500000
vt 0.843750 0.937500
vt 0.859375 1.000000
vt 0.859375 0.000000
vt 0.843750 0.437500
vt 0.843750 0.875000
vt 0.843750 0.375000
vt 0.843750 0.812500
vt 0.812500 0.937500
vt 0.828125 1.000000
vt 0.828125 0.000000
vt 0.812500 0.062500
vt 0.812500 0.437500
vt 0.812500 0.500000
vt 0.812500 0.875000
vt 0.812500 0.375000
vt 0.812500 0.812500
vt 0.812500 0.312500
vt 0.812500 0.750000
vt 0.812500 0.250000
vt 0.812500 0.687500
vt 0.812500 0.187500
vt 0.812500 0.625000
vt 0.812500 0.125000
vt 0.812500 0.562500
vt 0.781250 0.687500
vt 0.781250 0.750000
vt 0.781250 0.187500
vt 0.781250 0.250000
vt 0.781250 0.625000
vt 0.781250 0.125000
vt 0.781250 0.562500
vt 0.781250 0.062500
vt 0.781250 0.500000
vt 0.781250 0.937500
vt 0.796875 1.000000
vt 0.796875 0.000000
vt 0.781250 0.437500
vt 0.781250 0.875000
vt 0.781250 0.375000
vt 0.781250 0.812500
vt 0.781250 0.312500
vt 0.765625 1.000000
vt 0.765625 0.000000
s 0
usemtl マテリアル
f 482/1/1 481/3/1 25/2/1
f 478/4/2 477/7/2 18/6/2 19/5/2
f 2/8/3 1/11/3 11/10/3 12/9/3
f 479/12/4 478/4/4 19/5/4 20/13/4
f 3/14/5 2/8/5 12/9/5 13/15/5
f 8/16/6 479/12/6 20/13/6 21/17/6
f 4/18/7 3/14/7 13/15/7 14/19/7
f 9/20/8 8/16/8 21/17/8 22/21/8
f 5/22/9 4/18/9 14/19/9 15/23/9
f 10/24/10 9/20/10 22/21/10 23/25/10
f 6/26/11 5/22/11 15/23/11 16/27/11
f 480/28/12 10/24/12 23/25/12 24/29/12
f 7/30/13 6/26/13 16/27/13 17/31/13
f 481/3/14 480/28/14 24/29/14 25/2/14
f 477/7/15 7/30/15 17/31/15 18/6/15
f 1/11/16 326/32/16 11/10/16
f 25/2/17 24/29/17 39/34/17 40/33/17
f 18/6/18 17/31/18 32/36/18 33/35/18
f 11/10/19 326/38/19 26/37/19
f 482/39/20 25/2/20 40/33/20
f 19/5/21 18/6/21 33/35/21 34/40/21
f 12/9/22 11/10/22 26/37/22 27/41/22
f 20/13/23 19/5/23 34/40/23 35/42/23
f 13/15/24 12/9/24 27/41/24 28/43/24
f 21/17/25 20/13/25 35/42/25 36/44/25
f 14/19/26 13/15/26 28/43/26 29/45/26
f 22/21/27 21/17/27 36/44/27 37/46/27
f 15/23/28 14/19/28 29/45/28 30/47/28
f 23/25/29 22/21/29 37/46/29 38/48/29
f 16/27/30 15/23/30 30/47/30 31/49/30
f 24/29/31 23/25/31 38/48/31 39/34/31
f 17/31/32 16/27/32 31/49/32 32/36/32
f 29/45/33 28/43/33 43/51/33 44/50/33
f 37/46/34 36/44/34 51/53/34 52/52/34
f 30/47/35 29/45/35 44/50/35 45/54/35
f 38/48/36 37/46/36 52/52/36 53/55/36
f 31/49/37 30/47/37 45/54/37 46/56/37
f 39/34/38 38/48/38 53/55/38 54/57/38
f 32/36/39 31/49/39 46/56/39 47/58/39
f 40/33/40 39/34/40 54/57/40 55/59/40
f 33/35/41 32/36/41 47/58/41 48/60/41
f 26/37/42 326/62/42 41/61/42
f 482/63/43 40/33/43 55/59/43
f 34/40/44 33/35/44 48/60/44 49/64/44
f 27/41/45 26/37/45 41/61/45 42/65/45
f 35/42/46 34/40/46 49/64/46 50/66/46
f 28/43/47 27/41/47 42/65/47 43/51/47
f 36/44/48 35/42/48 50/66/48 51/53/48
f 48/60/49 47/58/49 62/68/49 63/67/49
f 41/61/50 326/70/50 56/69/50
f 482/71/51 55/59/51 70/72/51
f 49/64/52 48/60/52 63/67/52 64/73/52
f 42/65/53 41/61/53 56/69/53 57/74/53
f 50/66/54 49/64/54 64/73/54 65/75/54
f 43/51/55 42/65/55 57/74/55 58/76/55
f 51/53/56 50/66/56 65/75/56 66/77/56
f 44/50/57 43/51/57 58/76/57 59/78/57
f 52/52/58 51/53/58 66/77/58 67/79/58
f 45/54/59 44/50/59 59/78/59 60/80/59
f 53/55/60 52/52/60 67/79/60 68/81/60
f 46/56/61 45/54/61 60/80/61 61/82/61
f 54/57/62 53/55/62 68/81/62 69/83/62
f 47/58/63 46/56/63 61/82/63 62/68/63
f 55/59/64 54/57/64 69/83/64 70/72/64
f 67/79/65 66/77/65 81/85/65 82/84/65
f 60/80/66 59/78/66 74/87/66 75/86/66
f 68/81/67 67/79/67 82/84/67 83/88/67
f 61/82/68 60/80/68 75/86/68 76/89/68
f 69/83/69 68/81/69 83/88/69 84/90/69
f 62/68/70 61/82/70 76/89/70 77/91/70
f 70/72/71 69/83/71 84/90/71 85/92/71
f 63/67/72 62/68/72 77/91/72 78/93/72
f 56/69/73 326/95/73 71/94/73
f 482/96/74 70/72/74 85/92/74
f 64/73/75 63/67/75 78/93/75 79/97/75
f 57/74/76 56/69/76 71/94/76 72/98/76
f 65/75/77 64/73/77 79/97/77 80/99/77
f 58/76/78 57/74/78 72/98/78 73/100/78
f 66/77/79 65/75/79 80/99/79 81/85/79
f 59/78/80 58/76/80 73/100/80 74/87/80
f 482/101/81 85/92/81 100/102/81
f 79/97/82 78/93/82 93/104/82 94/103/82
f 72/98/83 71/94/83 86/106/83 87/105/83
f 80/99/84 79/97/84 94/103/84 95/107/84
f 73/100/85 72/98/85 87/105/85 88/108/85
f 81/85/86 80/99/86 95/107/86 96/109/86
f 74/87/87 73/100/87 88/108/87 89/110/87
f 82/84/88 81/85/88 96/109/88 97/111/88
f 75/86/89 74/87/89 89/110/89 90/112/89
f 83/88/90 82/84/90 97/111/90 98/113/90
f 76/89/91 75/86/91 90/112/91 91/114/91
f 84/90/92 83/88/92 98/113/92 99/115/92
f 77/91/93 76/89/93 91/114/93 92/116/93
f 85/92/94 84/90/94 99/115/94 100/102/94
f 78/93/95 77/91/95 92/116/95 93/104/95
f 71/94/96 326/117/96 86/106/96
f 98/113/97 97/111/97 112/119/97 113/118/97
f 91/114/98 90/112/98 105/121/98 106/120/98
f 99/115/99 98/113/99 113/118/99 114/122/99
f 92/116/100 91/114/100 106/120/100 107/123/100
f 100/102/101 99/115/101 114/122/101 115/124/101
f 93/104/102 92/116/102 107/123/102 108/125/102
f 86/106/103 326/127/103 101/126/103
f 482/128/104 100/102/104 115/124/104
f 94/103/105 93/104/105 108/125/105 109/129/105
f 87/105/106 86/106/106 101/126/106 102/130/106
f 95/107/107 94/103/107 109/129/107 110/131/107
f 88/108/108 87/105/108 102/130/108 103/132/108
f 96/109/109 95/107/109 110/131/109 111/133/109
f 89/110/110 88/108/110 103/132/110 104/134/110
f 97/111/111 96/109/111 111/133/111 112/119/111
f 90/112/112 89/110/112 104/134/112 105/121/112
f 102/130/113 101/126/113 116/136/113 117/135/113
f 110/131/114 109/129/114 124/138/114 125/137/114
f 103/132/115 102/130/115 117/135/115 118/139/115
f 111/133/116 110/131/116 125/137/116 126/140/116
f 104/134/117 103/132/117 118/139/117 119/141/117
f 112/119/118 111/133/118 126/140/118 127/142/118
f 105/121/119 104/134/119 119/141/119 120/143/119
f 113/118/120 112/119/120 127/142/120 128/144/120
f 106/120/121 105/121/121 120/143/121 121/145/121
f 114/122/122 113/118/122 128/144/122 129/146/122
f 107/123/123 106/120/123 121/145/123 122/147/123
f 115/124/124 114/122/124 129/146/124 130/148/124
f 108/125/125 107/123/125 122/147/125 123/149/125
f 101/126/126 326/150/126 116/136/126
f 482/151/127 115/124/127 130/148/127
f 109/129/128 108/125/128 123/149/128 124/138/128
f 121/145/129 120/143/129 135/153/129 136/152/129
f 129/146/130 128/144/130 143/155/130 144/154/130
f 122/147/131 121/145/131 136/152/131 137/156/131
f 130/148/132 129/146/132 144/154/132 145/157/132
f 123/149/133 122/147/133 137/156/133 138/158/133
f 116/136/134 326/160/134 131/159/134
f 482/161/135 130/148/135 145/157/135
f 124/138/136 123/149/136 138/158/136 139/162/136
f 117/135/137 116/136/137 131/159/137 132/163/137
f 125/137/138 124/138/138 139/162/138 140/164/138
f 118/139/139 117/135/139 132/163/139 133/165/139
f 126/140/140 125/137/140 140/164/140 141/166/140
f 119/141/141 118/139/141 133/165/141 134/167/141
f 127/142/142 126/140/142 141/166/142 142/168/142
f 120/143/143 119/141/143 134/167/143 135/153/143
f 128/144/144 127/142/144 142/168/144 143/155/144
f 140/164/145 139/162/145 154/170/145 155/169/145
f 133/165/146 132/163/146 147/172/146 148/171/146
f 141/166/147 140/164/147 155/169/147 156/173/147
f 134/167/148 133/165/148 148/171/148 149/174/148
f 142/168/149 141/166/149 156/173/149 157/175/149
f 135/153/150 134/167/150 149/174/150 150/176/150
f 143/155/151 142/168/151 157/175/151 158/177/151
f 136/152/152 135/153/152 150/176/152 151/178/152
f 144/154/153 143/155/153 158/177/153 159/179/153
f 137/156/154 136/152/154 151/178/154 152/180/154
f 145/157/155 144/154/155 159/179/155 160/181/155
f 138/158/156 137/156/156 152/180/156 153/182/156
f 131/159/157 326/184/157 146/183/157
f 482/185/158 145/157/158 160/181/158
f 139/162/159 138/158/159 153/182/159 154/170/159
f 132/163/160 131/159/160 146/183/160 147/172/160
f 159/179/161 158/177/161 173/187/161 174/186/161
f 152/180/162 151/178/162 166/189/162 167/188/162
f 160/181/163 159/179/163 174/186/163 175/190/163
f 153/182/164 152/180/164 167/188/164 168/191/164
f 146/183/165 326/193/165 161/192/165
f 482/194/166 160/181/166 175/190/166
f 154/170/167 153/182/167 168/191/167 169/195/167
f 147/172/168 146/183/168 161/192/168 162/196/168
f 155/169/169 154/170/169 169/195/169 170/197/169
f 148/171/170 147/172/170 162/196/170 163/198/170
f 156/173/171 155/169/171 170/197/171 171/199/171
f 149/174/172 148/171/172 163/198/172 164/200/172
f 157/175/173 156/173/173 171/199/173 172/201/173
f 150/176/174 149/174/174 164/200/174 165/202/174
f 158/177/175 157/175/175 172/201/175 173/187/175
f 151/178/176 150/176/176 165/202/176 166/189/176
f 163/198/177 162/196/177 177/204/177 178/203/177
f 171/199/178 170/197/178 185/206/178 186/205/178
f 164/200/179 163/198/179 178/203/179 179/207/179
f 172/201/180 171/199/180 186/205/180 187/208/180
f 165/202/181 164/200/181 179/207/181 180/209/181
f 173/187/182 172/201/182 187/208/182 188/210/182
f 166/189/183 165/202/183 180/209/183 181/211/183
f 174/186/184 173/187/184 188/210/184 189/212/184
f 167/188/185 166/189/185 181/211/185 182/213/185
f 175/190/186 174/186/186 189/212/186 190/214/186
f 168/191/187 167/188/187 182/213/187 183/215/187
f 161/192/188 326/217/188 176/216/188
f 482/218/189 175/190/189 190/214/189
f 169/195/190 168/191/190 183/215/190 184/219/190
f 162/196/191 161/192/191 176/216/191 177/204/191
f 170/197/192 169/195/192 184/219/192 185/206/192
f 182/213/193 181/211/193 196/221/193 197/220/193
f 190/214/194 189/212/194 204/223/194 205/222/194
f 183/215/195 182/213/195 197/220/195 198/224/195
f 176/216/196 326/226/196 191/225/196
f 482/227/197 190/214/197 205/222/197
f 184/219/198 183/215/198 198/224/198 199/228/198
f 177/204/199 176/216/199 191/225/199 192/229/199
f 185/206/200 184/219/200 199/228/200 200/230/200
f 178/203/201 177/204/201 192/229/201 193/231/201
f 186/205/202 185/206/202 200/230/202 201/232/202
f 179/207/203 178/203/203 193/231/203 194/233/203
f 187/208/204 186/205/204 201/232/204 202/234/204
f 180/209/205 179/207/205 194/233/205 195/235/205
f 188/210/206 187/208/206 202/234/206 203/236/206
f 181/211/207 180/209/207 195/235/207 196/221/207
f 189/212/208 188/210/208 203/236/208 204/223/208
f 201/232/209 200/230/209 215/238/209 216/237/209
f 194/233/210 193/231/210 208/240/210 209/239/210
f 202/234/211 201/232/211 216/237/211 217/241/211
f 195/235/212 194/233/212 209/239/212 210/242/212
f 203/236/213 202/234/213 217/241/213 218/243/213
f 196/221/214 195/235/214 210/242/214 211/244/214
f 204/223/215 203/236/215 218/243/215 219/245/215
f 197/220/216 196/221/216 211/244/216 212/246/216
f 205/222/217 204/223/217 219/245/217 220/247/217
f 198/224/218 197/220/218 212/246/218 213/248/218
f 191/225/219 326/250/219 206/249/219
f 482/251/220 205/222/220 220/247/220
f 199/228/221 198/224/221 213/248/221 214/252/221
f 192/229/222 191/225/222 206/249/222 207/253/222
f 200/230/223 199/228/223 214/252/223 215/238/223
f 193/231/224 192/229/224 207/253/224 208/240/224
f 220/247/225 219/245/225 234/255/225 235/254/225
f 213/248/226 212/246/226 227/257/226 228/256/226
f 206/249/227 326/259/227 221/258/227
f 482/260/228 220/247/228 235/254/228
f 214/252/229 213/248/229 228/256/229 229/261/229
f 207/253/230 206/249/230 221/258/230 222/262/230
f 215/238/231 214/252/231 229/261/231 230/263/231
f 208/240/232 207/253/232 222/262/232 223/264/232
f 216/237/233 215/238/233 230/263/233 231/265/233
f 209/239/234 208/240/234 223/264/234 224/266/234
f 217/241/235 216/237/235 231/265/235 232/267/235
f 210/242/236 209/239/236 224/266/236 225/268/236
f 218/243/237 217/241/237 232/267/237 233/269/237
f 211/244/238 210/242/238 225/268/238 226/270/238
f 219/245/239 218/243/239 233/269/239 234/255/239
f 212/246/240 211/244/240 226/270/240 227/257/240
f 232/267/241 231/265/241 246/272/241 247/271/241
f 225/268/242 224/266/242 239/274/242 240/273/242
f 233/269/243 232/267/243 247/271/243 248/275/243
f 226/270/244 225/268/244 240/273/244 241/276/244
f 234/255/245 233/269/245 248/275/245 249/277/245
f 227/257/246 226/270/246 241/276/246 242/278/246
f 235/254/247 234/255/247 249/277/247 250/279/247
f 228/256/248 227/257/248 242/278/248 243/280/248
f 221/258/249 326/282/249 236/281/249
f 482/283/250 235/254/250 250/279/250
f 229/261/251 228/256/251 243/280/251 244/284/251
f 222/262/252 221/258/252 236/281/252 237/285/252
f 230/263/253 229/261/253 244/284/253 245/286/253
f 223/264/254 222/262/254 237/285/254 238/287/254
f 231/265/255 230/263/255 245/286/255 246/272/255
f 224/266/256 223/264/256 238/287/256 239/274/256
f 236/281/257 326/289/257 251/288/257
f 482/290/258 250/279/258 265/291/258
f 244/284/259 243/280/259 258/293/259 259/292/259
f 237/285/260 236/281/260 251/288/260 252/294/260
f 245/286/261 244/284/261 259/292/261 260/295/261
f 238/287/262 237/285/262 252/294/262 253/296/262
f 246/272/263 245/286/263 260/295/263 261/297/263
f 239/274/264 238/287/264 253/296/264 254/298/264
f 247/271/265 246/272/265 261/297/265 262/299/265
f 240/273/266 239/274/266 254/298/266 255/300/266
f 248/275/267 247/271/267 262/299/267 263/301/267
f 241/276/268 240/273/268 255/300/268 256/302/268
f 249/277/269 248/275/269 263/301/269 264/303/269
f 242/278/270 241/276/270 256/302/270 257/304/270
f 250/279/271 249/277/271 264/303/271 265/291/271
f 243/280/272 242/278/272 257/304/272 258/293/272
f 255/300/273 254/298/273 269/306/273 270/305/273
f 263/301/274 262/299/274 277/308/274 278/307/274
f 256/302/275 255/300/275 270/305/275 271/309/275
f 264/303/276 263/301/276 278/307/276 279/310/276
f 257/304/277 256/302/277 271/309/277 272/311/277
f 265/291/278 264/303/278 279/310/278 280/312/278
f 258/293/279 257/304/279 272/311/279 273/313/279
f 251/288/280 326/315/280 266/314/280
f 482/316/281 265/291/281 280/312/281
f 259/292/282 258/293/282 273/313/282 274/317/282
f 252/294/283 251/288/283 266/314/283 267/318/283
f 260/295/284 259/292/284 274/317/284 275/319/284
f 253/296/285 252/294/285 267/318/285 268/320/285
f 261/297/286 260/295/286 275/319/286 276/321/286
f 254/298/287 253/296/287 268/320/287 269/306/287
f 262/299/288 261/297/288 276/321/288 277/308/288
f 274/317/289 273/313/289 288/323/289 289/322/289
f 267/318/290 266/314/290 281/325/290 282/324/290
f 275/319/291 274/317/291 289/322/291 290/326/291
f 268/320/292 267/318/292 282/324/292 283/327/292
f 276/321/293 275/319/293 290/326/293 291/328/293
f 269/306/294 268/320/294 283/327/294 284/329/294
f 277/308/295 276/321/295 291/328/295 292/330/295
f 270/305/296 269/306/296 284/329/296 285/331/296
f 278/307/297 277/308/297 292/330/297 293/332/297
f 271/309/298 270/305/298 285/331/298 286/333/298
f 279/310/299 278/307/299 293/332/299 294/334/299
f 272/311/300 271/309/300 286/333/300 287/335/300
f 280/312/301 279/310/301 294/334/301 295/336/301
f 273/313/302 272/311/302 287/335/302 288/323/302
f 266/314/303 326/337/303 281/325/303
f 482/338/304 280/312/304 295/336/304
f 293/332/305 292/330/305 307/340/305 308/339/305
f 286/333/306 285/331/306 300/342/306 301/341/306
f 294/334/307 293/332/307 308/339/307 309/343/307
f 287/335/308 286/333/308 301/341/308 302/344/308
f 295/336/309 294/334/309 309/343/309 310/345/309
f 288/323/310 287/335/310 302/344/310 303/346/310
f 281/325/311 326/348/311 296/347/311
f 482/349/312 295/336/312 310/345/312
f 289/322/313 288/323/313 303/346/313 304/350/313
f 282/324/314 281/325/314 296/347/314 297/351/314
f 290/326/315 289/322/315 304/350/315 305/352/315
f 283/327/316 282/324/316 297/351/316 298/353/316
f 291/328/317 290/326/317 305/352/317 306/354/317
f 284/329/318 283/327/318 298/353/318 299/355/318
f 292/330/319 291/328/319 306/354/319 307/340/319
f 285/331/320 284/329/320 299/355/320 300/342/320
f 297/351/321 296/347/321 311/357/321 312/356/321
f 305/352/322 304/350/322 319/359/322 320/358/322
f 298/353/323 297/351/323 312/356/323 313/360/323
f 306/354/324 305/352/324 320/358/324 321/361/324
f 299/355/325 298/353/325 313/360/325 314/362/325
f 307/340/326 306/354/326 321/361/326 322/363/326
f 300/342/327 299/355/327 314/362/327 315/364/327
f 308/339/328 307/340/328 322/363/328 323/365/328
f 301/341/329 300/342/329 315/364/329 316/366/329
f 309/343/330 308/339/330 323/365/330 324/367/330
f 302/344/331 301/341/331 316/366/331 317/368/331
f 310/345/332 309/343/332 324/367/332 325/369/332
f 303/346/333 302/344/333 317/368/333 318/370/333
f 296/347/334 326/371/334 311/357/334
f 482/372/335 310/345/335 325/369/335
f 304/350/336 303/346/336 318/370/336 319/359/336
f 316/366/337 315/364/337 331/374/337 332/373/337
f 324/367/338 323/365/338 339/376/338 340/375/338
f 317/368/339 316/366/339 332/373/339 333/377/339
f 325/369/340 324/367/340 340/375/340 341/378/340
f 318/370/341 317/368/341 333/377/341 334/379/341
f 311/357/342 326/381/342 327/380/342
f 482/382/343 325/369/343 341/378/343
f 319/359/344 318/370/344 334/379/344 335/383/344
f 312/356/345 311/357/345 327/380/345 328/384/345
f 320/358/346 319/359/346 335/383/346 336/385/346
f 313/360/347 312/356/347 328/384/347 329/386/347
f 321/361/348 320/358/348 336/385/348 337/387/348
f 314/362/349 313/360/349 329/386/349 330/388/349
f 322/363/350 321/361/350 337/387/350 338/389/350
f 315/364/351 314/362/351 330/388/351 331/374/351
f 323/365/352 322/363/352 338/389/352 339/376/352
f 336/385/353 335/383/353 350/391/353 351/390/353
f 329/386/354 328/384/354 343/393/354 344/392/354
f 337/387/355 336/385/355 351/390/355 352/394/355
f 330/388/356 329/386/356 344/392/356 345/395/356
f 338/389/357 337/387/357 352/394/357 353/396/357
f 331/374/358 330/388/358 345/395/358 346/397/358
f 339/376/359 338/389/359 353/396/359 354/398/359
f 332/373/360 331/374/360 346/397/360 347/399/360
f 340/375/361 339/376/361 354/398/361 355/400/361
f 333/377/362 332/373/362 347/399/362 348/401/362
f 341/378/363 340/375/363 355/400/363 356/402/363
f 334/379/364 333/377/364 348/401/364 349/403/364
f 327/380/365 326/405/365 342/404/365
f 482/406/366 341/378/366 356/402/366
f 335/383/367 334/379/367 349/403/367 350/391/367
f 328/384/368 327/380/368 342/404/368 343/393/368
f 355/400/369 354/398/369 369/408/369 370/407/369
f 348/401/370 347/399/370 362/410/370 363/409/370
f 356/402/371 355/400/371 370/407/371 371/411/371
f 349/403/372 348/401/372 363/409/372 364/412/372
f 342/404/373 326/414/373 357/413/373
f 482/415/374 356/402/374 371/411/374
f 350/391/375 349/403/375 364/412/375 365/416/375
f 343/393/376 342/404/376 357/413/376 358/417/376
f 351/390/377 350/391/377 365/416/377 366/418/377
f 344/392/378 343/393/378 358/417/378 359/419/378
f 352/394/379 351/390/379 366/418/379 367/420/379
f 345/395/380 344/392/380 359/419/380 360/421/380
f 353/396/381 352/394/381 367/420/381 368/422/381
f 346/397/382 345/395/382 360/421/382 361/423/382
f 354/398/383 353/396/383 368/422/383 369/408/383
f 347/399/384 346/397/384 361/423/384 362/410/384
f 367/424/385 366/427/385 381/426/385 382/425/385
f 360/428/386 359/431/386 374/430/386 375/429/386
f 368/432/387 367/424/387 382/425/387 383/433/387
f 361/434/388 360/428/388 375/429/388 376/435/388
f 369/436/389 368/432/389 383/433/389 384/437/389
f 362/438/390 361/434/390 376/435/390 377/439/390
f 370/440/391 369/436/391 384/437/391 385/441/391
f 363/442/392 362/438/392 377/439/392 378/443/392
f 371/444/393 370/440/393 385/441/393 386/445/393
f 364/446/394 363/442/394 378/443/394 379/447/394
f 357/448/395 326/450/395 372/449/395
f 482/451/396 371/444/396 386/445/396
f 365/452/397 364/446/397 379/447/397 380/453/397
f 358/454/398 357/448/398 372/449/398 373/455/398
f 366/427/399 365/452/399 380/453/399 381/426/399
f 359/431/400 358/454/400 373/455/400 374/430/400
f 386/445/401 385/441/401 400/457/401 401/456/401
f 379/447/402 378/443/402 393/459/402 394/458/402
f 372/449/403 326/461/403 387/460/403
f 482/462/404 386/445/404 401/456/404
f 380/453/405 379/447/405 394/458/405 395/463/405
f 373/455/406 372/449/406 387/460/406 388/464/406
f 381/426/407 380/453/407 395/463/407 396/465/407
f 374/430/408 373/455/408 388/464/408 389/466/408
f 382/425/409 381/426/409 396/465/409 397/467/409
f 375/429/410 374/430/410 389/466/410 390/468/410
f 383/433/411 382/425/411 397/467/411 398/469/411
f 376/435/412 375/429/412 390/468/412 391/470/412
f 384/437/413 383/433/413 398/469/413 399/471/413
f 377/439/414 376/435/414 391/470/414 392/472/414
f 385/441/415 384/437/415 399/471/415 400/457/415
f 378/443/416 377/439/416 392/472/416 393/459/416
f 390/468/417 389/466/417 404/474/417 405/473/417
f 398/469/418 397/467/418 412/476/418 413/475/418
f 391/470/419 390/468/419 405/473/419 406/477/419
f 399/471/420 398/469/420 413/475/420 414/478/420
f 392/472/421 391/470/421 406/477/421 407/479/421
f 400/457/422 399/471/422 414/478/422 415/480/422
f 393/459/423 392/472/423 407/479/423 408/481/423
f 401/456/424 400/457/424 415/480/424 416/482/424
f 394/458/425 393/459/425 408/481/425 409/483/425
f 387/460/426 326/485/426 402/484/426
f 482/486/427 401/456/427 416/482/427
f 395/463/428 394/458/428 409/483/428 410/487/428
f 388/464/429 387/460/429 402/484/429 403/488/429
f 396/465/430 395/463/430 410/487/430 411/489/430
f 389/466/431 388/464/431 403/488/431 404/474/431
f 397/467/432 396/465/432 411/489/432 412/476/432
f 409/483/433 408/481/433 423/491/433 424/490/433
f 402/484/434 326/493/434 417/492/434
f 482/494/435 416/482/435 431/495/435
f 410/487/436 409/483/436 424/490/436 425/496/436
f 403/488/437 402/484/437 417/492/437 418/497/437
f 411/489/438 410/487/438 425/496/438 426/498/438
f 404/474/439 403/488/439 418/497/439 419/499/439
f 412/476/440 411/489/440 426/498/440 427/500/440
f 405/473/441 404/474/441 419/499/441 420/501/441
f 413/475/442 412/476/442 427/500/442 428/502/442
f 406/477/443 405/473/443 420/501/443 421/503/443
f 414/478/444 413/475/444 428/502/444 429/504/444
f 407/479/445 406/477/445 421/503/445 422/505/445
f 415/480/446 414/478/446 429/504/446 430/506/446
f 408/481/447 407/479/447 422/505/447 423/491/447
f 416/482/448 415/480/448 430/506/448 431/495/448
f 428/502/449 427/500/449 442/508/449 443/507/449
f 421/503/450 420/501/450 435/510/450 436/509/450
f 429/504/451 428/502/451 443/507/451 444/511/451
f 422/505/452 421/503/452 436/509/452 437/512/452
f 430/506/453 429/504/453 444/511/453 445/513/453
f 423/491/454 422/505/454 437/512/454 438/514/454
f 431/495/455 430/506/455 445/513/455 446/515/455
f 424/490/456 423/491/456 438/514/456 439/516/456
f 417/492/457 326/518/457 432/517/457
f 482/519/458 431/495/458 446/515/458
f 425/496/459 424/490/459 439/516/459 440/520/459
f 418/497/460 417/492/460 432/517/460 433/521/460
f 426/498/461 425/496/461 440/520/461 441/522/461
f 419/499/462 418/497/462 433/521/462 434/523/462
f 427/500/463 426/498/463 441/522/463 442/508/463
f 420/501/464 419/499/464 434/523/464 435/510/464
f 432/517/465 326/525/465 447/524/465
f 482/526/466 446/515/466 461/527/466
f 440/520/467 439/516/467 454/529/467 455/528/467
f 433/521/468 432/517/468 447/524/468 448/530/468
f 441/522/469 440/520/469 455/528/469 456/531/469
f 434/523/470 433/521/470 448/530/470 449/532/470
f 442/508/471 441/522/471 456/531/471 457/533/471
f 435/510/472 434/523/472 449/532/472 450/534/472
f 443/507/473 442/508/473 457/533/473 458/535/473
f 436/509/474 435/510/474 450/534/474 451/536/474
f 444/511/475 443/507/475 458/535/475 459/537/475
f 437/512/476 436/509/476 451/536/476 452/538/476
f 445/513/477 444/511/477 459/537/477 460/539/477
f 438/514/478 437/512/478 452/538/478 453/540/478
f 446/515/479 445/513/479 460/539/479 461/527/479
f 439/516/480 438/514/480 453/540/480 454/529/480
f 451/536/481 450/534/481 465/542/481 466/541/481
f 459/537/482 458/535/482 473/544/482 474/543/482
f 452/538/483 451/536/483 466/541/483 467/545/483
f 460/539/484 459/537/484 474/543/484 475/546/484
f 453/540/485 452/538/485 467/545/485 468/547/485
f 461/527/486 460/539/486 475/546/486 476/548/486
f 454/529/487 453/540/487 468/547/487 469/549/487
f 447/524/488 326/551/488 462/550/488
f 482/552/489 461/527/489 476/548/489
f 455/528/490 454/529/490 469/549/490 470/553/490
f 448/530/491 447/524/491 462/550/491 463/554/491
f 456/531/492 455/528/492 470/553/492 471/555/492
f 449/532/493 448/530/493 463/554/493 464/556/493
f 457/533/494 456/531/494 471/555/494 472/557/494
f 450/534/495 449/532/495 464/556/495 465/542/495
f 458/535/496 457/533/496 472/557/496 473/544/496
f 470/553/497 469/549/497 477/7/497 478/4/497
f 463/554/498 462/550/498 1/11/498 2/8/498
f 471/555/499 470/553/499 478/4/499 479/12/499
f 464/556/500 463/554/500 2/8/500 3/14/500
f 472/557/501 471/555/501 479/12/501 8/16/501
f 465/542/502 464/556/502 3/14/502 4/18/502
f 473/544/503 472/557/503 8/16/503 9/20/503
f 466/541/504 465/542/504 4/18/504 5/22/504
f 474/543/505 473/544/505 9/20/505 10/24/505
f 467/545/506 466/541/506 5/22/506 6/26/506
f 475/546/507 474/543/507 10/24/507 480/28/507
f 468/547/508 467/545/508 6/26/508 7/30/508
f 476/548/509 475/546/509 480/28/509 481/3/509
f 469/549/510 468/547/510 7/30/510 477/7/510
f 462/550/511 326/558/511 1/11/511
f 482/559/512 476/548/512 481/3/512
