# Blender v2.93.1 OBJ File: ''
# www.blender.org
mtllib bullet_crystal.mtl
o cube_Mesh_0
v 0.339499 0.339499 0.082376
v -0.140625 0.421875 -0.198874
v 0.421875 -0.140625 -0.198874
v -0.058249 -0.058249 -0.480124
v -0.421875 0.140625 0.198874
v 0.058249 0.058249 0.480124
v -0.339499 -0.339499 -0.082376
v 0.140625 -0.421875 0.198874
v -0.421875 0.140625 0.198874
v -0.140625 0.421875 -0.198874
v 0.058249 0.058249 0.480124
v 0.339499 0.339499 0.082376
v 0.140625 -0.421875 0.198874
v 0.421875 -0.140625 -0.198874
v -0.339499 -0.339499 -0.082376
v -0.058249 -0.058249 -0.480124
v 0.058249 0.058249 0.480124
v 0.339499 0.339499 0.082376
v 0.140625 -0.421875 0.198874
v 0.421875 -0.140625 -0.198874
v -0.140625 0.421875 -0.198874
v -0.421875 0.140625 0.198874
v -0.058249 -0.058249 -0.480124
v -0.339499 -0.339499 -0.082376
v 0.500000 0.500000 0.500000
v 0.500000 0.500000 -0.500000
v 0.500000 -0.500000 0.500000
v 0.500000 -0.500000 -0.500000
v -0.500000 0.500000 -0.500000
v -0.500000 0.500000 0.500000
v -0.500000 -0.500000 -0.500000
v -0.500000 -0.500000 0.500000
v -0.500000 0.500000 -0.500000
v 0.500000 0.500000 -0.500000
v -0.500000 0.500000 0.500000
v 0.500000 0.500000 0.500000
v -0.500000 -0.500000 0.500000
v 0.500000 -0.500000 0.500000
v -0.500000 -0.500000 -0.500000
v 0.500000 -0.500000 -0.500000
v -0.500000 0.500000 0.500000
v 0.500000 0.500000 0.500000
v -0.500000 -0.500000 0.500000
v 0.500000 -0.500000 0.500000
v 0.500000 0.500000 -0.500000
v -0.500000 0.500000 -0.500000
v 0.500000 -0.500000 -0.500000
v -0.500000 -0.500000 -0.500000
vt 0.000244 0.749756
vt 0.000244 0.500244
vt 0.249756 0.749756
vt 0.249756 0.500244
vt 0.500244 0.749756
vt 0.500244 0.500244
vt 0.749756 0.749756
vt 0.749756 0.500244
vt 0.499756 0.750244
vt 0.499756 0.999756
vt 0.250244 0.750244
vt 0.250244 0.999756
vt 0.749756 0.999756
vt 0.749756 0.750244
vt 0.500244 0.999756
vt 0.500244 0.750244
vt 0.750244 0.749756
vt 0.750244 0.500244
vt 0.999756 0.749756
vt 0.999756 0.500244
vt 0.250244 0.749756
vt 0.250244 0.500244
vt 0.499756 0.749756
vt 0.499756 0.500244
vt 0.000244 0.249756
vt 0.000244 0.000244
vt 0.249756 0.249756
vt 0.249756 0.000244
vt 0.500244 0.249756
vt 0.500244 0.000244
vt 0.749756 0.249756
vt 0.749756 0.000244
vt 0.499756 0.250244
vt 0.499756 0.499756
vt 0.250244 0.250244
vt 0.250244 0.499756
vt 0.749756 0.499756
vt 0.749756 0.250244
vt 0.500244 0.499756
vt 0.500244 0.250244
vt 0.750244 0.249756
vt 0.750244 0.000244
vt 0.999756 0.249756
vt 0.999756 0.000244
vt 0.250244 0.249756
vt 0.250244 0.000244
vt 0.499756 0.249756
vt 0.499756 0.000244
vn 0.5000 0.5000 -0.7071
vn -0.5000 -0.5000 0.7071
vn -0.1464 0.8536 0.5000
vn 0.1464 -0.8536 -0.5000
vn 0.8536 -0.1464 0.5000
vn -0.8536 0.1464 -0.5000
vn 1.0000 0.0000 0.0000
vn -1.0000 0.0000 -0.0000
vn 0.0000 1.0000 0.0000
vn 0.0000 -1.0000 0.0000
vn 0.0000 0.0000 1.0000
vn 0.0000 0.0000 -1.0000
usemtl Material_0
s off
f 1/1/1 3/2/1 2/3/1
f 3/2/1 4/4/1 2/3/1
f 5/5/2 7/6/2 6/7/2
f 7/6/2 8/8/2 6/7/2
f 9/9/3 11/10/3 10/11/3
f 11/10/3 12/12/3 10/11/3
f 13/13/4 15/14/4 14/15/4
f 15/14/4 16/16/4 14/15/4
f 17/17/5 19/18/5 18/19/5
f 19/18/5 20/20/5 18/19/5
f 21/21/6 23/22/6 22/23/6
f 23/22/6 24/24/6 22/23/6
f 25/25/7 27/26/7 26/27/7
f 27/26/7 28/28/7 26/27/7
f 29/29/8 31/30/8 30/31/8
f 31/30/8 32/32/8 30/31/8
f 33/33/9 35/34/9 34/35/9
f 35/34/9 36/36/9 34/35/9
f 37/37/10 39/38/10 38/39/10
f 39/38/10 40/40/10 38/39/10
f 41/41/11 43/42/11 42/43/11
f 43/42/11 44/44/11 42/43/11
f 45/45/12 47/46/12 46/47/12
f 47/46/12 48/48/12 46/47/12
